<?xml version="1.0" encoding="UTF-8" standalone="no"?>
<svg
   viewBox="0 0 48 48"
   width="48"
   height="48"
   version="1.1"
   id="svg29"
   xmlns="http://www.w3.org/2000/svg"
   xmlns:svg="http://www.w3.org/2000/svg">
  <defs
     id="defs1">
    <style
       type="text/css"
       id="style1">
   
    .str3 {stroke:#999999;stroke-width:75;stroke-miterlimit:38.2016}
    .str4 {stroke:black;stroke-width:20;stroke-miterlimit:22.9256}
    .str1 {stroke:gray;stroke-width:20;stroke-miterlimit:22.9256}
    .str0 {stroke:#999999;stroke-width:20;stroke-miterlimit:22.9256}
    .str5 {stroke:#B3B3B3;stroke-width:20;stroke-miterlimit:22.9256}
    .str2 {stroke:#999999;stroke-width:61.73;stroke-miterlimit:22.9256}
    .fil3 {fill:none}
    .fil4 {fill:black}
    .fil0 {fill:#999999}
    .fil1 {fill:#B3B3B3}
    .fil2 {fill:white}
   
  </style>
  </defs>
  <g
     id="g25"
     transform="matrix(0.0088624,0,0,0.0088624,-95.396247,-106.06937)">
    <g
       id="g10" />
    <g
       id="g17" />
    <g
       id="g24" />
  </g>
  <path
     id="rect26"
     style="fill:#999999;stroke:#999999;stroke-width:0.177248;stroke-miterlimit:22.9256"
     class="fil0 str0"
     d="m 31.359381,11.209253 h 8.8e-5 c 0.190254,0 0.343418,3.578159 0.343418,8.022777 v 16.889341 c 0,4.444619 -0.153164,8.022777 -0.343418,8.022777 h -8.8e-5 c -0.190254,0 -0.343418,-3.578158 -0.343418,-8.022777 V 19.23203 c 0,-4.444618 0.153164,-8.022777 0.343418,-8.022777 z m 0,-7.6243209 h 8.8e-5 c 0.190254,0 0.343418,0.1882638 0.343418,0.4221161 v 0.8884556 c 0,0.2338523 -0.153164,0.4221161 -0.343418,0.4221161 h -8.8e-5 c -0.190254,0 -0.343418,-0.1882638 -0.343418,-0.4221161 V 4.0070482 c 0,-0.2338523 0.153164,-0.4221161 0.343418,-0.4221161 z m 2.596152,5.835 c 0.11857,0 0.214027,0.1173116 0.214027,0.263036 V 10.23678 c 0,0.145724 -0.09546,0.263036 -0.214027,0.263036 -0.11857,0 -0.214027,-0.117312 -0.214027,-0.263036 V 9.6829681 c 0,-0.1457244 0.09546,-0.263036 0.214027,-0.263036 z m -3.605668,0 c 0.11857,0 0.214027,0.1173116 0.214027,0.263036 V 10.23678 c 0,0.145724 -0.09546,0.263036 -0.214027,0.263036 -0.11857,0 -0.214027,-0.117312 -0.214027,-0.263036 V 9.6829681 c 0,-0.1457244 0.09546,-0.263036 0.214027,-0.263036 z m -1.802789,0 c 0.11857,0 0.214027,0.1173116 0.214027,0.263036 V 10.23678 c 0,0.145724 -0.09546,0.263036 -0.214027,0.263036 -0.11857,0 -0.214027,-0.117312 -0.214027,-0.263036 V 9.6829681 c 0,-0.1457244 0.09546,-0.263036 0.214027,-0.263036 z m 0.901394,0 c 0.11857,0 0.214027,0.1173116 0.214027,0.263036 V 10.23678 c 0,0.145724 -0.09546,0.263036 -0.214027,0.263036 -0.11857,0 -0.214027,-0.117312 -0.214027,-0.263036 V 9.6829681 c 0,-0.1457244 0.09546,-0.263036 0.214027,-0.263036 z m 3.605668,0 c 0.11857,0 0.214027,0.1173116 0.214027,0.263036 V 10.23678 c 0,0.145724 -0.09546,0.263036 -0.214027,0.263036 -0.11857,0 -0.214027,-0.117312 -0.214027,-0.263036 V 9.6829681 c 0,-0.1457244 0.09546,-0.263036 0.214027,-0.263036 z m -1.802878,0 c 0.11857,0 0.214027,0.1173116 0.214027,0.263036 V 10.23678 c 0,0.145724 -0.09546,0.263036 -0.214027,0.263036 -0.11857,0 -0.214027,-0.117312 -0.214027,-0.263036 V 9.6829681 c 0,-0.1457244 0.09546,-0.263036 0.214027,-0.263036 z m 0.901483,0 c 0.11857,0 0.214027,0.1173116 0.214027,0.263036 V 10.23678 c 0,0.145724 -0.09546,0.263036 -0.214027,0.263036 -0.11857,0 -0.214027,-0.117312 -0.214027,-0.263036 V 9.6829681 c 0,-0.1457244 0.09546,-0.263036 0.214027,-0.263036 z m 1.80279,-1.5554398 c 0.11857,0 0.214027,0.1173116 0.214027,0.263036 v 0.5538114 c 0,0.1457244 -0.09546,0.263036 -0.214027,0.263036 -0.11857,0 -0.214027,-0.1173116 -0.214027,-0.263036 V 8.1275283 c 0,-0.1457244 0.09546,-0.263036 0.214027,-0.263036 z m -3.605668,0 c 0.11857,0 0.214027,0.1173116 0.214027,0.263036 v 0.5538114 c 0,0.1457244 -0.09546,0.263036 -0.214027,0.263036 -0.11857,0 -0.214027,-0.1173116 -0.214027,-0.263036 V 8.1275283 c 0,-0.1457244 0.09546,-0.263036 0.214027,-0.263036 z m -1.802789,0 c 0.11857,0 0.214027,0.1173116 0.214027,0.263036 v 0.5538114 c 0,0.1457244 -0.09546,0.263036 -0.214027,0.263036 -0.11857,0 -0.214027,-0.1173116 -0.214027,-0.263036 V 8.1275283 c 0,-0.1457244 0.09546,-0.263036 0.214027,-0.263036 z m 0.901394,0 c 0.11857,0 0.214027,0.1173116 0.214027,0.263036 v 0.5538114 c 0,0.1457244 -0.09546,0.263036 -0.214027,0.263036 -0.11857,0 -0.214027,-0.1173116 -0.214027,-0.263036 V 8.1275283 c 0,-0.1457244 0.09546,-0.263036 0.214027,-0.263036 z m 3.605668,0 c 0.11857,0 0.214027,0.1173116 0.214027,0.263036 v 0.5538114 c 0,0.1457244 -0.09546,0.263036 -0.214027,0.263036 -0.11857,0 -0.214027,-0.1173116 -0.214027,-0.263036 V 8.1275283 c 0,-0.1457244 0.09546,-0.263036 0.214027,-0.263036 z m -1.802878,0 c 0.11857,0 0.214027,0.1173116 0.214027,0.263036 v 0.5538114 c 0,0.1457244 -0.09546,0.263036 -0.214027,0.263036 -0.11857,0 -0.214027,-0.1173116 -0.214027,-0.263036 V 8.1275283 c 0,-0.1457244 0.09546,-0.263036 0.214027,-0.263036 z m 0.901483,0 c 0.11857,0 0.214027,0.1173116 0.214027,0.263036 v 0.5538114 c 0,0.1457244 -0.09546,0.263036 -0.214027,0.263036 -0.11857,0 -0.214027,-0.1173116 -0.214027,-0.263036 V 8.1275283 c 0,-0.1457244 0.09546,-0.263036 0.214027,-0.263036 z m 1.80279,-1.5553512 c 0.11857,0 0.214027,0.1173116 0.214027,0.263036 v 0.5538114 c 0,0.1457244 -0.09546,0.263036 -0.214027,0.263036 -0.11857,0 -0.214027,-0.1173116 -0.214027,-0.263036 V 6.5721771 c 0,-0.1457244 0.09546,-0.263036 0.214027,-0.263036 z m -3.605668,0 c 0.11857,0 0.214027,0.1173116 0.214027,0.263036 v 0.5538114 c 0,0.1457244 -0.09546,0.263036 -0.214027,0.263036 -0.11857,0 -0.214027,-0.1173116 -0.214027,-0.263036 V 6.5721771 c 0,-0.1457244 0.09546,-0.263036 0.214027,-0.263036 z m -1.802789,0 c 0.11857,0 0.214027,0.1173116 0.214027,0.263036 v 0.5538114 c 0,0.1457244 -0.09546,0.263036 -0.214027,0.263036 -0.11857,0 -0.214027,-0.1173116 -0.214027,-0.263036 V 6.5721771 c 0,-0.1457244 0.09546,-0.263036 0.214027,-0.263036 z m 0.901394,0 c 0.11857,0 0.214027,0.1173116 0.214027,0.263036 v 0.5538114 c 0,0.1457244 -0.09546,0.263036 -0.214027,0.263036 -0.11857,0 -0.214027,-0.1173116 -0.214027,-0.263036 V 6.5721771 c 0,-0.1457244 0.09546,-0.263036 0.214027,-0.263036 z m 3.605668,0 c 0.11857,0 0.214027,0.1173116 0.214027,0.263036 v 0.5538114 c 0,0.1457244 -0.09546,0.263036 -0.214027,0.263036 -0.11857,0 -0.214027,-0.1173116 -0.214027,-0.263036 V 6.5721771 c 0,-0.1457244 0.09546,-0.263036 0.214027,-0.263036 z m -1.802878,0 c 0.11857,0 0.214027,0.1173116 0.214027,0.263036 v 0.5538114 c 0,0.1457244 -0.09546,0.263036 -0.214027,0.263036 -0.11857,0 -0.214027,-0.1173116 -0.214027,-0.263036 V 6.5721771 c 0,-0.1457244 0.09546,-0.263036 0.214027,-0.263036 z m 0.901483,0 c 0.11857,0 0.214027,0.1173116 0.214027,0.263036 v 0.5538114 c 0,0.1457244 -0.09546,0.263036 -0.214027,0.263036 -0.11857,0 -0.214027,-0.1173116 -0.214027,-0.263036 V 6.5721771 c 0,-0.1457244 0.09546,-0.263036 0.214027,-0.263036 z M 32.588507,5.1147554 H 30.130255 29.136691 C 28.39287,5.3796526 28.089333,5.6129996 27.816814,5.9668752 h 2.338965 0.696673 4.049496 C 34.629429,5.6129996 34.325892,5.3796526 33.582071,5.1147554 Z M 13.825654,24.098991 h 1.384041 c 0.326225,0 0.593161,0.266936 0.593161,0.593161 v 3.756682 c 0,0.326314 -0.266936,0.593161 -0.593161,0.593161 h -1.384041 c -0.326313,0 -0.59316,-0.266847 -0.59316,-0.593161 v -3.756682 c 0,-0.326225 0.266847,-0.593161 0.59316,-0.593161 z m 0,0.247527 h 1.384041 c 0.190099,0 0.345634,0.155535 0.345634,0.345634 v 3.756682 c 0,0.190187 -0.155535,0.345722 -0.345634,0.345722 h -1.384041 c -0.190098,0 -0.345633,-0.155535 -0.345633,-0.345722 v -3.756682 c 0,-0.190099 0.155535,-0.345634 0.345633,-0.345634 z M 11.132812,0.08789062 V 47.912109 h 10.75 4.234376 10.75 V 0.08789062 h -10.75 -4.234376 z m 1.041016,1.04296878 h 9.708984 V 46.869141 h -9.708984 z m 10.751953,0 h 2.148438 V 46.869141 h -2.148438 z m 3.191407,0 h 9.708984 V 46.869141 h -9.708984 z" />
</svg>
