<?xml version="1.0" encoding="UTF-8" standalone="no"?>
<svg
   viewBox="0 0 48 48"
   width="48"
   height="48"
   version="1.1"
   id="svg10"
   xml:space="preserve"
   xmlns="http://www.w3.org/2000/svg"
   xmlns:svg="http://www.w3.org/2000/svg"><defs
     id="defs1"><style
       type="text/css"
       id="style1">
   
    .str3 {stroke:#999999;stroke-width:75;stroke-miterlimit:38.2016}
    .str4 {stroke:black;stroke-width:20;stroke-miterlimit:22.9256}
    .str1 {stroke:gray;stroke-width:20;stroke-miterlimit:22.9256}
    .str0 {stroke:#999999;stroke-width:20;stroke-miterlimit:22.9256}
    .str5 {stroke:#B3B3B3;stroke-width:20;stroke-miterlimit:22.9256}
    .str2 {stroke:#999999;stroke-width:61.73;stroke-miterlimit:22.9256}
    .fil3 {fill:none}
    .fil4 {fill:black}
    .fil0 {fill:#999999}
    .fil1 {fill:#B3B3B3}
    .fil2 {fill:white}
   
  </style></defs><path
     d="M 4.93204 47.6624 C 4.8201 47.5504 4.81358 47.4652 4.81358 46.0691 L 4.81358 44.5943 L 4.27519 44.5736 C 3.41696 44.5404 3.51054 45.3761 3.51054 37.7646 L 3.51054 31.2559 L 3.10363 31.2559 C 2.78202 31.2559 2.66475 31.2304 2.54095 31.1333 L 2.38518 31.0101 L 2.38518 29.7414 C 2.38518 28.5509 2.39231 28.465 2.50364 28.3537 C 2.61736 28.2399 2.70206 28.2352 4.53224 28.2334 L 6.44239 28.2315 L 6.02778 28.0142 C 5.42364 27.6968 4.66314 26.9244 4.37943 26.3398 C 4.09513 25.7534 3.98437 25.295 3.98437 24.7021 C 3.98437 24.265 3.99799 24.2046 4.11586 24.1223 C 4.23077 24.0417 4.60924 24.0299 7.04415 24.0299 L 9.84096 24.0299 L 9.85933 22.4159 C 9.87651 20.9038 9.88596 20.7841 10.0068 20.5223 C 10.191 20.1237 10.6317 19.6789 11.0492 19.4704 C 11.3596 19.3152 11.471 19.2915 11.8903 19.2915 C 12.7302 19.2915 13.3698 19.5847 13.7406 20.1397 C 13.9615 20.4702 14.0427 20.7196 14.0913 21.2165 C 14.1209 21.5233 14.1078 21.5938 13.9965 21.7347 C 13.9023 21.8532 13.8141 21.8976 13.6731 21.8976 C 13.419 21.8976 13.2834 21.7419 13.2828 21.4487 C 13.2823 20.8617 13.0542 20.4684 12.5928 20.257 C 11.8601 19.9217 11.1511 20.1533 10.7821 20.8487 C 10.6571 21.0838 10.6483 21.1827 10.6287 22.5639 L 10.6074 24.0299 L 13.4557 24.0299 C 16.801 24.0299 16.541 23.973 16.541 24.7015 C 16.541 25.2008 16.3787 25.9009 16.1643 26.3232 C 15.8367 26.97 15.1052 27.6837 14.3957 28.0498 L 14.0367 28.2351 L 17.3026 28.2351 L 20.5685 28.2351 L 20.5685 14.3459 C 20.5685 0.535411 20.569 0.456047 20.687 0.338178 C 20.8049 0.220313 20.8842 0.219723 33.0855 0.219723 L 45.3649 0.219723 L 45.4898 0.352985 L 45.6148 0.486251 L 45.5994 24.0139 C 45.584 46.7011 45.5799 47.5463 45.4756 47.6612 C 45.3678 47.7802 45.3288 47.7808 33.2199 47.7802 C 23.5472 47.7789 21.0418 47.7636 20.9239 47.7044 L 20.7759 47.6292 L 20.7599 46.1058 L 20.7445 44.5824 L 20.4193 44.5824 L 20.0947 44.5824 L 20.0947 46.0365 L 20.0947 47.49 L 19.9496 47.6357 C 19.7731 47.8116 19.5439 47.8223 19.384 47.6623 C 19.272 47.5504 19.2655 47.4651 19.2655 46.0631 L 19.2655 44.5824 L 12.4838 44.5824 L 5.70203 44.5824 L 5.69544 45.8706 C 5.68777 47.4515 5.68182 47.5208 5.55151 47.6647 C 5.41232 47.8187 5.08715 47.8175 4.93197 47.6624 Z M 44.7761 45.7902 C 44.7566 45.1511 44.7323 44.621 44.7222 44.6115 C 44.6956 44.586 34.9624 44.5647 27.7797 44.5742 L 21.5162 44.5824 L 21.5162 45.767 L 21.5162 46.9515 L 33.1643 46.9515 L 44.8117 46.9515 Z M 20.7462 40.3772 L 20.7462 37.0011 L 12.543 37.0011 L 4.33975 37.0011 L 4.33975 40.3772 L 4.33975 43.7533 L 12.543 43.7533 L 20.7462 43.7533 Z M 32.3386 30.9005 C 32.3463 23.8475 32.367 18.0164 32.3848 17.9418 C 32.4452 17.6942 32.7793 17.6503 33.0215 17.8588 C 33.1198 17.9429 33.1251 18.6353 33.1251 30.8502 L 33.1251 43.7533 L 38.9296 43.7533 L 44.7341 43.7533 L 44.7471 22.9046 C 44.7548 11.4378 44.7613 1.83613 44.7619 1.56722 L 44.7638 1.07859 L 33.0689 1.07859 L 21.3747 1.07859 L 21.3711 10.7181 L 21.3684 20.3577 L 22.0347 20.3577 L 22.7011 20.3577 L 22.7011 15.9895 C 22.7011 13.5872 22.7188 9.71658 22.7408 7.38887 L 22.7799 3.15635 L 22.9155 3.02071 L 23.0512 2.88508 L 27.5105 2.88553 L 31.9705 2.88599 L 32.269 3.02518 C 32.6208 3.18865 33.0396 3.6382 33.1243 3.94382 C 33.1574 4.06169 33.1841 4.4295 33.1841 4.76118 L 33.1845 5.36473 L 34.5616 5.3831 C 35.8647 5.40087 35.9523 5.40914 36.1934 5.53769 C 36.7969 5.86048 37.1878 6.41783 37.253 7.04803 C 37.2962 7.46559 37.2494 7.64684 37.0801 7.72028 C 36.9954 7.75761 35.3737 7.77537 32.6657 7.76885 C 27.6904 7.75702 28.1169 7.81623 28.1643 7.14398 C 28.185 6.85198 28.2413 6.66126 28.3876 6.38703 C 28.6174 5.95584 28.8792 5.70945 29.3317 5.49682 C 29.6604 5.34282 29.661 5.34282 31.0375 5.36059 L 32.4146 5.37836 L 32.4146 4.88677 C 32.4146 4.31166 32.3127 4.05341 32.0059 3.84848 L 31.8044 3.71403 L 27.7069 3.71403 L 23.6089 3.71403 L 23.5691 6.47767 C 23.5478 7.99808 23.53 11.7414 23.53 14.7964 L 23.53 20.3515 L 24.8976 20.3693 C 26.6307 20.3918 26.4915 20.2787 26.4915 21.6629 L 26.4915 22.6585 L 26.3357 22.7817 C 26.1835 22.9014 26.1178 22.9043 23.7592 22.9043 L 21.3385 22.9043 L 21.3385 25.5696 L 21.3385 28.2349 L 21.8533 28.2349 C 22.2998 28.2349 22.3857 28.2521 22.5048 28.3635 C 22.6392 28.4902 22.6416 28.5133 22.6416 29.7287 C 22.6416 30.9625 22.6411 30.9654 22.4965 31.1105 C 22.3691 31.2373 22.2975 31.2556 21.9338 31.2556 L 21.5162 31.2556 L 21.5162 37.5037 L 21.5162 43.7512 L 26.9209 43.7376 L 32.3256 43.7234 Z M 20.7462 33.7139 L 20.7462 31.2559 L 12.543 31.2559 L 4.33975 31.2559 L 4.33975 33.7139 L 4.33975 36.1719 L 12.543 36.1719 L 20.7462 36.1719 Z M 21.8124 29.7455 L 21.8124 29.0644 L 12.5134 29.0644 L 3.21439 29.0644 L 3.21439 29.7455 L 3.21439 30.4267 L 12.5134 30.4267 L 21.8124 30.4267 Z M 13.1288 27.6447 C 14.1517 27.3829 15.0194 26.713 15.4369 25.8619 C 15.556 25.6196 15.6697 25.2951 15.6904 25.1405 L 15.7278 24.8591 L 10.2627 24.8591 L 4.7976 24.8591 L 4.83375 25.1239 C 4.8835 25.4846 5.15891 26.0686 5.45565 26.4411 C 5.90639 27.008 6.72908 27.5179 7.44161 27.6731 C 7.70873 27.7312 8.44673 27.7531 10.2384 27.7566 C 12.4761 27.7606 12.7089 27.7519 13.1288 27.6447 Z M 25.6623 21.6305 L 25.6623 21.1857 L 23.5152 21.2011 L 21.3682 21.2165 L 21.351 21.6459 L 21.3332 22.0753 L 23.498 22.0753 L 25.6623 22.0753 Z M 36.301 6.74979 C 36.1849 6.5265 35.9776 6.35 35.7372 6.26945 C 35.4558 6.17527 29.7947 6.17468 29.6117 6.26807 C 29.418 6.36817 29.2154 6.56659 29.1201 6.7496 L 29.0354 6.91248 L 32.7105 6.91248 L 36.3857 6.91248 Z M 3.68823 17.1001 C 3.57095 16.9828 3.56977 16.9029 3.56977 8.69844 C 3.56977 0.749874 3.57388 0.411675 3.67816 0.317499 C 3.77766 0.227472 4.36344 0.219774 10.8946 0.219774 L 18.0033 0.219774 L 18.1165 0.344154 C 18.226 0.465573 18.2296 0.703081 18.2468 8.72213 L 18.2651 16.9751 L 18.1431 17.0971 C 18.0223 17.218 18.0033 17.2186 10.9142 17.2186 C 3.88547 17.2186 3.80551 17.2173 3.68823 17.1001 Z M 17.4093 10.6933 C 17.3879 7.56065 17.3702 4.10935 17.3702 3.02309 L 17.3702 1.04898 L 10.8846 1.04898 L 4.39896 1.04898 L 4.39896 8.71917 L 4.39896 16.3894 L 10.9237 16.3894 L 17.4489 16.3894 Z M 34.8695 26.6686 L 34.7243 26.5229 L 34.7243 24.4605 C 34.7243 22.1216 34.722 22.1346 35.139 22.1346 C 35.5559 22.1346 35.5536 22.1216 35.5536 24.4605 L 35.5536 26.5229 L 35.4084 26.6686 C 35.3285 26.7485 35.2071 26.8137 35.139 26.8137 C 35.0708 26.8137 34.9494 26.7485 34.8695 26.6686 Z M 29.6899 16.034 C 29.5844 15.9286 29.5714 15.8367 29.5714 15.2048 C 29.5714 14.5728 29.5844 14.481 29.6899 14.3756 C 29.8444 14.221 30.1299 14.2233 30.2869 14.3803 C 30.4006 14.494 30.4089 14.5591 30.3905 15.2148 C 30.3722 15.8794 30.3615 15.9338 30.2312 16.0393 C 30.0506 16.1856 29.8391 16.1832 29.6899 16.0339 Z M 31.5526 16.0073 C 31.4158 15.8699 31.4075 15.8243 31.4075 15.1912 C 31.4075 14.4105 31.4691 14.2571 31.7848 14.2571 C 32.1639 14.2571 32.2047 14.34 32.2278 15.1615 L 32.2486 15.8978 L 32.0863 16.0251 C 31.876 16.191 31.7321 16.1862 31.5526 16.0073 Z M 33.429 16.0488 C 33.323 15.9599 33.2993 15.8533 33.2661 15.3114 C 33.211 14.43 33.3248 14.2014 33.7838 14.2672 C 34.0065 14.2985 34.071 14.5189 34.0722 15.2492 C 34.0727 15.8373 34.0592 15.9291 33.9544 16.034 C 33.8081 16.1803 33.5931 16.1862 33.429 16.0488 Z M 35.2574 16.034 C 35.1514 15.928 35.139 15.8367 35.139 15.1787 C 35.139 14.484 35.1467 14.436 35.2704 14.3495 C 35.4475 14.2257 35.691 14.2328 35.8112 14.3655 C 35.8912 14.4543 35.9089 14.6089 35.9089 15.2208 C 35.9089 15.9256 35.9012 15.973 35.7774 16.06 C 35.598 16.1862 35.3996 16.1761 35.2574 16.034 Z M 35.4647 13.3805 C 35.1763 13.3219 35.139 13.2176 35.139 12.4684 C 35.139 11.7997 35.1461 11.757 35.2841 11.6184 C 35.4671 11.4354 35.6383 11.4342 35.8177 11.6137 C 35.9539 11.75 35.9569 11.7742 35.9255 12.4874 C 35.9077 12.8907 35.8692 13.2508 35.8402 13.2881 C 35.7727 13.3734 35.6181 13.4113 35.4647 13.3805 Z M 29.6721 13.2632 C 29.5892 13.172 29.5714 13.0281 29.5714 12.4583 C 29.5714 11.8003 29.5791 11.7564 29.7165 11.6184 C 29.7965 11.5385 29.9179 11.4733 29.986 11.4733 C 30.0541 11.4733 30.1755 11.5385 30.2555 11.6184 C 30.3917 11.7553 30.4006 11.8032 30.4 12.4032 C 30.3986 13.1963 30.3432 13.3319 30.0109 13.3568 C 29.8373 13.3698 29.7455 13.3444 29.6721 13.2632 Z M 31.5183 13.2703 C 31.459 13.1993 31.4371 12.973 31.4371 12.4358 C 31.4371 11.7333 31.4436 11.6942 31.5769 11.5864 C 31.7647 11.4342 31.9169 11.4443 32.0916 11.6184 C 32.2284 11.7558 32.2367 11.8014 32.2367 12.4346 C 32.2367 13.2377 32.1793 13.3687 31.8263 13.3687 C 31.6877 13.3687 31.568 13.3307 31.5183 13.2703 Z M 33.3579 13.275 C 33.1974 13.0814 33.2205 11.8452 33.3887 11.6154 C 33.4396 11.5455 33.5433 11.5088 33.6878 11.5088 C 34.0302 11.5088 34.0728 11.6142 34.0728 12.4529 C 34.0728 13.0748 34.058 13.1856 33.9644 13.2709 C 33.8264 13.3959 33.4604 13.3982 33.3579 13.275 Z M 29.7029 10.5517 C 29.5791 10.4652 29.5714 10.4172 29.5714 9.72245 C 29.5714 9.06441 29.5838 8.9732 29.6899 8.86718 C 29.8391 8.71792 30.0506 8.71556 30.2306 8.86126 C 30.3592 8.96551 30.3716 9.02532 30.3911 9.64605 C 30.4101 10.2638 30.4018 10.3313 30.2833 10.4812 C 30.1364 10.6678 29.9078 10.6956 29.7029 10.5517 Z M 31.552 10.5599 C 31.4519 10.4864 31.4348 10.3875 31.4176 9.77448 C 31.3998 9.12948 31.4088 9.05958 31.5254 8.91033 C 31.6687 8.72908 31.9056 8.69651 32.0922 8.83274 C 32.1935 8.90618 32.2095 9.00569 32.2266 9.65721 C 32.245 10.3425 32.2368 10.407 32.123 10.5208 C 31.9809 10.6629 31.7179 10.6813 31.552 10.5599 Z M 33.3615 10.4817 C 33.2454 10.3337 33.2359 10.2621 33.2537 9.6591 C 33.2697 9.10945 33.2922 8.97678 33.3858 8.87313 C 33.5291 8.71499 33.7998 8.71262 33.9544 8.86721 C 34.0598 8.97264 34.0728 9.06444 34.0728 9.69642 C 34.0728 10.3284 34.0598 10.4202 33.9544 10.5256 C 33.7814 10.6986 33.5167 10.679 33.3615 10.4818 Z M 35.2704 10.5516 C 35.1466 10.4651 35.139 10.4171 35.139 9.72235 C 35.139 9.06431 35.1514 8.9731 35.2574 8.86708 C 35.3996 8.72493 35.598 8.71486 35.7774 8.84104 C 35.9018 8.9281 35.9089 8.9749 35.9089 9.69631 C 35.9089 10.4177 35.9018 10.4645 35.7774 10.5516 C 35.7052 10.6025 35.5909 10.644 35.5239 10.644 C 35.457 10.644 35.3427 10.6025 35.2704 10.5516 Z M 9.61115 34.52 C 9.39911 34.4614 9.2842 34.1984 9.37423 33.9804 C 9.41274 33.8875 9.48084 33.7974 9.52527 33.7803 C 9.56968 33.7631 10.932 33.7453 12.5531 33.74 L 15.4991 33.7312 L 15.6057 33.8626 C 15.742 34.0309 15.7408 34.2476 15.603 34.3856 C 15.5065 34.4822 15.3424 34.4982 14.1075 34.5331 C 12.378 34.5823 9.80865 34.5746 9.61142 34.5201 Z M 6.22087 11.6084 C 5.86668 11.5551 5.87971 11.7322 5.87971 7.027 C 5.87971 2.93544 5.88509 2.72103 5.98809 2.62745 C 6.08463 2.54038 6.33222 2.52972 8.29803 2.52972 C 10.4208 2.52972 10.5037 2.53383 10.618 2.64818 C 10.7341 2.76427 10.7365 2.84541 10.7365 7.03529 C 10.7365 9.70594 10.7146 11.3442 10.6784 11.4117 C 10.5635 11.6267 10.3089 11.651 8.31402 11.6421 C 7.25204 11.6374 6.31029 11.622 6.22086 11.6084 Z M 9.9073 7.09037 L 9.9073 3.35893 L 8.27849 3.35893 L 6.64969 3.35893 L 6.65199 4.41025 L 6.65429 5.46157 L 7.38399 4.7064 C 8.01419 4.05369 8.13857 3.95123 8.29967 3.95123 C 8.54251 3.95123 8.72257 4.13306 8.72316 4.38063 C 8.72459 4.5524 8.61181 4.6827 7.68665 5.58654 L 6.64954 6.60055 L 6.6514 7.42265 L 6.65283 8.24534 L 6.99162 7.86035 C 7.65855 7.10163 8.16436 6.61654 8.28815 6.61654 C 8.49723 6.61654 8.7229 6.83983 8.7229 7.04654 C 8.7229 7.20646 8.58371 7.37052 7.68639 8.27318 L 6.64987 9.31562 L 6.64987 10.069 L 6.64987 10.8218 L 8.27868 10.8218 L 9.90748 10.8218 Z"
     fill="rgba(0,0,0,1)"
     id="path1-7"
     style="stroke-width:0.0592296" /></svg>
