<?xml version="1.0" encoding="UTF-8" standalone="no"?>
<svg
   viewBox="0 0 48 48"
   width="48"
   height="48"
   version="1.1"
   id="svg10"
   xml:space="preserve"
   xmlns="http://www.w3.org/2000/svg"
   xmlns:svg="http://www.w3.org/2000/svg"><defs
     id="defs1"><style
       type="text/css"
       id="style1">
   
    .str3 {stroke:#999999;stroke-width:75;stroke-miterlimit:38.2016}
    .str4 {stroke:black;stroke-width:20;stroke-miterlimit:22.9256}
    .str1 {stroke:gray;stroke-width:20;stroke-miterlimit:22.9256}
    .str0 {stroke:#999999;stroke-width:20;stroke-miterlimit:22.9256}
    .str5 {stroke:#B3B3B3;stroke-width:20;stroke-miterlimit:22.9256}
    .str2 {stroke:#999999;stroke-width:61.73;stroke-miterlimit:22.9256}
    .fil3 {fill:none}
    .fil4 {fill:black}
    .fil0 {fill:#999999}
    .fil1 {fill:#B3B3B3}
    .fil2 {fill:white}
   
  </style></defs><path
     d="M 16.3587 47.7001 C 16.0275 47.5785 15.9234 47.1523 16.1658 46.9099 C 16.2886 46.7871 16.3812 46.7813 18.3036 46.78 C 19.4088 46.7787 20.4286 46.7517 20.57 46.7189 C 20.9635 46.6276 21.0522 46.472 21.0522 45.8741 L 21.0522 45.3668 L 20.5617 45.3668 C 19.9483 45.3668 19.6416 45.2768 19.322 45.0029 C 18.989 44.718 18.8662 44.3451 18.8662 43.6192 C 18.8662 43.3074 18.8546 43.0521 18.8411 43.0521 C 18.8276 43.0521 18.5794 43.0071 18.2907 42.9525 C 15.661 42.4535 13.5477 40.5305 12.8372 37.9895 L 12.6617 37.362 L 12.6617 26.2067 L 12.6617 15.0515 L 12.8333 14.4407 C 13.583 11.7717 15.7234 9.82488 18.384 9.39153 C 18.7022 9.34009 19.1581 9.29766 19.3966 9.29701 L 19.8306 9.29701 L 19.8319 8.67013 C 19.8338 7.95131 19.9367 7.64591 20.2891 7.3135 C 20.5334 7.08268 21.0034 6.91808 21.4174 6.91808 L 21.6952 6.91808 L 21.6965 5.84113 C 21.6971 5.24897 21.7261 4.56808 21.7608 4.32826 C 22.0167 2.5582 23.2614 1.12056 25.0707 0.505893 L 25.5851 0.331009 L 28.1968 0.309791 L 30.8091 0.287931 L 30.9936 0.44674 L 31.1788 0.60555 L 31.1942 2.15764 C 31.2122 3.94891 31.1852 4.08844 30.7911 4.21831 C 30.6168 4.27618 30.026 4.29097 28.6005 4.27361 L 26.6492 4.24982 L 26.4769 4.42213 C 26.3219 4.57644 26.2988 4.66131 26.2531 5.22582 C 26.2248 5.57302 26.201 6.11053 26.1991 6.41979 L 26.1959 6.98238 L 26.5656 6.98302 C 27.1134 6.98302 27.4137 7.09039 27.7152 7.39194 C 28.0392 7.71534 28.1241 7.99181 28.1241 8.72478 L 28.1248 9.27772 L 28.8159 9.31565 C 32.0224 9.49247 34.6726 11.8688 35.2307 15.0682 C 35.3773 15.9098 35.3728 36.5769 35.2255 37.4179 C 34.7484 40.1447 32.482 42.44 29.7893 42.9229 C 29.0081 43.0631 29.0891 42.9878 29.0891 43.5716 C 29.0891 44.3136 28.992 44.6312 28.6667 44.9566 C 28.3427 45.2806 28.0784 45.3661 27.395 45.3661 L 26.8902 45.3668 L 26.9127 45.9435 C 26.9301 46.3897 26.961 46.5453 27.0497 46.6347 C 27.1545 46.7388 27.3673 46.7517 29.4421 46.7813 C 31.6249 46.8121 31.724 46.8186 31.8172 46.942 C 31.9509 47.1195 31.9419 47.3805 31.7953 47.5618 L 31.6725 47.7136 L 29.4325 47.7322 C 26.9912 47.7521 26.8767 47.7386 26.4479 47.3779 C 26.1007 47.0854 25.9811 46.7601 25.9509 46.0258 L 25.9239 45.3668 L 23.9783 45.3668 L 22.0321 45.3668 L 22.0044 45.9615 C 21.9832 46.4322 21.944 46.6231 21.8161 46.8777 C 21.6142 47.2789 21.2239 47.5837 20.7944 47.6756 C 20.4607 47.747 16.5458 47.7689 16.3587 47.7001 Z M 27.8881 44.3284 C 28.1029 44.2152 28.1228 44.1529 28.1234 43.5826 L 28.1247 43.0521 L 23.9777 43.0521 L 19.8306 43.0521 L 19.8306 43.5864 C 19.8306 44.1201 19.8859 44.2853 20.0878 44.358 C 20.1412 44.3766 21.8861 44.3946 23.9661 44.3972 C 26.6999 44.4011 27.7865 44.3818 27.8881 44.3284 Z M 29.8864 41.9398 C 31.0508 41.5933 31.9555 41.0725 32.6678 40.3376 C 33.505 39.4735 34.0361 38.482 34.2617 37.3607 C 34.3543 36.8997 34.3633 35.7552 34.3472 26.046 L 34.3292 15.2443 L 34.1839 14.73 C 33.8033 13.3817 32.9745 12.1839 31.8365 11.3378 C 31.3864 11.0028 30.548 10.6099 29.925 10.4415 L 29.3785 10.2936 L 23.9777 10.2936 L 18.5768 10.2936 L 18.0303 10.4389 C 15.9864 10.9828 14.4555 12.4719 13.8036 14.55 L 13.6261 15.1158 L 13.6062 25.9174 C 13.592 33.7788 13.6068 36.847 13.6602 37.1897 C 14.0363 39.6046 16.041 41.5965 18.5228 42.0215 C 18.6939 42.0504 21.2355 42.0697 24.1706 42.0639 C 29.0512 42.0536 29.5392 42.0433 29.8864 41.9398 Z M 27.1603 8.73957 C 27.1603 7.8703 27.467 7.94681 23.9886 7.94681 C 21.3261 7.94681 21.0181 7.95774 20.9127 8.0529 C 20.8156 8.14098 20.795 8.25928 20.795 8.728 L 20.795 9.29701 L 23.9777 9.29701 L 27.1603 9.29701 Z M 25.243 5.77684 C 25.2636 4.79183 25.2848 4.59637 25.3999 4.34626 C 25.5902 3.93156 25.8435 3.65766 26.2203 3.45898 L 26.5495 3.28539 L 28.3658 3.26546 L 30.1822 3.24617 L 30.1822 2.2528 L 30.1822 1.26008 L 28.1408 1.26137 C 26.5958 1.26201 25.9901 1.28516 25.6494 1.35653 C 24.3622 1.62721 23.2582 2.60386 22.875 3.81197 C 22.7368 4.24596 22.7239 4.40027 22.7239 5.6026 L 22.7239 6.91808 L 23.9712 6.91808 L 25.2192 6.91808 Z M 23.2704 37.5619 C 22.794 37.4462 22.2983 37.1511 21.9684 36.7859 C 20.9873 35.7006 21.0349 34.0591 22.0765 33.0182 C 23.4254 31.6699 25.6558 32.0634 26.4794 33.7936 C 26.6626 34.1787 26.6781 34.2649 26.6781 34.8866 C 26.6781 35.5129 26.6633 35.5932 26.4723 35.9964 C 25.884 37.2379 24.573 37.8789 23.2704 37.5619 Z M 24.7518 36.5101 C 25.0739 36.3442 25.513 35.8768 25.6526 35.5501 C 25.803 35.1972 25.8049 34.5896 25.6571 34.2604 L 25.5355 33.9916 L 25.2411 34.3266 C 24.33 35.3637 24.1416 35.4775 23.7931 35.2036 C 23.4858 34.9612 23.5533 34.7722 24.2027 34.0578 C 24.521 33.7074 24.7814 33.3924 24.7814 33.3564 C 24.7814 33.2522 24.1506 33.1313 23.815 33.1712 C 23.2061 33.2432 22.6879 33.6103 22.3921 34.1794 C 22.1838 34.5793 22.1787 35.3759 22.3819 35.7546 C 22.5632 36.0928 22.8808 36.3905 23.2383 36.557 C 23.617 36.7338 24.3622 36.7107 24.7518 36.5101 Z M 19.3433 29.734 C 19.27 29.698 19.1613 29.5867 19.1021 29.4871 C 19.0044 29.3218 18.9948 28.8801 18.9948 24.6026 C 18.9948 19.5586 18.9903 19.6299 19.3124 19.4576 C 19.394 19.4139 20.986 19.3914 23.9783 19.3914 L 28.5201 19.3914 L 28.7085 19.5792 L 28.8963 19.7675 L 28.8963 24.526 C 28.8963 27.4001 28.8718 29.3488 28.8345 29.4466 C 28.695 29.815 28.7908 29.8079 23.9327 29.8028 C 21.0754 29.8002 19.4288 29.7751 19.3432 29.734 Z M 27.9164 24.5833 L 27.9325 20.3558 L 23.9462 20.3558 L 19.9592 20.3558 L 19.9592 24.5563 C 19.9592 26.867 19.9785 28.7766 20.0023 28.8004 C 20.0267 28.8242 21.8128 28.8364 23.9725 28.8274 L 27.8997 28.8107 Z M 23.2312 28.171 C 21.9485 27.8173 21.2303 26.6497 21.4991 25.3548 C 21.5994 24.8719 21.7807 24.5434 22.3857 23.7481 C 22.9702 22.981 23.1354 22.6319 23.2646 21.8912 C 23.3161 21.5948 23.3765 21.3055 23.3984 21.2489 C 23.444 21.1293 23.6993 20.9988 23.8857 20.9988 C 24.1725 20.9988 25.0623 22.0224 25.4372 22.783 C 25.5966 23.1064 25.6449 23.3006 25.6686 23.7011 C 25.6976 24.202 25.6995 24.2078 25.8326 24.1152 C 26.0364 23.9725 26.3437 23.9969 26.5058 24.1692 C 26.7102 24.3865 26.8125 25.2204 26.7154 25.8743 C 26.4961 27.355 25.4404 28.2738 23.9777 28.2578 C 23.7301 28.2552 23.3945 28.216 23.2312 28.171 Z M 24.6277 27.2046 C 25.2745 27.013 25.6931 26.4536 25.7863 25.6576 L 25.83 25.2867 L 25.5664 25.5503 C 25.2173 25.8994 24.9511 26.0331 24.71 25.9804 C 24.2889 25.8878 24.2419 25.5155 24.5473 24.681 C 24.728 24.1866 24.7685 23.6529 24.6496 23.334 C 24.5673 23.1109 24.1879 22.5419 24.1223 22.5419 C 24.096 22.5419 24.0741 22.5933 24.0741 22.6563 C 24.0741 22.8852 23.6292 23.6838 23.127 24.3537 C 22.8441 24.7311 22.5657 25.1587 22.5079 25.3034 C 22.3619 25.6686 22.3716 26.2164 22.5304 26.5269 C 22.8519 27.157 23.779 27.4566 24.6277 27.2046 Z"
     fill="rgba(0,0,0,1)"
     id="path1"
     style="stroke-width:0.0642955" /></svg>
