<?xml version="1.0" encoding="UTF-8" standalone="no"?>
<svg
   viewBox="0 0 48 48"
   width="48"
   height="48"
   version="1.1"
   id="svg10"
   xml:space="preserve"
   xmlns="http://www.w3.org/2000/svg"
   xmlns:svg="http://www.w3.org/2000/svg"><defs
     id="defs1"><style
       type="text/css"
       id="style1">
   
    .str3 {stroke:#999999;stroke-width:75;stroke-miterlimit:38.2016}
    .str4 {stroke:black;stroke-width:20;stroke-miterlimit:22.9256}
    .str1 {stroke:gray;stroke-width:20;stroke-miterlimit:22.9256}
    .str0 {stroke:#999999;stroke-width:20;stroke-miterlimit:22.9256}
    .str5 {stroke:#B3B3B3;stroke-width:20;stroke-miterlimit:22.9256}
    .str2 {stroke:#999999;stroke-width:61.73;stroke-miterlimit:22.9256}
    .fil3 {fill:none}
    .fil4 {fill:black}
    .fil0 {fill:#999999}
    .fil1 {fill:#B3B3B3}
    .fil2 {fill:white}
   
  </style></defs><path
     d="M 0.10434821,47.073891 C 0.00543121,47.016051 1.3499193e-6,45.854696 1.3499193e-6,24.010448 1.3499193e-6,5.6807062 0.01487435,0.99588628 0.07448425,0.94699434 0.16395817,0.8736919 47.802149,0.82060952 47.918406,0.89387656 c 0.106708,0.0674006 0.109658,46.06609444 0.0035,46.17280144 -0.09478,0.09478 -47.65491697,0.101396 -47.81707954,0.007 z M 6.8710533,46.304214 11.744878,46.303625 V 44.9622 43.620788 H 6.2897681 0.83467008 v 1.380165 1.380176 l 0.58128512,-0.03812 c 0.3195564,-0.02148 2.7746469,-0.03872 5.4550981,-0.03872 z M 47.277546,45.98526 v -0.317762 l -8.50578,-0.03931 c -4.677667,-0.02208 -9.815605,-0.0399 -11.416963,-0.0399 h -2.911171 v 0.372614 0.372616 l 11.416963,-0.01546 11.416951,-0.01487 z M 23.608975,44.925243 v -1.378985 l -0.186007,0.03754 c -0.102575,0.0203 -2.584473,0.03695 -5.51472,0.03695 h -5.328713 v 1.341412 1.341425 h 5.51472 5.51472 z m 3.875211,-0.280805 c 0,-0.05784 -0.03341,-0.138909 -0.07448,-0.180045 -0.05666,-0.05607 -0.07448,-0.516895 -0.07448,-1.890508 v -1.81658 l 3.890107,-0.0137 3.890119,-0.01428 v 1.859511 c 0,1.175672 -0.02207,1.873215 -0.0596,1.896469 -0.03281,0.0203 -0.0596,0.08877 -0.0596,0.152613 0,0.102576 0.04355,0.115678 0.394074,0.115678 0.346989,0 0.407201,-0.01735 0.50855,-0.146062 0.163354,-0.207477 0.965822,-0.731525 1.251395,-0.817376 0.217015,-0.06504 0.304057,-0.16038 0.876395,-0.963437 0.349361,-0.490655 0.829888,-1.119038 1.067773,-1.396867 0.237874,-0.277818 0.432827,-0.540137 0.432827,-0.583658 0,-0.04296 0.0674,-0.131165 0.149639,-0.196147 0.276637,-0.217605 0.521663,-0.01913 0.46563,0.377385 -0.02148,0.15024 0.0035,0.194954 0.159176,0.281996 0.105528,0.05902 0.224759,0.198531 0.27901,0.327902 0.09655,0.228937 0.09243,0.764907 -0.0209,2.534979 l -0.03695,0.581285 h 0.238474 0.239078 l 0.425674,-0.705286 0.426275,-0.704695 v -0.698132 c 0,-0.788752 0.0602,-1.000998 0.355913,-1.249613 0.170519,-0.143678 0.188993,-0.187199 0.154419,-0.369039 -0.0209,-0.113318 -0.01181,-0.257549 0.02207,-0.319556 0.07625,-0.143075 0.327901,-0.208658 0.481719,-0.126384 0.147844,0.07873 0.297494,0.363077 0.297494,0.564582 0,0.08464 0.03872,0.168726 0.087,0.187211 0.04769,0.01853 0.155009,0.170508 0.238475,0.338029 0.135922,0.273061 0.151433,0.375 0.151433,0.99087 v 0.686801 l 0.420303,0.702901 0.419712,0.702311 h 1.368845 1.368254 V 40.043733 35.333865 H 35.830837 24.443691 v 4.724765 4.724776 l 1.520277,-0.01664 c 1.407597,-0.01547 1.520277,-0.02502 1.520277,-0.122218 z m 11.278042,0.0047 c 0.04886,-0.05725 0.13832,-0.274843 0.199724,-0.482911 0.165148,-0.564583 0.38037,-0.86864 0.701708,-0.990858 l 0.26769,-0.102577 0.04238,-0.507959 c 0.03635,-0.438197 0.02798,-0.521061 -0.0602,-0.605129 -0.07036,-0.0674 -0.110958,-0.07626 -0.12818,-0.02856 -0.01428,0.03812 -0.190787,0.320157 -0.392894,0.625998 -0.462632,0.703491 -1.31876,1.568567 -1.802863,1.82254 -0.70171,0.368437 -0.700517,0.369629 0.244436,0.372013 0.727948,0.0023 0.851949,-0.01192 0.928261,-0.102575 z m 1.094592,-0.278419 c 0.02267,-0.211043 0.02738,-0.419123 0.01181,-0.462042 -0.034,-0.09124 -0.249205,0.361282 -0.310018,0.651034 -0.03695,0.177662 -0.02798,0.193762 0.108477,0.193762 0.1395,0 0.152024,-0.02502 0.190173,-0.382754 z m 3.485906,-0.180046 c 0,-0.01487 -0.05607,-0.122218 -0.125205,-0.238476 -0.120424,-0.204491 -0.137717,-0.212246 -0.470978,-0.212246 -0.333272,0 -0.350565,0.0082 -0.470989,0.212246 -0.06917,0.11627 -0.125204,0.223567 -0.125204,0.238476 0,0.01428 0.268291,0.02621 0.596193,0.02621 0.327903,0 0.596183,-0.01193 0.596183,-0.02621 z m -0.357707,-1.580489 c 0,-0.466221 -0.07991,-0.778022 -0.198531,-0.778022 -0.03341,0 -0.109658,0.04415 -0.169328,0.09832 -0.09007,0.08168 -0.109068,0.191366 -0.109068,0.625987 v 0.527625 h 0.238476 0.238474 z M 11.704934,41.280693 11.715554,39.80513 H 6.2753673 0.83516588 v 1.491063 1.49046 l 5.43006182,-0.01487 5.4300633,-0.01547 z m 11.96247,0.04474 c 0,-0.786969 -0.0209,-1.46245 -0.04532,-1.5006 -0.03341,-0.05312 -1.374804,-0.06138 -5.543332,-0.03518 l -5.499221,0.03399 v 1.483897 1.48391 l 5.544524,-0.01735 5.544537,-0.01794 z m 8.872434,1.32949 c 0.03931,-0.03931 0.07153,-0.141293 0.07153,-0.226553 0,-0.08522 -0.03222,-0.187199 -0.07153,-0.226554 -0.09242,-0.09243 -2.444962,-0.100805 -2.61547,-0.0095 -0.147856,0.07933 -0.155009,0.385741 -0.01062,0.469798 0.155599,0.09065 2.534979,0.08404 2.6262,-0.007 z M 23.608975,25.496719 V 12.082528 h -3.219408 -3.219395 v 0.404215 c 0,0.467412 -0.0883,0.63733 -0.399446,0.767291 -0.228347,0.09538 -0.234898,0.2194 -0.0131,0.248615 0.07933,0.01062 0.385741,0.0674 0.680852,0.126385 0.501985,0.100806 0.615256,0.155009 1.75874,0.837053 0.671904,0.400637 1.311016,0.813197 1.419518,0.91634 0.108479,0.103166 0.275445,0.34876 0.370833,0.545507 0.153817,0.315378 0.209862,0.607514 0.476951,2.474166 0.166329,1.163763 0.422699,2.907606 0.569952,3.875211 0.381563,2.504573 0.365463,2.287569 0.183623,2.469397 l -0.153817,0.153817 h -1.164943 c -1.086246,0 -1.173891,-0.0082 -1.284777,-0.119232 -0.06563,-0.06563 -0.121026,-0.193171 -0.12341,-0.283188 -0.0023,-0.09007 -0.02621,-0.217606 -0.05371,-0.283188 -0.02738,-0.06622 -0.03576,0.335055 -0.01794,0.897253 0.02679,0.871036 0.01724,1.043929 -0.0674,1.207283 l -0.09832,0.190776 h -3.273069 c -2.896263,0 -3.284389,-0.01062 -3.367251,-0.09361 -0.07991,-0.0805 -0.09361,-0.3112 -0.09361,-1.609693 v -1.51611 h -0.745231 -0.74523 v 0.95808 c 0,0.927069 -0.03577,1.150635 -0.202709,1.261522 -0.03576,0.02444 -1.3318746,0.04474 -2.878982,0.04474 l -2.8139913,0.0012 -0.092425,-0.132346 c -0.075076,-0.107315 -0.093018,-0.325535 -0.093018,-1.147679 v -1.015304 l -1.1989266,0.01735 c -1.3390393,0.01971 -1.4839092,-0.0131 -1.4839092,-0.335657 0,-0.09124 0.1067077,-0.955683 0.2366809,-1.920914 0.6605723,-4.901836 0.6295751,-4.71642 0.8692424,-5.188601 0.2116447,-0.418521 0.6188453,-0.735692 1.8833546,-1.467218 1.0850539,-0.627781 1.1858124,-0.673687 1.6836201,-0.760127 0.2915456,-0.05063 0.5395583,-0.09242 0.5514803,-0.09242 0.011922,0 0.022073,-0.07696 0.022073,-0.171111 0,-0.229527 0.1854045,-0.450709 0.4757462,-0.566967 0.2348985,-0.09361 0.2396673,-0.101395 0.2396673,-0.394074 V 12.082588 H 4.5309452 0.83458738 v 13.41419 13.414178 H 12.221746 23.608892 Z m 23.622666,6.021474 0.01605,-2.980932 H 35.84564 24.443584 v 2.980932 2.980933 H 35.829539 47.215505 Z M 33.401916,27.752086 c 4.827919,-0.007 9.911594,-0.02325 11.29713,-0.03576 l 2.518891,-0.02267 V 24.73181 21.770555 l -11.387159,0.01547 -11.387146,0.01487 v 3.016698 c 0,2.665544 0.01062,3.013122 0.09007,2.982113 0.04946,-0.01841 4.040348,-0.03989 8.868255,-0.04769 z m -17.557067,-6.355338 0.01664,-4.338445 -0.841219,-0.982512 c -0.462645,-0.540149 -0.875204,-1.017099 -0.915739,-1.06003 -0.06079,-0.06316 -0.206285,-0.0035 -0.784584,0.318966 -0.3911,0.218208 -0.716618,0.40242 -0.723771,0.408382 -0.007,0.007 0.05182,0.171712 0.130564,0.366654 0.14428,0.357116 0.282598,1.186413 0.810222,4.84998 0.318955,2.21841 0.314186,2.331078 -0.104937,2.331078 h -0.196736 v 1.222192 1.222181 h 1.29671 1.296699 z m 2.815783,0.820941 c 0,-3.438205 0.0035,-3.520478 0.119232,-3.636736 0.165738,-0.165739 0.450119,-0.15619 0.564594,0.01912 0.05902,0.08947 0.164547,0.7184 0.297495,1.773649 0.200915,1.587052 0.484693,3.525838 0.538354,3.67727 0.01912,0.05371 0.212837,0.07448 0.689197,0.07448 h 0.662355 l -0.03341,-0.163957 c -0.03164,-0.155009 -0.194954,-1.3289 -0.757754,-5.44019 -0.132357,-0.967616 -0.284381,-1.879175 -0.338632,-2.027032 -0.146062,-0.40183 -0.598577,-0.811414 -1.349768,-1.222781 -0.357707,-0.196737 -0.671302,-0.365463 -0.695749,-0.375591 -0.02444,-0.01062 -0.159175,0.150831 -0.299288,0.357707 -0.140102,0.206876 -0.531201,0.732116 -0.869231,1.166737 l -0.614077,0.791137 v 4.261541 4.262133 h 1.043328 1.043326 z m -8.406226,-0.43939 c 0,-2.946937 0.0023,-3.005366 0.12341,-3.159785 0.0805,-0.101987 0.18125,-0.156792 0.289149,-0.156792 0.316583,0 0.366065,0.135934 0.516896,1.414147 0.07696,0.648651 0.188402,1.501203 0.248012,1.894687 l 0.108479,0.715425 0.698722,0.01664 c 0.383946,0.0095 0.698133,-0.0047 0.698133,-0.02987 0,-0.06197 -0.308225,-2.355524 -0.570545,-4.243046 -0.115087,-0.832284 -0.250396,-1.610306 -0.299288,-1.728947 -0.162753,-0.390498 -0.395267,-0.661764 -0.79352,-0.925276 -0.392883,-0.259345 -1.255574,-0.715425 -1.2865714,-0.679647 -0.0095,0.01062 -0.07507,0.135332 -0.147254,0.278408 -0.4220978,0.83586 -1.486896,2.094999 -1.773059,2.094999 -0.3118012,0 -1.3008772,-1.05107 -1.8225406,-1.937605 -0.1353323,-0.229529 -0.2527815,-0.426867 -0.2611269,-0.43939 -0.035766,-0.05063 -1.3080304,0.693375 -1.550684,0.906802 -0.4048045,0.356526 -0.5288168,0.661765 -0.6713021,1.652032 -0.13414,0.931839 -0.6611743,4.929268 -0.6611743,5.013325 0,0.02798 0.3046479,0.05123 0.6760827,0.05123 h 0.676661 l 0.1603802,-1.356317 c 0.088176,-0.745832 0.1901852,-1.608511 0.2265531,-1.916146 0.072713,-0.620628 0.1669313,-0.781598 0.457273,-0.781598 0.096556,0 0.2181959,0.05371 0.2825863,0.125204 0.1078881,0.119232 0.1150885,0.276626 0.1353322,3.159775 l 0.021483,3.034592 h 2.2589447 2.2589441 z m 20.502836,-0.873408 5.580303,-5.91e-4 -0.186608,-0.119833 c -0.410176,-0.262921 -0.671303,-0.820953 -0.675481,-1.443375 -0.0023,-0.324915 0.0203,-0.425072 0.116859,-0.521663 0.152625,-0.152625 0.193171,-0.15023 0.565185,0.03164 l 0.308827,0.151433 4.0791,-0.01724 4.079112,-0.01664 0.260525,-0.138908 c 0.498421,-0.265896 0.692773,-0.07448 0.651636,0.642689 -0.03222,0.550878 -0.250999,1.006357 -0.608115,1.2651 l -0.232502,0.168725 h 1.260933 1.260932 V 15.987687 11.069161 H 37.1275 c -5.549896,0 -10.674116,-0.01794 -11.387145,-0.03931 l -1.296711,-0.03931 v 4.99603 4.996043 l 0.366654,-0.03812 c 0.201516,-0.0209 2.8772,-0.03872 5.946956,-0.03931 z M 8.3269399,16.002452 c 0.5127159,-0.527624 1.1077173,-1.4213 1.0105355,-1.517892 -0.050639,-0.05063 -0.7547678,-0.181828 -1.215027,-0.225951 -0.2575503,-0.02502 -0.6373185,-0.0131 -0.9389919,0.02987 -0.5961818,0.08464 -0.6051292,0.102576 -0.3124032,0.651034 0.1782631,0.333863 1.0200732,1.375998 1.1118843,1.375998 0.022073,0 0.1764807,-0.140703 0.3440023,-0.313005 z M 16.65029,15.793794 c 0.602155,-0.72377 1.003974,-1.284186 0.953299,-1.328899 -0.05666,-0.05063 -0.786367,-0.161573 -1.387317,-0.211645 -0.396471,-0.03222 -1.346783,0.05063 -1.420711,0.124602 -0.09124,0.09124 0.159175,0.47695 0.735091,1.131562 0.360692,0.409573 0.673698,0.74523 0.695157,0.74582 0.02207,6.03e-4 0.212837,-0.207466 0.424481,-0.46144 z m -4.232917,-0.826322 c 0.421507,-0.211044 0.915148,-0.506154 1.597179,-0.953889 0.541932,-0.355925 0.598579,-0.378588 1.132755,-0.455491 0.47695,-0.06859 0.564593,-0.09832 0.580093,-0.196737 0.04946,-0.310018 0.153816,-0.448927 0.436403,-0.578309 0.288559,-0.132346 0.290943,-0.135923 0.290943,-0.416727 V 12.082528 H 12.698767 8.9427987 v 0.348771 c 0,0.506756 -0.085224,0.700517 -0.3606931,0.822145 -0.318364,0.140703 -0.3440022,0.247411 -0.068581,0.289149 1.0302128,0.156202 1.1101019,0.184225 2.0479014,0.721976 0.503178,0.288561 1.034379,0.599771 1.180441,0.691582 0.145472,0.09184 0.287369,0.166931 0.314788,0.166931 0.02738,0 0.189584,-0.07035 0.360693,-0.15561 z m -5.2458385,-3.9229 c 0.1806476,-0.318954 0.3976513,-0.463836 0.7434477,-0.497217 0.4107655,-0.03931 0.7833805,0.181237 0.9914486,0.586644 l 0.06622,0.129371 3.1597752,0.02621 3.159785,0.02621 0.119244,-0.257551 c 0.204491,-0.441774 0.722578,-0.636728 1.182236,-0.444761 0.211645,0.08888 0.516895,0.413162 0.516895,0.549686 0,0.07213 0.478732,0.08464 3.249212,0.08464 H 23.60901 V 10.204461 9.1611345 H 13.160856 C 7.4142118,9.1605442 2.2900019,9.1431925 1.7736974,9.1218273 L 0.83470548,9.0831104 v 1.0969756 1.097579 H 3.9372658 7.0398143 Z m 0.9485295,0.191377 c -0.055479,-0.05548 -0.087703,-0.05548 -0.1430874,0 -0.055479,0.05548 -0.039897,0.07153 0.071532,0.07153 0.1114292,0 0.1269868,-0.01605 0.071532,-0.07153 z m 8.227361,0 c -0.05548,-0.05548 -0.08758,-0.05548 -0.143075,0 -0.05548,0.05548 -0.03989,0.07153 0.07153,0.07153 0.111429,0 0.126986,-0.01605 0.07153,-0.07153 z M 26.471856,9.1314121 c 0.02915,-1.0182907 0.03872,-1.0886304 0.190185,-1.3777799 0.199121,-0.3791781 0.673687,-0.8126071 1.046302,-0.9550926 0.253973,-0.097146 0.544327,-0.1102488 2.861701,-0.1275888 1.612678,-0.012512 2.704295,0.00354 2.912954,0.042376 0.709464,0.1311654 1.268097,0.5842599 1.507163,1.2227825 0.106116,0.2837786 0.137126,0.5282147 0.166341,1.3145816 l 0.03635,0.9658221 0.169906,-0.01062 c 0.09361,-0.0059 0.599169,-0.01487 1.123807,-0.02089 l 0.9539,-0.01062 V 8.544402 6.9144308 l 1.386137,-0.039307 c 0.762523,-0.021483 2.425876,-0.039307 3.696347,-0.039307 h 2.310221 v 1.6693138 1.6693254 h 1.192375 1.192376 V 5.9117211 1.6489985 H 35.830766 24.44362 v 4.2937316 4.2943219 l 0.998614,-0.01664 0.998613,-0.01605 z m 16.04634,-0.6647509 c 0.135333,-0.1228082 0.138909,-0.2468205 0.01062,-0.3887038 -0.09007,-0.099507 -0.215811,-0.1090685 -1.411763,-0.1090685 -1.137522,0 -1.327105,0.013103 -1.4213,0.098327 -0.135345,0.12282 -0.138921,0.2468204 -0.01062,0.3887156 0.09007,0.099507 0.215823,0.1090685 1.411775,0.1090685 1.137523,0 1.327105,-0.013103 1.421301,-0.098327 z M 12.355968,8.3271622 23.608975,8.3265602 V 4.9879209 1.6492817 H 12.221828 0.83467008 v 3.3755974 3.3750072 l 0.13414,-0.035766 C 1.0427027,8.3444078 6.1669599,8.3277643 12.355968,8.3271741 Z M 27.655886,40.311931 c -0.281406,-0.153215 -0.366064,-0.441774 -0.339233,-1.155406 0.01912,-0.501395 0.05123,-0.684428 0.153817,-0.880562 0.167521,-0.320158 0.497218,-0.589631 0.822144,-0.671314 0.366053,-0.09242 5.542731,-0.08888 5.910577,0.0047 0.179456,0.04474 0.361295,0.152625 0.527625,0.312994 0.345194,0.331478 0.462644,0.738077 0.434621,1.505369 l -0.0203,0.566376 -0.222976,0.203902 -0.222374,0.20389 -3.444167,-0.0023 c -2.861689,-0.0023 -3.469805,-0.01664 -3.599766,-0.087 z m 6.301087,-8.470014 c -0.126396,-0.126386 -0.118051,-0.40183 0.01547,-0.523447 0.09655,-0.087 0.327902,-0.09832 2.056837,-0.09832 1.868447,0 1.952514,0.0047 2.066978,0.119243 0.143087,0.143076 0.151432,0.285573 0.02621,0.463824 -0.09242,0.132358 -0.09361,0.132358 -2.082487,0.132358 -1.728936,0 -2.001394,-0.01251 -2.083066,-0.09361 z m 0.02325,-6.676086 c -0.115089,-0.138319 -0.09538,-0.447736 0.03341,-0.541932 0.08817,-0.06445 0.511524,-0.08109 2.055645,-0.08109 2.14925,0 2.165953,0.0035 2.165953,0.357706 0,0.355335 -0.0137,0.357719 -2.199936,0.357719 -1.715822,0 -1.988871,-0.01251 -2.055044,-0.09243 z m 2.211846,-6.659395 c -0.140101,-0.0739 -0.338632,-0.251 -0.441774,-0.393485 -0.174686,-0.24086 -0.187801,-0.293918 -0.187801,-0.749409 0,-0.424482 0.0203,-0.519869 0.149049,-0.710644 0.08227,-0.121027 0.256358,-0.293328 0.387523,-0.382755 l 0.238475,-0.163355 H 40.4858 c 4.014711,0 4.154812,0.0035 4.366469,0.117449 0.276625,0.149049 0.555635,0.535368 0.631357,0.87341 0.0942,0.419121 -0.06139,0.946144 -0.362488,1.226948 -0.344592,0.321941 -0.25814,0.315981 -4.628786,0.315981 H 36.445445 Z M 37.175778,6.2864137 c -0.127589,-0.1818397 -0.13414,-1.458271 -0.0082,-1.6299711 0.08227,-0.1127277 0.191967,-0.1156787 3.928269,-0.1156787 3.696347,0 3.848972,0.00473 3.969997,0.1133179 0.113908,0.1037566 0.125205,0.1776611 0.125205,0.8197485 0,0.6271907 -0.0137,0.720194 -0.119243,0.8257213 -0.11686,0.1168589 -0.198531,0.1192433 -3.961062,0.1192433 h -3.84247 z M 6.5371906,7.0250927 c -0.054298,-0.05961 -0.098327,-0.1579958 -0.098327,-0.2182077 0,-0.1818397 0.7756372,-1.5667728 0.8948806,-1.5977818 C 7.5078291,5.1631861 7.7188836,5.3021181 7.739151,5.4749989 7.7612241,5.6669782 7.0875142,7.0417835 6.9444386,7.0966246 6.7751111,7.1616642 6.6397789,7.1378202 6.537238,7.0250925 Z M 8.8974952,7.0083315 C 8.6834543,6.9290086 8.6894271,6.7281292 8.9273591,6.0013721 L 9.1515279,5.3157637 9.3744925,5.2972315 c 0.1907872,-0.015463 0.2337063,0.00472 0.2927378,0.13414 0.056659,0.1240122 0.044737,0.2414614 -0.06504,0.6432913 C 9.3726629,6.9128963 9.2122827,7.1251429 8.897507,7.0082839 Z M 17.569606,6.8807541 C 17.360346,6.5981559 16.944208,5.812391 16.929902,5.6734704 16.903112,5.4075748 17.025282,5.226337 17.231576,5.226337 c 0.166931,0 0.304058,0.176469 0.645074,0.8286958 0.3273,0.6259986 0.361885,0.7768293 0.213426,0.9258778 -0.154406,0.1544073 -0.361885,0.1144982 -0.52047,-0.1002154 z m -2.213039,0 C 15.215863,6.6643406 14.904665,5.770062 14.904665,5.5810691 c 0,-0.3362471 0.445941,-0.457273 0.602744,-0.1633547 0.113318,0.2116446 0.410766,1.1357281 0.410766,1.2764311 0,0.3034558 -0.398844,0.4364036 -0.561608,0.1866086 z m -4.329499,-0.047098 c -0.126396,-0.1263966 -0.12878,-0.239077 -0.02148,-1.1148706 0.04828,-0.3934844 0.271856,-0.5401484 0.532984,-0.3493613 0.101396,0.074483 0.112137,0.1490366 0.09655,0.6671235 -0.01664,0.5586334 -0.06976,0.7780214 -0.212235,0.8728189 -0.116858,0.078142 -0.271266,0.048869 -0.395869,-0.075663 z m 2.133753,0.017234 C 13.064271,6.7418217 12.937242,6.0609466 12.937242,5.648989 c 0,-0.2509991 0.106117,-0.3630775 0.344605,-0.3630775 0.214619,0 0.296302,0.1848143 0.365461,0.829286 0.0596,0.5544548 0.05607,0.6319596 -0.03281,0.7303336 -0.125795,0.1383187 -0.332671,0.140703 -0.453697,0.0059 z m 6.11567,-0.5234458 c -0.56339,-0.6152688 -0.652227,-0.7660996 -0.563993,-0.9580672 0.03458,-0.076962 0.132948,-0.1573937 0.217606,-0.1782631 0.181238,-0.045917 0.264114,0.021483 0.871025,0.7064778 0.431647,0.4870898 0.494845,0.6635587 0.300482,0.8400277 -0.205685,0.1860066 -0.341016,0.1192316 -0.82512,-0.4101752 z M 4.4457679,6.6827666 C 4.2794385,6.5158352 4.3437818,6.36262 4.8320991,5.7592732 5.2351212,5.2614656 5.3388542,5.1666681 5.4807494,5.1666681 c 0.329094,0 0.4167383,0.3243251 0.1788534,0.665943 C 5.5833494,5.9416795 5.3758242,6.1986633 5.197561,6.4037567 4.8529685,6.801408 4.642516,6.8789127 4.4457679,6.6827666 Z M 4.9674313,4.5704863 C 4.7659262,4.4888029 4.7098811,4.3212814 4.7098811,3.8031945 c 0,-0.5735299 0.063151,-0.7643171 0.2819962,-0.848373 0.1156787,-0.044736 2.3209504,-0.050639 7.3754117,-0.020303 l 7.210274,0.043557 0.137716,0.1377166 c 0.123411,0.1234102 0.137728,0.1931598 0.137728,0.6701098 0,0.4358135 -0.0209,0.5586335 -0.113907,0.6736865 l -0.113908,0.140703 -7.263935,0.011804 C 8.2463898,4.6191776 5.0406985,4.6002912 4.9673605,4.5708994 Z M 19.07796,3.7358294 c 0,-0.1186414 -0.03989,-0.1192434 -6.796522,-0.1192434 -6.7565654,0 -6.79651,6.02e-4 -6.79651,0.1192434 0,0.1186296 0.039897,0.1192317 6.79651,0.1192317 6.756578,0 6.796522,-6.021e-4 6.796522,-0.1192317 z"
     fill="rgba(0,0,0,1)"
     id="path1-5"
     style="stroke-width:0.0596185" /></svg>
