<?xml version="1.0" encoding="UTF-8"?>
<!DOCTYPE svg PUBLIC "-//W3C//DTD SVG 1.1//EN" "http://www.w3.org/Graphics/SVG/1.1/DTD/svg11.dtd">
<!-- Creator: CorelDRAW 2026 -->
<svg xmlns="http://www.w3.org/2000/svg" xml:space="preserve" width="2016px" height="2112px" version="1.1" style="shape-rendering:geometricPrecision; text-rendering:geometricPrecision; image-rendering:optimizeQuality; fill-rule:evenodd; clip-rule:evenodd"
viewBox="0 0 2016 2112"
 xmlns:xlink="http://www.w3.org/1999/xlink"
 xmlns:xodm="http://www.corel.com/coreldraw/odm/2003">
 <defs>
  <style type="text/css">
   <![CDATA[
    .str0 {stroke:#373435;stroke-miterlimit:2.61313}
    .fil0 {fill:none}
   ]]>
  </style>
 </defs>
 <g id="Layer_x0020_1">
  <metadata id="CorelCorpID_0Corel-Layer"/>
  <polygon id="perfil-2hab" class="fil0 str0" points="151.5,95.5 152.475,653.306 292.5,653.5 292.5,1462.5 152.5,1463.5 152.5,2006.5 1246.5,2006.5 1247.5,2026.5 1278.5,2026.5 1278.5,2023.5 1889.5,2024.5 1889.5,94.5 "/>
  <path id="perfil-1hab-frente" class="fil0 str0" d="M30.5 561.5l1575.141 0.575 -1.141 220.425 213 -2 0.09 184.684c1.743,14.108 7.443,23.575 20,25l145.91 1.316 -1 558 -1741 4 0 -5 -211 1 0 -988z"/>
  <polygon id="perfil-1hab-contrafrente" class="fil0 str0" points="139.5,563.5 1877.5,559.5 1877.379,1549.742 516.5,1549.5 516.5,1334.426 279.5,1334.5 279.527,1116.5 139.5,1116.5 "/>
 </g>
</svg>
