<?xml version="1.0" encoding="UTF-8"?>
<!DOCTYPE svg PUBLIC "-//W3C//DTD SVG 1.1//EN" "http://www.w3.org/Graphics/SVG/1.1/DTD/svg11.dtd">
<!-- Creator: CorelDRAW 2026 -->
<svg xmlns="http://www.w3.org/2000/svg" xml:space="preserve" width="48px" height="48px" version="1.1" style="shape-rendering:geometricPrecision; text-rendering:geometricPrecision; image-rendering:optimizeQuality; fill-rule:evenodd; clip-rule:evenodd"
viewBox="0 0 48 48"
 xmlns:xlink="http://www.w3.org/1999/xlink"
 xmlns:xodm="http://www.corel.com/coreldraw/odm/2003">
 <defs>
  <style type="text/css">
   <![CDATA[
    .fil0 {fill:#292929}
   ]]>
  </style>
 </defs>
 <g id="Layer_x0020_1">
  <metadata id="CorelCorpID_0Corel-Layer"/>
  <path class="fil0" d="M30.468 41.796c1.434,4.725 -8.392,3.745 -10.759,2.989 -1.784,-0.569 -2.254,-0.765 -2.038,-3.016 1.988,0.277 4.45,2.06 10.027,0.907 1.099,-0.227 1.925,-0.663 2.77,-0.88zm8.648 -23.476l1.628 0.116c1.101,2.654 1.143,8.693 -0.023,11.212l-1.595 0.073 -0.01 -11.401zm-25.952 0.076c2.352,0.001 4.682,0.623 5.224,-1.744 0.356,-1.55 0.189,-4.889 0.195,-6.674 2.521,0.642 8.525,0.998 10.952,0.059 0.494,1.891 -0.397,6.158 0.786,7.597 1.016,1.237 5.392,0.652 7.265,0.738l0.016 11.354c-10.514,0.452 -7.787,-1.644 -7.98,10.748 -2.658,1.054 -8.526,1.419 -10.859,-0.263 -0.072,-2.417 0.657,-9.131 -0.947,-10.132 -1.358,-0.847 -7.944,-0.145 -10.195,-0.465 -1.567,-1.962 -1.5,-8.957 -0.248,-11.217l5.791 -0.001zm31.729 9.956c-0.407,1.509 -0.788,2.323 -2.517,2.189 -0.048,-0.589 0.391,-2.31 0.482,-3.154 0.128,-1.182 0.163,-2.404 0.133,-3.637 -0.073,-2.969 -0.311,-3.875 -0.966,-6.499 2.053,-0.127 2.452,0.411 2.933,2.226 0.754,2.84 0.696,6.054 -0.065,8.875zm-39.082 2.213c-2.656,0.833 -3.238,-4.363 -3.222,-6.813 0.017,-2.506 0.099,-6.862 3.457,-6.464 -0.136,0.848 -0.722,1.765 -0.911,3.026 -0.281,1.88 -0.195,5.272 0.088,7.175 0.152,1.016 0.762,2.281 0.588,3.076zm22.69 -21.9c-1.248,0.254 -11.738,1.114 -10.013,-2.008 0.208,-0.377 0.839,-0.068 1.246,0.015 4.734,0.969 7.464,-0.214 9.955,-0.057 0.231,1.389 0.302,1.746 -1.188,2.05zm-10.259 -4.243c0.945,-2.338 10.46,-2.269 11.822,-0.141 -1.406,1.618 -9.973,1.566 -11.822,0.141zm13.306 12.152c-0.443,-1.001 -0.345,-4.68 -0.309,-6.035 0.052,-1.954 0.954,-3.46 0.655,-5.424 -0.317,-2.082 -1.143,-2.806 -2.857,-3.391 -2.967,-1.014 -7.472,-0.999 -10.398,0.274 -1.729,0.752 -2.149,1.682 -2.182,4.148 -0.021,1.578 0.599,1.352 0.571,5.74 -0.04,6.402 1.145,4.801 -7.039,4.791 -3.474,-0.004 -2.111,-1.335 -5.223,-0.983 -3.259,0.368 -3.785,5.112 -3.765,8.633 0.061,11.236 6.692,7.125 7.126,7.058 0.795,-0.123 2.136,-0.055 2.984,-0.059 6.908,-0.034 6.398,-1.425 6.046,6.087 -0.196,4.185 -1.12,3.094 -1.098,5.287 0.037,3.624 4.58,4.272 8.116,4.299 3.262,0.026 8.258,-0.858 8.02,-4.282 -0.15,-2.155 -0.897,-0.705 -1.032,-5.357 -0.04,-1.404 -0.367,-4.763 0.025,-5.84 1.29,-0.365 4.464,-0.116 6.051,-0.097 5.537,0.067 3.258,0.513 5.459,0.656 3.89,0.252 4.311,-4.426 4.302,-8.136 -0.009,-3.657 -0.439,-8.399 -4.351,-8.242 -1.08,0.043 -1.75,0.201 -2.583,0.619 -1.212,0.608 -7.193,0.41 -8.518,0.254z"/>
 </g>
</svg>
