<?xml version="1.0" encoding="UTF-8"?>
<!DOCTYPE svg PUBLIC "-//W3C//DTD SVG 1.1//EN" "http://www.w3.org/Graphics/SVG/1.1/DTD/svg11.dtd">
<!-- Creator: CorelDRAW 2026 -->
<svg xmlns="http://www.w3.org/2000/svg" xml:space="preserve" width="48px" height="48px" version="1.1" style="shape-rendering:geometricPrecision; text-rendering:geometricPrecision; image-rendering:optimizeQuality; fill-rule:evenodd; clip-rule:evenodd"
viewBox="0 0 48 48"
 xmlns:xlink="http://www.w3.org/1999/xlink"
 xmlns:xodm="http://www.corel.com/coreldraw/odm/2003">
 <defs>
  <style type="text/css">
   <![CDATA[
    .fil0 {fill:black}
   ]]>
  </style>
 </defs>
 <g id="Layer_x0020_1">
  <metadata id="CorelCorpID_0Corel-Layer"/>
  <g id="_2347782830544">
   <path class="fil0" d="M7.273 40.68c-1.69,0 -3.819,-0.836 -4.308,-1.84l22.061 -0.017c3.408,0.016 9.215,-0.111 12.307,0.024 -0.595,1.101 -2.695,1.833 -4.508,1.833l-25.552 0zm29.154 -18.479c2.091,-0.003 5.568,-0.628 5.52,1.878 -0.047,2.433 -3.368,1.806 -5.524,1.813l0.004 -3.691zm6.65 -2.829c1.309,0.839 2.677,2.511 2.569,4.911 -0.219,4.86 -4.6,5.69 -9.493,5.283l0.264 -1.782c1.698,-0.248 3.677,0.285 5.186,-0.363 1.098,-0.471 2.193,-1.728 2.198,-3.342 0.011,-4.038 -3.839,-3.731 -7.37,-3.732l-0.004 -1.842c2.46,-0.001 4.784,-0.33 6.65,0.867zm-42.577 17.808l0 1.602c1.391,1.457 1.476,2.305 3.828,3.228 1.889,0.741 4.463,0.529 6.639,0.514 4.739,-0.035 9.526,-0.036 14.264,0 4.401,0.032 9.614,0.688 12.633,-1.602 0.455,-0.345 3.875,-3.665 1.328,-3.933 -2.145,-0.225 -5.01,0.233 -7.127,-0.034 0.225,-0.496 2.604,-2.428 3.531,-5.504 3.119,-0.188 5.526,0.502 8.143,-0.969 3.154,-1.773 3.106,-4.17 3.761,-5.505l0 -1.561c-0.947,-2.706 -0.354,-2.767 -2.314,-4.715 -1.108,-1.101 -2.796,-1.992 -4.97,-2.047 -4.644,-0.116 -9.369,0.111 -14.014,-0.009 -2.207,-2.062 0.323,-4.207 0.964,-5.508 0.966,-1.963 0.106,-5.579 -1.439,-5.753 -2.047,-0.23 -0.448,1.938 -0.276,2.264 1.308,2.481 -1.132,3.511 -1.748,5.676 -0.482,1.691 0.089,2.104 0.238,3.326l-3.278 -0.007c-2.214,-2.139 0.31,-4.161 0.964,-5.505 0.954,-1.96 0.13,-5.534 -1.443,-5.752 -0.651,-0.09 -1.104,0.378 -1.027,1.028 0.054,0.459 0.508,0.795 0.747,1.239 1.327,2.463 -1.126,3.506 -1.742,5.657 -0.5,1.742 0.126,2.149 0.236,3.34l-3.277 -0.007c-2.274,-2.185 0.442,-4.267 1.06,-5.714 0.93,-2.178 -0.388,-6.172 -2.033,-5.486 -2.025,0.989 2.285,2.639 -0.201,5.612 -2.442,2.92 -1.229,4.14 -1.095,5.575 -1.442,0.155 -7.975,-0.245 -8.609,0.217 -0.622,0.454 -0.357,3.187 -0.354,4.054 0.005,1.451 -0.479,3.363 1.351,3.072 0.988,-0.97 0.44,-3.882 0.504,-5.473l28.816 0.006c0.288,7.127 0.683,12.808 -3.947,17.218 -0.94,0.896 -1.227,1.264 -2.917,1.256 -2.803,-0.013 -5.614,-0.006 -8.417,0.002 -1.393,0.005 -7.585,0.228 -8.277,-0.208 -4.212,-2.658 -4.374,-6.928 -5.436,-7.186 -1.627,-0.396 -0.985,1.654 -0.671,2.416 1.388,3.373 3.02,4.284 3.341,4.959l-7.736 0.217z"/>
   <path class="fil0" d="M3.907 26.956c0.113,1.079 1.988,1.04 1.797,-0.283 -0.167,-1.149 -1.931,-0.997 -1.797,0.283z"/>
  </g>
 </g>
</svg>
