<?xml version="1.0" encoding="UTF-8"?>
<!DOCTYPE svg PUBLIC "-//W3C//DTD SVG 1.1//EN" "http://www.w3.org/Graphics/SVG/1.1/DTD/svg11.dtd">
<!-- Creator: CorelDRAW 2026 -->
<svg xmlns="http://www.w3.org/2000/svg" xml:space="preserve" width="48px" height="48px" version="1.1" style="shape-rendering:geometricPrecision; text-rendering:geometricPrecision; image-rendering:optimizeQuality; fill-rule:evenodd; clip-rule:evenodd"
viewBox="0 0 48 48"
 xmlns:xlink="http://www.w3.org/1999/xlink"
 xmlns:xodm="http://www.corel.com/coreldraw/odm/2003">
 <defs>
  <style type="text/css">
   <![CDATA[
    .fil0 {fill:#373435}
   ]]>
  </style>
 </defs>
 <g id="Layer_x0020_1">
  <metadata id="CorelCorpID_0Corel-Layer"/>
  <path class="fil0" d="M9.43 14.95c0.63,0 1.13,0.5 1.13,1.13 0,0.62 -0.5,1.13 -1.13,1.13 -0.62,0 -1.13,-0.51 -1.13,-1.13 0,-0.63 0.51,-1.13 1.13,-1.13zm0 -1.83c1.64,0 2.96,1.33 2.96,2.96 0,1.63 -1.32,2.95 -2.96,2.95 -1.63,0 -2.95,-1.32 -2.95,-2.95 0,-1.63 1.32,-2.96 2.95,-2.96z"/>
  <path class="fil0" d="M24 15.33c5.84,0 10.58,4.73 10.58,10.58 0,5.84 -4.74,10.57 -10.58,10.57 -5.84,0 -10.58,-4.73 -10.58,-10.57 0,-5.85 4.74,-10.58 10.58,-10.58zm0 1.71c4.9,0 8.86,3.97 8.86,8.87 0,4.89 -3.96,8.86 -8.86,8.86 -4.9,0 -8.86,-3.97 -8.86,-8.86 0,-4.9 3.96,-8.87 8.86,-8.87z"/>
  <path class="fil0" d="M14.3 9.42l1.41 -2.1c0.76,-1.14 1.71,-1.71 3.28,-1.71 3.37,0 6.73,0 10.09,0 1.57,0 2.52,0.57 3.28,1.71l1.41 2.1 9.19 0c2.42,0 4.39,1.97 4.39,4.38l0 24.21c0,2.41 -1.97,4.38 -4.39,4.38l-37.92 0c-2.42,0 -4.39,-1.97 -4.39,-4.38l0 -24.21c0,-2.41 1.97,-4.38 4.39,-4.38l9.26 0zm-9.17 1.9l37.74 0c1.52,0 2.76,1.25 2.76,2.77l0 23.64c0,1.51 -1.24,2.76 -2.76,2.76l-37.74 0c-1.52,0 -2.76,-1.25 -2.76,-2.76l0 -23.64c0,-1.52 1.24,-2.77 2.76,-2.77zm26.34 -1.9l-1.39 -2.1c-4.03,0 -8.06,0 -12.08,0l-1.4 2.1 14.87 0z"/>
 </g>
</svg>
