<?xml version="1.0" encoding="UTF-8"?>
<!DOCTYPE svg PUBLIC "-//W3C//DTD SVG 1.1//EN" "http://www.w3.org/Graphics/SVG/1.1/DTD/svg11.dtd">
<!-- Creator: CorelDRAW -->
<svg xmlns="http://www.w3.org/2000/svg" xml:space="preserve" width="881px" height="881px" version="1.1" style="shape-rendering:geometricPrecision; text-rendering:geometricPrecision; image-rendering:optimizeQuality; fill-rule:evenodd; clip-rule:evenodd"
viewBox="0 0 785.34 785.34"
 xmlns:xlink="http://www.w3.org/1999/xlink"
 xmlns:xodm="http://www.corel.com/coreldraw/odm/2003">
 <defs>
  <style type="text/css">
   <![CDATA[
    .fil0 {fill:#ACA298}
    .fil1 {fill:black;fill-rule:nonzero}
   ]]>
  </style>
 </defs>
 <g id="Capa_x0020_1">
  <metadata id="CorelCorpID_0Corel-Layer"/>
  <g id="_2168672164320">
   <path class="fil0" d="M758.93 26.4l-732.53 0 0 732.53 732.53 0 0 -732.53zm26.41 -26.4l0 785.34 -785.34 0 0 -785.34 785.34 0z"/>
   <path class="fil1" d="M392.67 183.08c-3.43,-0.33 -6.98,1.31 -10.5,6.1 -17.76,24.14 -34.06,49.82 -47.77,76.76 -13.39,-15.8 -28.21,-30.4 -44.11,-43.68 -8.93,-7.46 -23.84,-22.54 -29.94,-5.96 -10.34,28.13 -18.01,57.72 -22.48,87.8 -18.27,-11.02 -37.58,-20.33 -57.51,-27.94 -10.87,-4.16 -29.88,-13.57 -30.25,4.09 -0.64,29.57 1.66,59.66 7.05,89.18 -20.86,-4.39 -42.13,-6.82 -63.42,-7.45 -11.64,-0.35 -32.68,-2.99 -27.23,13.81 20.4,62.88 55.46,123.33 102.94,169.6 52.99,51.63 126.22,72.31 196.73,44.49l-0.49 -2.05c-48.65,4.18 -102.66,-4.17 -143.47,-32.6 -58.85,-37.18 -101.05,-113.36 -130.88,-174.56l67.03 -4.88c6.78,34.24 17.75,67.62 33.17,98.48 33.05,66.19 95.4,109.81 171.14,106.73l0.22 -2.1c-47.32,-12.05 -95.58,-37.71 -124.77,-77.98 -43.34,-54.47 -58.14,-140.29 -66.18,-207.9l65.01 17.48c-4.56,34.2 -4.97,68.94 -0.48,102.76 9.76,73.33 54.55,134.84 127.18,156.54l0.89 -1.91c-40.84,-26.78 -78.14,-66.72 -92.66,-114.3 -23.29,-65.59 -9.39,-151.56 4.97,-218.11l54.41 36.71c-13.63,27.82 -24.45,56.96 -31.23,87.11 -17.16,76.34 3.36,149.3 64.94,199.32l1.47 -1.51c-32.66,-38.17 -53.42,-87.82 -51.75,-138.51 2.6,-69.19 39.19,-143.12 77.97,-199.14 38.78,56.02 75.37,129.95 77.97,199.14 1.67,50.69 -19.09,100.34 -51.75,138.51l1.47 1.51c61.58,-50.02 82.1,-122.98 64.94,-199.32 -6.78,-30.15 -17.6,-59.29 -31.24,-87.11l54.42 -36.71c14.36,66.55 28.26,152.52 4.97,218.11 -14.53,47.58 -51.83,87.52 -92.66,114.3l0.89 1.91c72.63,-21.7 117.42,-83.21 127.17,-156.54 4.5,-33.82 4.09,-68.56 -0.47,-102.76l65.01 -17.48c-8.05,67.61 -22.84,153.43 -66.18,207.9 -29.19,40.27 -77.45,65.93 -124.77,77.98l0.22 2.1c75.74,3.08 138.09,-40.54 171.14,-106.73 15.42,-30.86 26.39,-64.24 33.17,-98.48l67.03 4.88c-29.84,61.2 -72.03,137.38 -130.88,174.56 -40.81,28.43 -94.82,36.78 -143.48,32.6l-0.48 2.05c70.51,27.82 143.74,7.14 196.72,-44.49 47.49,-46.27 82.55,-106.72 102.95,-169.6 5.45,-16.8 -15.6,-14.16 -27.23,-13.81 -21.3,0.63 -42.57,3.06 -63.42,7.45 5.38,-29.52 7.69,-59.61 7.05,-89.18 -0.38,-17.66 -19.38,-8.25 -30.25,-4.09 -19.93,7.61 -39.24,16.92 -57.51,27.94 -4.48,-30.08 -12.14,-59.67 -22.48,-87.8 -6.1,-16.58 -21.02,-1.5 -29.95,5.96 -15.89,13.28 -30.71,27.88 -44.1,43.68 -13.71,-26.94 -30.01,-52.62 -47.77,-76.76 -3.52,-4.79 -7.07,-6.43 -10.5,-6.1z"/>
  </g>
 </g>
</svg>
