<?xml version="1.0" encoding="UTF-8"?>
<!DOCTYPE svg PUBLIC "-//W3C//DTD SVG 1.1//EN" "http://www.w3.org/Graphics/SVG/1.1/DTD/svg11.dtd">
<!-- Creator: CorelDRAW 2026 -->
<svg xmlns="http://www.w3.org/2000/svg" xml:space="preserve" width="48px" height="48px" version="1.1" style="shape-rendering:geometricPrecision; text-rendering:geometricPrecision; image-rendering:optimizeQuality; fill-rule:evenodd; clip-rule:evenodd"
viewBox="0 0 48 48"
 xmlns:xlink="http://www.w3.org/1999/xlink"
 xmlns:xodm="http://www.corel.com/coreldraw/odm/2003">
 <defs>
  <style type="text/css">
   <![CDATA[
    .fil0 {fill:#79613E}
   ]]>
  </style>
 </defs>
 <g id="Layer_x0020_1">
  <metadata id="CorelCorpID_0Corel-Layer"/>
  <path class="fil0" d="M21.761 15.941c0.22,0 0.399,0.179 0.399,0.399 0,0.221 -0.179,0.4 -0.399,0.4 -0.221,0 -0.4,-0.179 -0.4,-0.4 0,-0.22 0.179,-0.399 0.4,-0.399zm14.342 12.364c0.076,2.54 0.007,5.196 0.004,7.748l-0.002 9.699c-0.001,0.959 0.16,1.419 -0.499,1.436 -1.275,0.032 -2.603,-0.006 -3.885,-0.005l-15.462 -0.009c-4.913,-0.003 -4.325,0.467 -4.327,-1.479l-0.003 -9.699c0,-1.469 -0.075,-6.661 0.009,-7.686l24.165 -0.005zm-24.181 -5.318c-0.001,-0.505 0.143,-0.534 0.629,-0.532l6.675 0c1.18,-0.001 16.327,-0.1 16.808,0.05 0.045,0.104 0.081,0.153 0.081,0.311l-0.004 4.735 -24.18 -0.023 -0.009 -4.541zm24.89 24.078c0.107,-0.424 0.027,-20.612 0.027,-22.708 -0.001,-1.08 0.213,-2.174 -0.612,-2.562 -0.429,-0.202 -5.465,-0.093 -6.389,-0.096l-16.26 -0.008c-0.864,0 -2.156,-0.244 -2.392,0.796 -0.095,0.42 -0.036,5.606 -0.035,6.491l0.004 16.261c-0.002,3.29 -0.392,2.731 7.044,2.716l16.261 -0.019c1.109,-0.004 2.088,0.167 2.352,-0.871zm-24.888 -29.954l0.007 -1.951c7.124,-0.068 14.562,-0.022 21.73,-0.019l2.432 0 0.004 2.333c-8.014,-0.036 -16.194,0.052 -24.167,-0.024l-0.006 -0.339zm1.175 -2.721c0.279,-0.255 4.285,-2.615 4.675,-2.839 0.386,-0.222 0.768,-0.449 1.183,-0.699 0.84,-0.506 0.559,-0.465 1.353,-0.459l7.475 -0.013c0.491,-0.006 0.461,-0.054 0.802,0.164l4.037 2.409c0.233,0.139 2.146,1.221 2.31,1.449l-21.835 -0.012zm6.904 -4.756c-0.021,-1.479 -0.004,-2.968 -0.004,-4.448 0,-0.818 -0.104,-3.844 0.042,-4.41l7.974 0.006 -0.002 8.859 -8.01 -0.007zm-0.759 -9.126l-0.001 9.319c-0.313,0.121 -0.734,0.404 -1.051,0.599 -1.67,1.026 -3.557,2.073 -5.226,3.104 -0.358,0.22 -0.695,0.395 -1.042,0.613 -0.909,0.572 -0.772,0.39 -0.768,1.941 0.006,2.531 -0.466,2.137 2.593,2.137l22.138 -0.005c1.081,0.002 0.952,0.031 0.949,-1.733l-0.001 -1.312c0.002,-0.727 -0.191,-0.666 -0.672,-0.957l-7.396 -4.413 -0.009 -9.293c-0.001,-0.669 -0.723,-0.485 -1.829,-0.485l-6.904 -0.005c-0.467,0 -0.781,-0.023 -0.781,0.49zm-3.598 33.381l16.719 -0.026 0.002 9.773 -16.711 -0.016 -0.01 -9.731zm-0.753 10.152c0.11,0.52 1.033,0.351 1.538,0.35 0.608,-0.002 1.217,-0.001 1.825,-0.002 1.237,-0.003 2.473,0 3.709,-0.002 0.775,-0.001 10.73,0.084 10.981,-0.09 0.28,-0.196 0.166,-1.265 0.166,-1.683l-0.002 -5.534c-0.01,-4.489 0.413,-3.972 -1.56,-3.969l-5.534 -0.006c-2.454,-0.001 -4.907,-0.004 -7.36,-0.002 -4.379,0.004 -3.794,-0.456 -3.787,1.752l0 5.534c0.001,0.761 -0.1,3.068 0.024,3.652zm-0.688 -13.699l19.62 0.007 -0.001 0.748 -19.609 -0.021 -0.01 -0.734zm-0.442 -0.751c-0.46,0.144 -0.325,0.628 -0.326,1.156 -0.004,1.439 -0.159,1.107 3.336,1.108 2.47,0 17.221,0.061 17.545,-0.058 0.335,-0.123 0.234,-0.743 0.234,-1.164 -0.001,-1.391 0.139,-1.053 -3.287,-1.056 -1.713,-0.002 -17.241,-0.068 -17.502,0.014zm8.009 -5.489l4.468 0.005 -0.001 1.789 -4.464 -0.004 -0.003 -1.79zm-0.757 0.083l-0.002 1.541c-0.001,1.089 0.029,0.934 1.579,0.924l3.827 -0.003c0.325,-0.004 0.494,-0.017 0.55,-0.303l0.016 -2.102c0.001,-1.055 0.073,-0.893 -1.996,-0.89l-2.853 0c-0.998,-0.003 -1.121,-0.169 -1.121,0.833zm-3.13 0.151c0.848,0.196 0.64,1.432 -0.192,1.42 -0.836,-0.013 -0.998,-1.211 -0.18,-1.431l0.033 0.514c0.413,0.057 0.352,-0.101 0.339,-0.503zm-0.565 -0.759c-1.89,0.55 -1.138,3.326 0.714,2.902 1.936,-0.443 1.184,-3.455 -0.714,-2.902zm5.934 -7.636c0.22,0 0.399,0.179 0.399,0.399 0,0.221 -0.179,0.4 -0.399,0.4 -0.221,0 -0.4,-0.179 -0.4,-0.4 0,-0.22 0.179,-0.399 0.4,-0.399zm1.492 0c0.221,0 0.4,0.179 0.4,0.399 0,0.221 -0.179,0.4 -0.4,0.4 -0.22,0 -0.399,-0.179 -0.399,-0.4 0,-0.22 0.179,-0.399 0.399,-0.399zm1.493 0c0.221,0 0.4,0.179 0.4,0.399 0,0.221 -0.179,0.4 -0.4,0.4 -0.22,0 -0.399,-0.179 -0.399,-0.4 0,-0.22 0.179,-0.399 0.399,-0.399zm3.878 8.366c0.004,0.206 -0.068,0.545 0.178,0.545 0.24,-0.001 0.17,-0.341 0.176,-0.547 0.849,0.188 0.697,1.445 -0.176,1.456 -0.942,0.012 -0.983,-1.33 -0.178,-1.454zm-0.214 -0.703c-0.664,0.196 -1.303,0.92 -1.025,1.837 0.198,0.653 0.914,1.25 1.797,1.002 0.663,-0.187 1.261,-0.902 1.035,-1.797 -0.173,-0.684 -0.921,-1.304 -1.807,-1.042z"/>
 </g>
</svg>
