<?xml version="1.0" encoding="UTF-8"?>
<!DOCTYPE svg PUBLIC "-//W3C//DTD SVG 1.1//EN" "http://www.w3.org/Graphics/SVG/1.1/DTD/svg11.dtd">
<!-- Creator: CorelDRAW 2026 -->
<svg xmlns="http://www.w3.org/2000/svg" xml:space="preserve" width="48px" height="48px" version="1.1" style="shape-rendering:geometricPrecision; text-rendering:geometricPrecision; image-rendering:optimizeQuality; fill-rule:evenodd; clip-rule:evenodd"
viewBox="0 0 48 48"
 xmlns:xlink="http://www.w3.org/1999/xlink"
 xmlns:xodm="http://www.corel.com/coreldraw/odm/2003">
 <defs>
  <style type="text/css">
   <![CDATA[
    .fil0 {fill:#999999}
   ]]>
  </style>
 </defs>
 <g id="Layer_x0020_1">
  <metadata id="CorelCorpID_0Corel-Layer"/>
  <g id="_2347981813696">
   <path class="fil0" d="M25.251 41.079c2.276,0 4.544,0.22 4.544,-2.057l0 -3.947c0,-4.118 9.658,-6.615 9.658,-18.976 0,-8.615 -6.886,-15.599 -15.381,-15.599l-0.07 0 -0.001 0 -0.002 0 -0.001 0 -0.07 0c-8.495,0 -15.381,6.984 -15.381,15.599 0,12.361 9.659,14.858 9.659,18.976l0 3.947c0,2.277 1.459,2.057 3.735,2.057 1.103,0 2.207,0 3.31,0zm1.304 -3.223l0 -2.781c0,-3.682 3.419,-6.072 5.66,-8.564 2.783,-3.093 3.998,-6.214 3.998,-10.412 0,-6.708 -5.317,-12.416 -12.114,-12.36l-0.115 0.001 -0.083 -0.001c-6.797,-0.056 -12.114,5.652 -12.114,12.36 0,4.198 1.215,7.319 3.998,10.412 2.241,2.492 5.66,4.882 5.66,8.564l0 2.774c0.186,-0.005 0.359,-0.01 0.496,-0.01 1.103,0 2.207,0 3.31,0 0.287,0 0.813,0.021 1.304,0.017z"/>
   <rect class="fil0" x="18.694" y="41.742" width="10.612" height="2.567" rx="0.344" ry="0.489"/>
   <rect class="fil0" x="18.694" y="44.933" width="10.612" height="2.567" rx="0.344" ry="0.489"/>
   <polygon class="fil0" points="26.779,6.577 20.484,16.946 26.965,19.353 21.41,29.629 30.575,17.223 23.447,16.112 "/>
  </g>
 </g>
</svg>
