<?xml version="1.0" encoding="UTF-8"?>
<!DOCTYPE svg PUBLIC "-//W3C//DTD SVG 1.1//EN" "http://www.w3.org/Graphics/SVG/1.1/DTD/svg11.dtd">
<!-- Creator: CorelDRAW 2026 -->
<svg xmlns="http://www.w3.org/2000/svg" xml:space="preserve" width="48px" height="48px" version="1.1" style="shape-rendering:geometricPrecision; text-rendering:geometricPrecision; image-rendering:optimizeQuality; fill-rule:evenodd; clip-rule:evenodd"
viewBox="0 0 48 48"
 xmlns:xlink="http://www.w3.org/1999/xlink"
 xmlns:xodm="http://www.corel.com/coreldraw/odm/2003">
 <defs>
  <style type="text/css">
   <![CDATA[
    .fil0 {fill:#292929}
   ]]>
  </style>
 </defs>
 <g id="Layer_x0020_1">
  <metadata id="CorelCorpID_0Corel-Layer"/>
  <path class="fil0" d="M2.175 44.046c-0.227,-1.215 -0.102,-17.983 -0.092,-20.673 0.028,-7.243 -0.382,-5.507 15.862,-5.559 2.401,-0.008 4.812,0.019 7.21,-0.011 6.455,-0.082 5.429,0.225 5.414,8.693l0.034 13.832c-0.019,7.209 0.338,5.523 -15.88,5.542 -2.403,0.003 -4.806,0.001 -7.21,-0.004 -2.159,-0.004 -4.934,0.349 -5.338,-1.82zm34.233 -5.563c-2.184,-0.924 -2.092,-1.01 -4.804,-1.078l-0.007 -0.857c2.387,-0.102 3.07,0.294 4.954,1.057 0.79,0.32 3.507,1.335 3.874,1.831 -0.524,0.933 -2.389,-0.263 -4.017,-0.953zm-4.757 -7.021c1.504,0.001 7.665,-0.178 8.573,0.073l-0.064 0.735c-0.901,0.306 -6.963,0.108 -8.566,0.117l0.057 -0.925zm-0.041 -5.104c2.811,-0.209 4.131,-0.911 6.62,-1.912 0.685,-0.276 1.428,-0.801 2.048,-0.284 -0.006,0.516 -0.147,0.464 -0.692,0.697 -2.595,1.11 -5.051,2.435 -8.005,2.445l0.029 -0.946zm-15.66 -9.549c-0.197,-0.531 -0.08,-5.932 -0.088,-7.269 -0.003,-0.592 -0.282,-1.901 0.404,-1.926 0.835,-0.032 0.543,1.43 0.535,2.075l-0.021 7.206 -0.83 -0.086zm9.905 -10.045c0.046,0.585 0.328,0.851 0.088,1.452 -0.119,0.299 -0.41,0.761 -0.591,1.064 -2.321,3.866 -2.094,3.663 -2.054,7.604l-1.068 -0.031c-0.092,-2.444 -0.257,-3.632 0.905,-5.547 0.444,-0.733 2.24,-3.689 2.333,-4.293 -0.893,-0.762 -1.499,0.813 -1.877,1.462 -0.441,0.76 -0.83,1.447 -1.304,2.306 -1.597,2.891 -1.119,2.404 -1.118,6.083 -0.931,-0.012 -2.466,0.13 -3.292,-0.11 -0.098,-1.871 -0.028,-3.982 -0.019,-5.875 0.009,-1.669 0.512,-4.341 -1.589,-4.279 -1.989,0.06 -1.442,2.662 -1.447,4.428 -0.004,1.937 0.024,3.875 0.024,5.811 -0.792,0.046 -2.571,0.124 -3.249,-0.095 -0.12,-3.532 0.273,-3.125 -1.258,-5.92 -0.68,-1.24 -2.152,-4.621 -2.99,-3.96 -0.556,0.438 0.351,1.213 0.907,2.251 2.458,4.587 2.215,2.868 2.305,7.771l-1.014 -0.055c0.009,-3.765 0.025,-3.802 -2.312,-7.61 -1.221,-1.991 -0.568,-1.536 -0.373,-2.346 -1.442,-0.182 -1.605,0.934 -1.038,1.916 2.117,3.661 2.937,3.913 2.734,8.035 -2.573,0.12 -6.489,-0.763 -7.352,2.372 -0.365,1.323 -0.134,7.399 -0.133,9.231l0.016 14.28c0.022,1.735 0.273,2.508 1.266,3.365 1.092,0.943 2.394,0.808 4.085,0.811 1.635,0.004 3.272,0.006 4.908,0.002 3.222,-0.009 6.443,0.003 9.665,0.005 5.98,0.004 10.645,1.118 10.62,-3.886 -0.008,-1.544 0.005,-3.09 -0.008,-4.635 3.101,-0.345 5.862,1.948 7.833,2.398 1.005,0.229 1.86,-0.479 1.907,-1.359 0.053,-0.982 -1.04,-1.239 -1.84,-1.563 -3.507,-1.418 -4.223,-2.278 -7.897,-2.185l0.02 -2.276c1.84,-0.038 3.781,-0.045 5.626,-0.047 1.651,0 4.042,0.456 3.993,-1.487 -0.048,-1.893 -2.474,-1.378 -4.147,-1.384 -1.83,-0.006 -3.662,0.059 -5.518,0.017l0.071 -2.132c2.805,-0.564 1.38,0.255 5.446,-1.407 1.907,-0.78 4.299,-1.376 4.188,-2.67 -0.297,-3.462 -5.911,1.24 -9.662,1.135 -0.1,-2.11 0.467,-5.82 -0.66,-7.247 -1.538,-1.95 -3.977,-1.076 -6.712,-1.349 -0.011,-0.862 -0.107,-2.462 -0.001,-3.245 0.285,-2.097 3.805,-4.564 2.263,-6.698l-0.68 -0.108z"/>
  <path class="fil0" d="M4.81 43.544c-0.572,-0.862 -0.304,-7.098 -0.305,-8.57 0,-2.926 0.005,-5.85 0.013,-8.775 0.017,-6.756 -0.518,-6.067 2.688,-6.06l18.256 0.002c2.114,-0.005 2.708,-0.487 2.695,1.738 -0.022,4.018 0.299,20.159 -0.194,21.609 -1.788,0.391 -9.152,0.113 -11.552,0.093 -1.997,-0.018 -10.49,0.105 -11.601,-0.037zm24.174 0.205c0.427,-0.673 0.222,-16.051 0.202,-18.889 -0.046,-6.597 0.511,-5.765 -7.099,-5.742l-12.886 -0.021c-2.38,-0.002 -4.75,-0.378 -5.434,0.934 -0.55,1.054 -0.295,15.671 -0.287,18.81 0.005,1.673 -0.481,4.818 0.795,5.523 0.988,0.545 15.998,0.245 19.192,0.245 2.031,0 4.676,0.467 5.517,-0.86z"/>
  <path class="fil0" d="M16.488 28.669c-0.114,1.148 -0.563,2.367 -0.423,3.514 0.804,0.197 1.835,0.046 2.745,0.138 -0.582,0.712 -2.674,3.637 -3.19,4.002 0.075,-1.02 0.744,-2.175 0.633,-3.184l-2.743 0.012 2.978 -4.482zm-1.47 5.459c-0.11,1.411 -1.234,3.553 -0.972,4.778 1.386,0.457 1.614,-0.872 3.54,-3.241 0.497,-0.611 0.97,-1.302 1.479,-1.988 1.65,-2.222 2.056,-2.599 -1.907,-2.371 0.101,-0.845 1.03,-4.321 0.908,-4.781 -0.219,-0.822 -1.203,-0.666 -1.732,0.199 -0.375,0.612 -0.76,1.246 -1.17,1.836 -0.768,1.105 -1.546,2.405 -2.312,3.556 -1.604,2.411 -0.676,2.06 2.166,2.012z"/>
  <path class="fil0" d="M16.698 22.214c0.231,0.265 0.535,0.495 0.232,1.054 -0.175,0.323 -0.585,0.564 -1.047,0.341 -0.67,-0.324 -0.659,-1.69 0.815,-1.395zm-0.968 -0.91c-1.079,0.354 -1.561,1.118 -1.173,2.233 0.258,0.743 1.232,1.4 2.289,1.009 2.253,-0.831 1.138,-3.981 -1.116,-3.242z"/>
  <path class="fil0" d="M24.606 25.93c0.302,-0.311 0.47,-0.452 1.123,-0.418 0.608,0.544 0.517,0.798 0.051,1.414 -0.934,0.131 -1.218,-0.14 -1.174,-0.996zm0.194 -1.294c-2.415,0.933 -1.001,3.844 1.128,3.212 2.158,-0.642 1.258,-4.134 -1.128,-3.212z"/>
  <path class="fil0" d="M23.526 23.433c-1.878,0.762 -2.019,-1.626 -0.225,-1.219 0.406,0.491 0.401,0.462 0.225,1.219zm-1.483 -2.067c-1.984,0.789 -0.655,4.124 1.623,3.099 1.879,-0.846 0.845,-4.081 -1.623,-3.099z"/>
  <path class="fil0" d="M25.029 37.344c1.096,-0.413 1.504,0.974 0.684,1.316 -0.483,0.201 -0.992,0.026 -1.148,-0.317 -0.31,-0.681 0.097,-0.86 0.464,-0.999zm-0.158 -0.93c-2.68,0.821 -1.133,3.677 0.826,3.259 2.485,-0.531 1.455,-3.958 -0.826,-3.259z"/>
  <path class="fil0" d="M10.183 22.273c0.38,1.251 -0.496,1.801 -1.176,1.138 -0.369,-0.359 -0.304,-0.758 0.056,-1.073 0.406,-0.355 0.722,-0.168 1.12,-0.065zm-1.445 -0.87c-2.084,1.122 -0.438,4.014 1.69,3.014 1.97,-0.926 0.49,-4.188 -1.69,-3.014z"/>
  <path class="fil0" d="M25.595 32.827c-1.518,-0.009 -1.278,-1.351 -0.384,-1.504 1.013,-0.173 1.314,0.794 0.384,1.504zm-0.983 -2.314c-2.287,1.039 -0.505,4.028 1.564,3.075 2.063,-0.95 0.589,-4.054 -1.564,-3.075z"/>
  <path class="fil0" d="M15.724 2.632c-0.646,0.068 -1.582,-0.153 -1.568,0.506 0.015,0.678 1.097,0.464 1.601,0.499 0.105,0.712 -0.059,1.177 0.2,1.713l0.605 0.059c0.394,-0.573 0.184,-1.027 0.267,-1.709l1.664 -0.101c0.072,-1.188 -0.63,-0.883 -1.677,-0.892 -0.007,-0.569 0.028,-1.182 -0.133,-1.609l-0.782 -0.098 -0.177 1.632z"/>
  <path class="fil0" d="M42.597 39.972l1.578 0.095c0.07,0.593 -0.188,1.66 0.595,1.579 0.663,-0.069 0.425,-1.016 0.428,-1.604 0.682,-0.021 1.195,0.048 1.74,-0.172l0.023 -0.687 -1.788 -0.116c-0.012,-0.706 0.264,-1.75 -0.5,-1.687 -0.697,0.056 -0.382,1.05 -0.532,1.698 -0.624,0.036 -0.968,-0.066 -1.545,0.209l0.001 0.685z"/>
  <path class="fil0" d="M44.165 23.5l-1.536 0.1 -0.061 0.664c0.591,0.333 0.816,0.169 1.522,0.234 0.176,0.708 -0.191,1.5 0.564,1.571 0.808,0.075 0.46,-0.925 0.599,-1.605 0.722,-0.005 1.138,0.075 1.658,-0.212l0.002 -0.559c-0.566,-0.298 -1.004,-0.112 -1.736,-0.244l-0.058 -1.508 -0.779 -0.059c-0.248,0.574 -0.112,0.932 -0.175,1.618z"/>
  <path class="fil0" d="M6.696 2.648c-0.635,0.022 -1.005,-0.097 -1.499,0.2l-0.021 0.646 1.515 0.17c0.192,0.669 -0.053,1.865 0.785,1.567 0.235,-0.193 0.07,0.079 0.201,-0.25 0.176,-0.44 0.055,-0.842 0.139,-1.367l1.627 -0.03 0.082 -0.745 -1.741 -0.171c-0.033,-0.544 0.018,-1.158 -0.147,-1.578l-0.581 -0.081c-0.475,0.573 -0.181,0.867 -0.36,1.639z"/>
  <path class="fil0" d="M42.532 32.136c0.662,0.594 3.47,0.515 4.468,0.225 -0.001,-1.271 -0.996,-0.899 -2.21,-0.902 -1.09,-0.004 -2.173,-0.317 -2.258,0.677z"/>
  <path class="fil0" d="M23.006 3.443c0.548,0.384 3.954,0.37 4.473,0 -0.029,-1.069 -1.084,-0.753 -2.171,-0.749 -0.475,0.001 -1.096,-0.033 -1.55,-0.005 -0.674,0.04 -0.823,0.085 -0.752,0.754z"/>
 </g>
</svg>
