<?xml version="1.0" encoding="UTF-8"?>
<!DOCTYPE svg PUBLIC "-//W3C//DTD SVG 1.1//EN" "http://www.w3.org/Graphics/SVG/1.1/DTD/svg11.dtd">
<!-- Creator: CorelDRAW 2026 -->
<svg xmlns="http://www.w3.org/2000/svg" xml:space="preserve" width="512px" height="512px" version="1.1" style="shape-rendering:geometricPrecision; text-rendering:geometricPrecision; image-rendering:optimizeQuality; fill-rule:evenodd; clip-rule:evenodd"
viewBox="0 0 512 512"
 xmlns:xlink="http://www.w3.org/1999/xlink"
 xmlns:xodm="http://www.corel.com/coreldraw/odm/2003">
 <defs>
  <style type="text/css">
   <![CDATA[
    .str0 {stroke:#373435;stroke-width:8;stroke-miterlimit:2.61313}
    .fil0 {fill:none}
   ]]>
  </style>
 </defs>
 <g id="Layer_x0020_1">
  <metadata id="CorelCorpID_0Corel-Layer"/>
  <path class="fil0 str0" d="M330.264 289.193c0.469,-13.231 -0.226,-26.813 -2.072,-40.585 -7.182,-53.587 -31.468,-109.74 -71.702,-159.902 -41.203,52.826 -65.129,111.911 -70.794,167.681 -1.191,11.731 -1.564,23.298 -1.111,34.602 30.896,19.742 55.558,44.949 71.415,73.541 16.342,-29.466 42.032,-55.338 74.264,-75.337z"/>
  <path class="fil0 str0" d="M234.961 453.443c0.543,-3.818 0.873,-7.408 0.98,-10.753 1.258,-39.302 -19.41,-76.323 -53.842,-104.405 -29.191,-23.807 -67.804,-41.119 -111.639,-48.512 6.483,41.995 22.132,79.242 44.038,107.928 26.932,35.269 63.264,57.084 102.611,57.084 6.57,0 12.518,-0.457 17.852,-1.342z"/>
  <path class="fil0 str0" d="M144.765 270.094c-33.291,-14.12 -71.176,-22.694 -111.55,-23.986 -2.031,-0.066 -4.056,-0.109 -6.076,-0.136l-0.001 0.038c0,137.394 85.053,248.775 189.971,248.775 13.33,0 26.337,-1.804 38.891,-5.227 12.554,3.423 25.561,5.227 38.89,5.227 104.918,0 189.972,-111.381 189.972,-248.775l-0.001 -0.038c-2.021,0.027 -4.046,0.07 -6.077,0.136 -39.252,1.256 -76.157,9.391 -108.772,22.818 -3.654,-80.997 -42.676,-169.23 -113.837,-240.391l-0.036 -0.035c-1.848,1.9 -3.686,3.818 -5.51,5.761 -66.569,70.972 -102.591,156.935 -105.864,235.833z"/>
  <path class="fil0 str0" d="M276.058 442.69c0.107,3.345 0.437,6.935 0.98,10.753 5.334,0.885 11.282,1.342 17.852,1.342 39.347,0 75.679,-21.815 102.611,-57.084 21.906,-28.686 37.555,-65.933 44.039,-107.928 -43.836,7.393 -82.449,24.705 -111.64,48.512 -34.432,28.082 -55.099,65.103 -53.842,104.405z"/>
 </g>
</svg>
