<?xml version="1.0" encoding="UTF-8"?>
<!DOCTYPE svg PUBLIC "-//W3C//DTD SVG 1.1//EN" "http://www.w3.org/Graphics/SVG/1.1/DTD/svg11.dtd">
<!-- Creator: CorelDRAW -->
<svg xmlns="http://www.w3.org/2000/svg" xml:space="preserve" width="541px" height="74px" version="1.1" style="shape-rendering:geometricPrecision; text-rendering:geometricPrecision; image-rendering:optimizeQuality; fill-rule:evenodd; clip-rule:evenodd"
viewBox="0 0 540.14 73.66"
 xmlns:xlink="http://www.w3.org/1999/xlink"
 xmlns:xodm="http://www.corel.com/coreldraw/odm/2003">
 <defs>
  <style type="text/css">
   <![CDATA[
    .fil0 {fill:black;fill-rule:nonzero}
   ]]>
  </style>
 </defs>
 <g id="Layer_x0020_1">
  <metadata id="CorelCorpID_0Corel-Layer"/>
  <g id="_2879475715584">
   <path class="fil0" d="M54.86 5.19l-0.28 0.38c1.67,0.82 2.85,1.98 3.56,3.5 0.7,1.51 1.05,3.64 1.05,6.4l0 38.95c0,4.02 -0.28,6.93 -0.87,8.71 -0.56,1.78 -1.54,3.36 -2.92,4.73l0.2 0.38c2.13,-0.93 3.61,-2.31 4.44,-4.11 0.83,-1.79 1.25,-5.14 1.25,-10.01l0 -37.97c0,-3.31 -0.49,-5.8 -1.47,-7.45 -0.98,-1.66 -2.63,-2.83 -4.96,-3.51zm-45.98 0l-0.18 0.38c1.65,0.82 2.83,1.98 3.53,3.5 0.7,1.51 1.04,3.64 1.04,6.4l0 38.95c0,4.02 -0.29,6.93 -0.88,8.71 -0.58,1.78 -1.54,3.36 -2.91,4.73l0.24 0.38c2.11,-0.93 3.59,-2.31 4.4,-4.11 0.84,-1.79 1.25,-5.14 1.25,-10.01l0 -37.97c0,-3.27 -0.5,-5.75 -1.48,-7.43 -1,-1.67 -2.66,-2.85 -5.01,-3.53zm14.58 12.08l0 11.24c0,0.95 0.26,1.7 0.78,2.23 0.51,0.54 1.26,0.8 2.24,0.8l27.9 0c0.95,0 1.68,-0.26 2.22,-0.8 0.53,-0.53 0.79,-1.28 0.79,-2.23l0 -10.26c0,-3.14 -0.21,-5.46 -0.63,-6.89 -0.41,-1.45 -1.15,-2.74 -2.18,-3.87 -1.1,-0.85 -2.81,-1.38 -5.11,-1.63 -2.31,-0.25 -3.46,-0.97 -3.46,-2.17 0,-0.65 0.24,-1.16 0.69,-1.53 0.45,-0.38 1.08,-0.56 1.89,-0.56 0.14,0 1.65,0.13 4.51,0.4 2.88,0.26 5.67,0.4 8.37,0.4 3.93,0 8.08,-0.22 12.48,-0.67 1.01,-0.08 1.61,-0.13 1.81,-0.13 0.62,0 1.06,0.15 1.36,0.46 0.29,0.3 0.44,0.75 0.44,1.33 0,0.95 -0.74,1.7 -2.2,2.25 -1.46,0.55 -2.55,1.16 -3.26,1.85 -1.01,0.84 -1.71,1.86 -2.11,3.04 -0.42,1.18 -0.62,3.43 -0.62,6.74l0 39.83c0,2.62 0.4,4.75 1.2,6.4 0.8,1.63 2.01,2.79 3.63,3.48 0.58,0.3 1.48,0.56 2.67,0.83 2.12,0.5 3.18,1.31 3.18,2.44 0,0.8 -0.18,1.35 -0.56,1.7 -0.37,0.35 -0.99,0.52 -1.83,0.52 -0.49,0 -2.15,-0.14 -4.99,-0.4 -2.85,-0.27 -5.44,-0.4 -7.77,-0.4 -2.6,0 -5.43,0.13 -8.49,0.4 -3.06,0.26 -4.77,0.4 -5.16,0.4 -0.78,0 -1.38,-0.17 -1.81,-0.49 -0.41,-0.33 -0.63,-0.81 -0.63,-1.43 0,-1.01 0.93,-1.93 2.81,-2.74 0.75,-0.33 1.33,-0.6 1.75,-0.83 1.4,-0.99 2.41,-2.22 3.06,-3.73 0.65,-1.51 0.96,-3.46 0.96,-5.87l0 -17.24c0,-0.93 -0.26,-1.68 -0.79,-2.21 -0.54,-0.53 -1.27,-0.8 -2.22,-0.8l-27.9 0c-0.98,0 -1.73,0.27 -2.24,0.8 -0.52,0.53 -0.78,1.28 -0.78,2.21l0 16.96c0,2.66 0.43,4.8 1.31,6.42 0.88,1.63 2.21,2.77 3.99,3.46 0.65,0.3 1.65,0.56 3.01,0.83 2.32,0.46 3.46,1.28 3.46,2.44 0,0.77 -0.19,1.32 -0.61,1.68 -0.4,0.35 -1.03,0.54 -1.86,0.54 -0.57,0 -2.38,-0.14 -5.49,-0.4 -3.1,-0.27 -5.89,-0.4 -8.4,-0.4 -2.6,0 -5.43,0.13 -8.47,0.4 -3.06,0.26 -4.79,0.4 -5.23,0.4 -0.76,0 -1.36,-0.17 -1.76,-0.49 -0.42,-0.33 -0.62,-0.81 -0.62,-1.43 0,-1.04 0.92,-1.94 2.73,-2.69 0.82,-0.37 1.43,-0.65 1.87,-0.88 1.39,-0.99 2.41,-2.22 3.04,-3.73 0.63,-1.51 0.95,-3.46 0.95,-5.87l0 -39.13c0,-3.31 -0.2,-5.66 -0.58,-7.04 -0.4,-1.38 -1.1,-2.63 -2.1,-3.72 -1.08,-0.82 -2.79,-1.35 -5.16,-1.62 -2.36,-0.25 -3.54,-0.98 -3.54,-2.18 0,-0.65 0.23,-1.16 0.68,-1.53 0.45,-0.38 1.08,-0.56 1.9,-0.56 0.13,0 1.65,0.13 4.54,0.4 2.89,0.26 5.71,0.4 8.43,0.4 3.93,0 8.06,-0.22 12.38,-0.67 1.02,-0.08 1.61,-0.13 1.81,-0.13 0.62,0 1.09,0.15 1.42,0.46 0.31,0.3 0.48,0.75 0.48,1.33 0,0.95 -0.75,1.7 -2.24,2.25 -1.5,0.55 -2.62,1.16 -3.36,1.85 -0.94,0.81 -1.6,1.78 -2,2.92 -0.38,1.14 -0.58,3.11 -0.58,5.94l0 0.92zm109.41 50.31l0.2 0.2c1.3,-0.75 2.25,-1.65 2.86,-2.68 0.64,-1.05 0.93,-2.28 0.93,-3.71 0,-0.89 -0.11,-1.88 -0.33,-3.03 -0.23,-1.13 -0.51,-2.15 -0.83,-3.01l-16.64 -39.51c-0.18,-0.55 -0.38,-0.92 -0.58,-1.12 -0.2,-0.2 -0.41,-0.3 -0.68,-0.3 -0.32,0 -0.6,0.15 -0.85,0.42 -0.25,0.28 -0.37,0.61 -0.37,1 0,0.4 0.25,1.06 0.74,2.01 0.16,0.35 0.28,0.63 0.38,0.82l15.85 38.04c0.49,1.03 0.85,2.07 1.07,3.06 0.23,1.02 0.35,1.95 0.35,2.83 0,1.07 -0.17,2.01 -0.52,2.83 -0.33,0.81 -0.86,1.53 -1.58,2.15zm-39.26 -8.77c-1.43,3.38 -2.63,5.74 -3.63,7.07 -0.99,1.33 -2.16,2.43 -3.52,3.31l0.28 0.3c2.51,-0.2 4.34,-1.08 5.51,-2.63 1.18,-1.56 1.76,-3.93 1.76,-7.09l0 -0.78 -0.4 -0.18zm23.07 -37.8c-0.23,-0.58 -0.48,-1.03 -0.73,-1.36 -0.26,-0.32 -0.51,-0.49 -0.73,-0.49 -0.3,0 -0.57,0.14 -0.83,0.39 -0.27,0.26 -0.48,0.61 -0.68,1.08l-7.51 17.6c-0.2,0.48 -0.36,0.95 -0.5,1.38 -0.13,0.45 -0.18,0.82 -0.18,1.1 0,0.58 0.28,0.98 0.87,1.2 0.58,0.21 1.79,0.31 3.61,0.31l11.51 0c1.03,0 1.83,-0.11 2.36,-0.35 0.53,-0.21 0.8,-0.55 0.8,-0.96 0,-0.2 -0.08,-0.58 -0.23,-1.15 -0.17,-0.57 -0.39,-1.18 -0.64,-1.83l-7.12 -16.92zm4.2 -19.26l25.5 59.54c0.86,2.04 1.75,3.47 2.59,4.29 0.87,0.8 1.99,1.36 3.35,1.7 0.43,0.2 0.98,0.45 1.66,0.73 1.37,0.6 2.05,1.41 2.05,2.46 0,0.78 -0.12,1.28 -0.35,1.53 -0.22,0.25 -0.72,0.37 -1.45,0.37 -0.71,0 -2.56,-0.12 -5.52,-0.35 -2.95,-0.24 -5.54,-0.35 -7.75,-0.35 -4.26,0 -8.4,0.2 -12.43,0.6 -0.65,0.06 -1.05,0.1 -1.17,0.1 -0.43,0 -0.78,-0.19 -1.04,-0.54 -0.29,-0.36 -0.42,-0.84 -0.42,-1.46 0,-0.65 1.18,-1.55 3.58,-2.7 2.39,-1.13 3.59,-2.82 3.59,-5.07 0,-0.71 -0.08,-1.43 -0.25,-2.16 -0.17,-0.73 -0.4,-1.48 -0.73,-2.23l-2.83 -6.71c-0.71,-1.76 -1.46,-2.91 -2.21,-3.46 -0.77,-0.54 -2.48,-0.83 -5.16,-0.83l-0.58 0 -13.01 0c-2.93,0 -4.82,0.3 -5.66,0.9 -0.84,0.6 -1.54,1.73 -2.09,3.39l-2.75 7.59c-0.25,0.72 -0.45,1.35 -0.58,1.9 -0.13,0.56 -0.18,1.06 -0.18,1.51 0,1.47 0.55,2.66 1.68,3.6 1.11,0.91 2.84,1.61 5.19,2.06 0.1,0.03 0.23,0.06 0.43,0.1 2.31,0.5 3.46,1.23 3.46,2.21 0,0.68 -0.17,1.16 -0.51,1.46 -0.34,0.29 -0.9,0.44 -1.68,0.44 -0.32,0 -1.92,-0.12 -4.78,-0.35 -2.86,-0.24 -5.56,-0.35 -8.08,-0.35 -1.9,0 -3.8,0.11 -5.71,0.35 -1.93,0.23 -2.91,0.35 -2.98,0.35 -0.75,0 -1.3,-0.15 -1.66,-0.47 -0.35,-0.3 -0.53,-0.78 -0.53,-1.43 0,-0.91 0.73,-1.66 2.19,-2.25 0.88,-0.33 1.55,-0.63 2,-0.93 1.05,-0.65 1.98,-1.59 2.83,-2.83 0.84,-1.23 1.96,-3.39 3.36,-6.48l25.17 -56.62 0 -0.05c0.38,-0.88 0.9,-1.31 1.56,-1.31 0.35,0 0.7,0.17 1.05,0.48 0.33,0.34 0.61,0.75 0.85,1.27zm71.88 36.6l-0.2 0.68c0.48,0.45 0.95,0.98 1.4,1.6 0.43,0.63 0.95,1.51 1.53,2.69l7.65 15.19c1.85,3.68 3.74,6.52 5.67,8.55 1.93,2.03 3.98,3.31 6.13,3.83l0.18 -0.54c-1.3,-0.56 -2.8,-1.93 -4.48,-4.12 -1.69,-2.18 -3.42,-5.01 -5.22,-8.44l-8.67 -17.07c-0.51,-1.03 -0.99,-1.71 -1.43,-2.01 -0.45,-0.31 -1.01,-0.46 -1.73,-0.46 -0.06,0 -0.2,0.01 -0.4,0.05 -0.2,0.03 -0.33,0.05 -0.43,0.05zm2.63 -32.76c2.93,2.15 5.11,4.54 6.57,7.19 1.46,2.64 2.2,5.55 2.2,8.7 0,2.41 -0.29,4.47 -0.84,6.2 -0.54,1.75 -1.39,3.26 -2.56,4.56l0.18 0.3c1.84,-1.2 3.22,-2.83 4.18,-4.86 0.95,-2.03 1.43,-4.37 1.43,-7.03 0,-3.73 -0.98,-6.91 -2.93,-9.52 -1.94,-2.63 -4.69,-4.46 -8.23,-5.54zm-29.96 -0.4c1.53,0.98 2.64,2.3 3.34,3.96 0.7,1.66 1.05,3.78 1.05,6.34l0 38.93c0,4.02 -0.3,6.93 -0.88,8.71 -0.58,1.78 -1.55,3.36 -2.91,4.73 2.16,-0.5 3.69,-1.72 4.57,-3.66 0.88,-1.95 1.32,-5.31 1.32,-10.07l0 -37.96c0,-3.28 -0.5,-5.76 -1.49,-7.44 -0.99,-1.68 -2.66,-2.84 -5,-3.54zm36.35 31.16c0.61,0.32 1.19,0.8 1.73,1.45 0.53,0.66 1.11,1.56 1.73,2.74l10.08 18.67c1.4,2.63 2.61,4.37 3.63,5.25 1.01,0.89 2.27,1.32 3.77,1.32 0.25,0 0.67,-0.04 1.22,-0.1 0.55,-0.07 0.93,-0.1 1.16,-0.1 0.48,0 0.85,0.12 1.08,0.31 0.22,0.22 0.33,0.59 0.33,1.1 0,1.28 -1.13,2.5 -3.41,3.7 -2.28,1.18 -4.7,1.78 -7.3,1.78 -2.96,0 -5.69,-1.34 -8.2,-4 -2.53,-2.67 -5.41,-7.38 -8.65,-14.14l-0.88 -1.86c-3.41,-7.04 -5.59,-11 -6.57,-11.83 -0.72,-0.63 -1.53,-1.06 -2.43,-1.33 -0.92,-0.25 -2.55,-0.38 -4.88,-0.38 -1.66,0 -2.78,0.25 -3.34,0.73 -0.57,0.48 -0.85,1.41 -0.85,2.78l0 14.67c0,2.65 0.35,4.76 1.07,6.34 0.71,1.56 1.84,2.68 3.36,3.33 0.51,0.33 1.39,0.66 2.62,1.03 1.82,0.51 2.73,1.35 2.73,2.44 0,0.82 -0.18,1.4 -0.53,1.73 -0.37,0.32 -0.98,0.49 -1.85,0.49 -0.23,0 -1.68,-0.14 -4.34,-0.4 -2.66,-0.27 -5.21,-0.4 -7.65,-0.4 -2.6,0 -5.42,0.13 -8.47,0.4 -3.06,0.26 -4.79,0.4 -5.22,0.4 -0.77,0 -1.37,-0.17 -1.77,-0.49 -0.41,-0.33 -0.61,-0.81 -0.61,-1.43 0,-1.01 0.86,-1.91 2.58,-2.69 0.88,-0.43 1.54,-0.78 2.01,-1.08 1.4,-0.89 2.41,-2.07 3.04,-3.55 0.64,-1.49 0.95,-3.44 0.95,-5.84l0 -39.12c0,-3.35 -0.18,-5.68 -0.56,-6.97 -0.37,-1.3 -1.02,-2.4 -1.93,-3.32 -1,-1.01 -2.56,-1.69 -4.69,-2.04 -2.13,-0.37 -3.2,-1.12 -3.2,-2.25 0,-0.68 0.2,-1.19 0.62,-1.56 0.4,-0.35 1.01,-0.53 1.81,-0.53 0.27,0 0.97,0.06 2.1,0.18 3.94,0.42 7.58,0.62 10.96,0.62 1.73,0 4.63,-0.14 8.72,-0.4 4.09,-0.27 7.32,-0.4 9.65,-0.4 7.47,0 13.22,1.63 17.26,4.87 4.05,3.25 6.08,7.85 6.08,13.79 0,4 -1.07,7.31 -3.2,9.93 -2.13,2.65 -5.37,4.7 -9.76,6.16zm-21.58 -6.59c0,2.21 0.48,3.56 1.43,4.04 0.97,0.49 3.21,0.74 6.75,0.74 5,0 8.62,-0.93 10.84,-2.8 2.22,-1.88 3.34,-4.91 3.34,-9.1 0,-5.26 -1.45,-9.4 -4.34,-12.43 -2.88,-3.01 -6.87,-4.52 -11.93,-4.52 -2.31,0 -3.89,0.52 -4.77,1.56 -0.89,1.03 -1.32,3.18 -1.32,6.44l0 16.07zm117.97 -21.41l-0.4 -0.28c-0.9,1.51 -1.58,3.34 -2.02,5.45 -0.43,2.12 -0.66,4.66 -0.66,7.64l0 1.81 1.41 32.36c0.04,0.52 0.07,1.08 0.09,1.68 0.01,0.6 0.01,1.48 0.01,2.65 0,2.31 -0.18,4.09 -0.56,5.34 -0.37,1.24 -0.98,2.29 -1.87,3.14l0 0.45c1.65,-0.92 2.85,-2.08 3.56,-3.51 0.72,-1.43 1.07,-3.34 1.07,-5.71 0,-0.64 -0.04,-1.58 -0.1,-2.77l-1.12 -28.9c-0.03,-0.68 -0.06,-1.55 -0.08,-2.61 -0.02,-1.05 -0.02,-2.93 -0.02,-5.63 0,-2.24 0.05,-4.24 0.17,-5.98 0.12,-1.77 0.28,-3.47 0.52,-5.13zm-62.75 -3.46l0 0.58c2.84,1.78 5.54,5.49 8.06,11.12 0.3,0.68 0.54,1.21 0.74,1.61l20.99 46.1c0.28,0.58 0.52,0.95 0.68,1.11 0.15,0.17 0.35,0.25 0.59,0.25 0.24,0 0.49,-0.1 0.69,-0.3 0.22,-0.2 0.32,-0.41 0.32,-0.68 0,-0.3 -0.08,-0.68 -0.27,-1.2 -0.18,-0.5 -0.56,-1.36 -1.14,-2.59l-18.19 -40.46 -0.2 -0.43c-3.99,-8.97 -8.08,-14.01 -12.27,-15.11zm3.69 51.81l-0.58 0c-0.2,2.97 -0.7,5.45 -1.53,7.4 -0.84,1.94 -1.97,3.33 -3.4,4.14l0 0.58c2.08,-0.28 3.6,-0.96 4.56,-2.04 0.95,-1.07 1.43,-2.58 1.43,-4.53 0,-0.55 -0.03,-1.25 -0.1,-2.09 -0.07,-0.85 -0.18,-2 -0.38,-3.46zm66.09 -40.55l1.08 40c0.07,3.16 0.37,5.49 0.94,6.97 0.54,1.48 1.46,2.71 2.76,3.67 1.08,0.79 2.31,1.3 3.69,1.55 1.4,0.25 2.1,0.82 2.1,1.73 0,0.88 -0.2,1.5 -0.59,1.86 -0.39,0.35 -1.06,0.54 -1.99,0.54 -0.27,0 -1.68,-0.14 -4.26,-0.4 -2.58,-0.27 -5.02,-0.4 -7.34,-0.4 -2.39,0 -4.87,0.13 -7.42,0.4 -2.54,0.26 -3.94,0.4 -4.17,0.4 -0.8,0 -1.4,-0.17 -1.8,-0.49 -0.38,-0.33 -0.58,-0.86 -0.58,-1.61 0,-0.85 0.71,-1.65 2.13,-2.4 0.81,-0.46 1.43,-0.84 1.84,-1.18 1.2,-0.78 2.02,-1.63 2.47,-2.56 0.43,-0.93 0.65,-2.36 0.65,-4.27l0 -2.2 -1.32 -31.04c-0.03,-0.68 -0.13,-1.25 -0.28,-1.7 -0.17,-0.45 -0.33,-0.68 -0.48,-0.68 -0.24,0 -0.52,0.23 -0.85,0.68 -0.35,0.45 -0.73,1.08 -1.15,1.9l-21.04 42.65c-0.42,0.87 -0.8,1.45 -1.12,1.7 -0.33,0.26 -0.73,0.4 -1.21,0.4 -0.85,0 -1.52,-0.6 -2,-1.82 -0.07,-0.16 -0.13,-0.29 -0.2,-0.43l-19.48 -42.89c-0.35,-0.78 -0.63,-1.28 -0.83,-1.51 -0.2,-0.23 -0.42,-0.37 -0.68,-0.4 -0.24,0 -0.4,0.2 -0.52,0.6 -0.12,0.38 -0.2,1.07 -0.27,2.05l-0.88 24.75 0 1.85 0 2.43c0,3.34 0.37,5.8 1.08,7.37 0.72,1.54 1.92,2.59 3.61,3.11 0.7,0.51 1.78,1 3.26,1.41 1.49,0.43 2.23,1.22 2.23,2.36 0,0.72 -0.16,1.22 -0.51,1.5 -0.33,0.28 -0.97,0.42 -1.88,0.42 -0.48,0 -1.83,-0.14 -4.03,-0.4 -2.19,-0.27 -4.14,-0.4 -5.82,-0.4 -2.21,0 -4.46,0.13 -6.74,0.4 -2.28,0.26 -3.43,0.4 -3.46,0.4 -0.6,0 -1.05,-0.2 -1.35,-0.59 -0.31,-0.39 -0.46,-0.93 -0.46,-1.61 0,-0.48 0.75,-1.2 2.24,-2.15 1.5,-0.94 2.67,-1.98 3.48,-3.12 0.97,-1.37 1.75,-3.33 2.31,-5.88 0.57,-2.56 0.95,-5.77 1.15,-9.64l1.12 -22.66c0.03,-0.55 0.05,-1.15 0.06,-1.8 0.02,-0.65 0.04,-1.61 0.04,-2.88 0,-4.26 -0.34,-7.5 -0.99,-9.71 -0.64,-2.23 -1.71,-4.01 -3.21,-5.34 -0.94,-0.72 -2.16,-1.23 -3.62,-1.58 -1.45,-0.34 -2.18,-1.02 -2.18,-2.02 0,-0.65 0.13,-1.13 0.4,-1.43 0.28,-0.31 0.75,-0.46 1.39,-0.46 0.14,0 0.47,0.05 1.04,0.13 2.52,0.32 4.99,0.47 7.35,0.47 1.6,0 3.34,-0.15 5.27,-0.47 0.55,-0.08 0.9,-0.13 1.02,-0.13 0.65,0.03 1.18,0.23 1.56,0.58 0.4,0.35 0.9,1.2 1.51,2.51l22.1 47.41c0.23,0.5 0.45,0.85 0.63,1.05 0.2,0.22 0.43,0.32 0.68,0.32 0.27,0 0.53,-0.1 0.82,-0.32 0.26,-0.2 0.48,-0.48 0.65,-0.85l24.03 -48.64c0.34,-0.77 0.69,-1.3 1.09,-1.61 0.38,-0.3 0.86,-0.45 1.41,-0.45 0.28,0 0.97,0.1 2.01,0.3 1.07,0.2 1.98,0.3 2.76,0.3 1.37,0 2.88,-0.1 4.53,-0.3 1.63,-0.2 2.61,-0.3 2.89,-0.3 0.92,0 1.53,0.16 1.83,0.48 0.32,0.33 0.47,0.9 0.47,1.7 0,0.84 -0.67,1.43 -2,1.73 -1.33,0.31 -2.59,0.83 -3.79,1.58 -1.11,0.55 -1.91,1.46 -2.41,2.74 -0.52,1.3 -0.77,3.1 -0.77,5.44l0 0.88zm41.01 55.22l0.28 -0.4c-7.58,-4.03 -13.21,-8.83 -16.87,-14.44 -3.66,-5.61 -5.48,-12.21 -5.48,-19.81 0,-5.43 0.93,-10.49 2.81,-15.18 1.88,-4.7 4.54,-8.61 8,-11.77l-0.28 -0.49c-4.11,3.38 -7.34,7.62 -9.69,12.75 -2.36,5.1 -3.54,10.41 -3.54,15.9 0,7.77 2.21,14.66 6.65,20.66 4.45,6.02 10.48,10.28 18.12,12.78zm16.47 -66.86c6.19,2.15 11.16,6.52 14.92,13.12 3.75,6.63 5.63,14.44 5.63,23.48 0,5.9 -0.94,10.98 -2.8,15.19 -1.86,4.22 -4.74,7.75 -8.6,10.58l0.35 0.38c4.36,-2.3 7.75,-5.94 10.18,-10.93 2.45,-4.99 3.66,-10.83 3.66,-17.52 0,-8.72 -2.06,-16.15 -6.17,-22.34 -4.11,-6.19 -9.73,-10.31 -16.89,-12.36l-0.28 0.4zm18.85 37.23c0,-10.8 -2.43,-19.6 -7.3,-26.42 -4.88,-6.82 -11.12,-10.23 -18.72,-10.23 -7.14,0 -12.78,2.46 -16.9,7.39 -4.13,4.92 -6.19,11.69 -6.19,20.34 0,10.85 2.36,19.58 7.07,26.21 4.71,6.63 10.95,9.94 18.7,9.94 7.18,0 12.86,-2.43 17.05,-7.28 4.19,-4.86 6.29,-11.52 6.29,-19.95zm-23.54 -41.34c10.46,0 19.11,3.39 25.95,10.18 6.84,6.8 10.27,15.31 10.27,25.55 0,10.78 -3.63,19.73 -10.87,26.85 -7.25,7.12 -16.48,10.68 -27.73,10.68 -10.43,0 -19.03,-3.39 -25.8,-10.18 -6.77,-6.8 -10.17,-15.37 -10.17,-25.75 0,-10.65 3.63,-19.53 10.9,-26.65 7.25,-7.12 16.4,-10.68 27.45,-10.68zm98.37 4.49l-0.25 0.4c1.3,0.45 2.38,1.31 3.24,2.58 0.85,1.26 1.65,3.18 2.35,5.71l0.5 0c0.03,-0.32 0.06,-0.75 0.1,-1.27 0.05,-0.81 0.08,-1.35 0.08,-1.61 0,-1.95 -0.45,-3.36 -1.36,-4.25 -0.9,-0.88 -2.47,-1.39 -4.66,-1.56zm-49.94 0.78l0 0.4c1.46,1.03 2.62,1.95 3.52,2.73 0.9,0.78 1.67,1.58 2.32,2.4l46.78 55.61c0.28,0.35 0.53,0.58 0.69,0.7 0.19,0.12 0.34,0.16 0.47,0.16 0.17,0 0.28,-0.08 0.37,-0.28 0.08,-0.2 0.13,-0.48 0.16,-0.88 0,-0.62 -0.08,-1.15 -0.23,-1.6 -0.17,-0.46 -0.5,-0.99 -0.98,-1.61l-41.76 -49.23c-2.33,-2.76 -4.31,-4.72 -5.94,-5.85 -1.63,-1.15 -3.42,-2 -5.4,-2.55zm3.06 50.86l-0.3 0c-0.35,3.28 -0.88,5.87 -1.6,7.78 -0.71,1.92 -1.71,3.48 -2.98,4.68l0.2 0.4c1.92,-0.58 3.31,-1.5 4.16,-2.73 0.87,-1.25 1.3,-2.93 1.3,-5.07 0,-0.39 -0.05,-0.97 -0.17,-1.73 -0.11,-0.77 -0.31,-1.88 -0.61,-3.33zm55.91 -37.98l-0.58 50.64c0,1.36 -0.12,2.39 -0.37,3.11 -0.23,0.72 -0.58,1.06 -1.04,1.06 -1.07,0 -2.55,-1.16 -4.46,-3.49 -0.44,-0.48 -0.77,-0.9 -1.04,-1.21l-41 -48.45c-0.47,-0.55 -0.93,-1.01 -1.42,-1.39 -0.5,-0.37 -0.83,-0.55 -1.03,-0.55 -0.38,0 -0.68,0.35 -0.86,1.04 -0.2,0.7 -0.3,1.75 -0.3,3.15l0 23.29c0,7.28 0.25,12.19 0.73,14.72 0.48,2.53 1.33,4.41 2.53,5.61 0.95,0.95 2.66,1.61 5.17,2.03 2.5,0.4 3.74,1.18 3.74,2.36 0,0.81 -0.15,1.35 -0.43,1.61 -0.3,0.25 -1.03,0.39 -2.19,0.39 -0.17,0 -1.4,-0.14 -3.73,-0.4 -2.33,-0.27 -4.58,-0.4 -6.74,-0.4 -2.28,0 -4.67,0.13 -7.18,0.4 -2.53,0.26 -3.88,0.4 -4.08,0.4 -0.65,0 -1.13,-0.2 -1.43,-0.62 -0.32,-0.4 -0.47,-1.06 -0.47,-1.96 0,-0.37 0.9,-1 2.7,-1.93 1.8,-0.93 3.09,-2.28 3.87,-4.08 0.74,-1.61 1.42,-4.56 2.02,-8.81 0.6,-4.26 0.9,-8.74 0.9,-13.41l0 -21.2c0,-3.09 -0.25,-5.67 -0.74,-7.75 -0.48,-2.08 -1.24,-3.79 -2.28,-5.12 -1.26,-1.07 -2.87,-1.7 -4.85,-1.88 -1.98,-0.17 -2.98,-0.82 -3.01,-1.92 0,-0.78 0.14,-1.34 0.46,-1.68 0.3,-0.35 0.82,-0.51 1.53,-0.51 0.62,0 1.53,0.13 2.73,0.4 1.2,0.26 2.1,0.4 2.68,0.4 1.4,0 3.11,-0.14 5.16,-0.4 2.04,-0.27 3.37,-0.4 3.99,-0.4 1.75,0 3.64,1.23 5.69,3.69 0.23,0.25 0.38,0.45 0.48,0.58l34.4 41.24c0.84,1.05 1.62,1.87 2.33,2.45 0.72,0.58 1.27,0.86 1.67,0.86 0.45,0 0.79,-0.4 1.01,-1.21 0.23,-0.82 0.35,-2.01 0.35,-3.61l0 -25.44c0,-3.87 -0.3,-6.68 -0.88,-8.45 -0.58,-1.78 -1.56,-3.14 -2.98,-4.12 -1.48,-0.92 -3.33,-1.57 -5.52,-1.98 -2.2,-0.4 -3.3,-1.1 -3.3,-2.12 0,-0.61 0.19,-1.08 0.57,-1.41 0.36,-0.32 0.91,-0.48 1.63,-0.48 0.62,0 2,0.13 4.14,0.4 2.15,0.26 3.99,0.4 5.56,0.4 2.01,0 4.41,-0.14 7.19,-0.4 2.76,-0.27 4.49,-0.4 5.17,-0.4 0.75,0 1.26,0.13 1.56,0.41 0.29,0.27 0.44,0.73 0.44,1.38 0,0.92 -0.67,1.67 -2,2.25 -1.33,0.58 -2.36,1.23 -3.08,1.95 -1.23,0.74 -2.09,1.79 -2.58,3.16 -0.48,1.36 -0.76,3.97 -0.83,7.8z"/>
   <path class="fil0" d="M524.48 4.81l-0.2 0.4c1.23,0.55 2.17,1.21 2.78,2.01 0.62,0.8 0.93,1.75 0.93,2.86 0,0.55 -0.08,1.15 -0.21,1.8 -0.15,0.65 -0.37,1.4 -0.67,2.24l0.48 0.15c0.78,-0.84 1.4,-1.76 1.83,-2.76 0.44,-0.98 0.65,-1.89 0.65,-2.71 0,-1.23 -0.46,-2.18 -1.43,-2.88 -0.96,-0.68 -2.34,-1.05 -4.16,-1.11zm-39.73 0.88l-0.19 0.2c0.91,0.78 1.76,1.63 2.56,2.56 0.8,0.93 1.34,1.68 1.63,2.26l14.45 27.42c0.99,1.86 1.68,3.74 2.08,5.66 0.42,1.91 0.62,4.65 0.62,8.23l0 4.38c0,3.27 -0.25,5.64 -0.77,7.07 -0.5,1.43 -1.36,2.63 -2.61,3.61l0.2 0.38c2.15,-0.75 3.65,-1.9 4.46,-3.43 0.82,-1.54 1.21,-4.76 1.21,-9.63l0 -2.38c0,-6.57 -1.21,-11.94 -3.62,-16.12 -0.35,-0.61 -0.62,-1.08 -0.78,-1.36l-12.16 -23.04c-0.75,-1.4 -1.72,-2.6 -2.9,-3.58 -1.2,-1 -2.58,-1.73 -4.18,-2.23zm46.3 6.39l-14.49 26.55c-0.4,0.71 -0.68,1.38 -0.83,2.01 -0.17,0.63 -0.25,1.52 -0.25,2.66l0 11.98c0,3.76 0.25,6.37 0.73,7.84 0.49,1.46 1.34,2.64 2.55,3.56 0.78,0.45 2.4,0.85 4.84,1.18 2.45,0.31 3.66,1.13 3.66,2.39 0,0.75 -0.2,1.32 -0.62,1.68 -0.39,0.35 -1.03,0.54 -1.86,0.54 -0.53,0 -2.36,-0.14 -5.49,-0.4 -3.13,-0.27 -5.95,-0.4 -8.45,-0.4 -2.69,0 -5.85,0.13 -9.46,0.4 -3.6,0.26 -5.81,0.4 -6.63,0.4 -0.91,0 -1.61,-0.17 -2.09,-0.52 -0.49,-0.35 -0.73,-0.85 -0.73,-1.5 0,-1.11 1.01,-1.88 3.04,-2.33 2.01,-0.45 3.48,-0.93 4.34,-1.44 1.53,-0.79 2.58,-1.82 3.15,-3.11 0.56,-1.3 0.84,-3.73 0.84,-7.27l0 -4.28 0 -7.12c0,-1.55 -0.39,-3.06 -1.21,-4.52 -0.07,-0.14 -0.13,-0.27 -0.2,-0.39l-14.46 -26.7c-0.88,-1.71 -1.89,-3.23 -3.02,-4.51 -1.15,-1.28 -2.23,-2.18 -3.28,-2.69 -0.48,-0.2 -1.25,-0.4 -2.3,-0.6 -1.91,-0.38 -2.87,-1.12 -2.87,-2.18 0,-0.63 0.19,-1.06 0.58,-1.33 0.4,-0.25 1.1,-0.38 2.09,-0.38 0.17,0 0.62,0.03 1.37,0.1 3.77,0.33 7.55,0.5 11.31,0.5 3.16,0 6.44,-0.15 9.85,-0.47 0.85,-0.08 1.36,-0.13 1.56,-0.13 0.98,0 1.62,0.11 1.93,0.35 0.32,0.21 0.47,0.64 0.47,1.26 0,0.82 -0.93,1.55 -2.81,2.25 -1.87,0.68 -2.8,1.76 -2.8,3.26 0,0.48 0.12,1.08 0.37,1.79 0.25,0.72 0.6,1.48 1.05,2.3l11.16 21.23c0.15,0.3 0.33,0.53 0.53,0.71 0.18,0.19 0.38,0.27 0.58,0.27 0.2,0 0.4,-0.1 0.6,-0.3 0.22,-0.18 0.43,-0.52 0.67,-0.97l9.51 -17.48 0.25 -0.43c1.17,-2.25 1.77,-3.79 1.77,-4.64 0,-1.48 -0.37,-2.65 -1.09,-3.48 -0.71,-0.83 -1.84,-1.36 -3.37,-1.63 -0.65,-0.23 -1.55,-0.43 -2.68,-0.63 -1.73,-0.3 -2.6,-0.98 -2.6,-2.05 0,-0.63 0.19,-1.08 0.57,-1.38 0.37,-0.28 0.95,-0.43 1.73,-0.43 0.22,0 0.76,0.05 1.65,0.13 3.16,0.32 6.12,0.47 8.91,0.47 0.69,0 1.38,-0.04 2.1,-0.1 0.17,0 0.27,0 0.3,0 0.25,0 1.13,-0.09 2.59,-0.25 1.48,-0.17 2.83,-0.25 4.03,-0.25 0.65,0 1.15,0.13 1.48,0.41 0.35,0.29 0.52,0.69 0.52,1.2 0,0.92 -0.57,1.63 -1.7,2.15 -0.65,0.3 -1.1,0.53 -1.36,0.73 -0.97,0.13 -1.98,0.71 -3.05,1.75 -1.05,1.04 -2.05,2.46 -2.98,4.24z"/>
  </g>
 </g>
</svg>
