<?xml version="1.0" encoding="UTF-8"?>
<!DOCTYPE svg PUBLIC "-//W3C//DTD SVG 1.1//EN" "http://www.w3.org/Graphics/SVG/1.1/DTD/svg11.dtd">
<!-- Creator: CorelDRAW -->
<svg xmlns="http://www.w3.org/2000/svg" xml:space="preserve" width="414px" height="72px" version="1.1" style="shape-rendering:geometricPrecision; text-rendering:geometricPrecision; image-rendering:optimizeQuality; fill-rule:evenodd; clip-rule:evenodd"
viewBox="0 0 316.31 54.77"
 xmlns:xlink="http://www.w3.org/1999/xlink"
 xmlns:xodm="http://www.corel.com/coreldraw/odm/2003">
 <defs>
  <style type="text/css">
   <![CDATA[
    .fil0 {fill:black;fill-rule:nonzero}
   ]]>
  </style>
 </defs>
 <g id="Layer_x0020_1">
  <metadata id="CorelCorpID_0Corel-Layer"/>
  <path class="fil0" d="M27.98 50.94l0.15 0.36c0.64,0.11 1.2,0.18 1.66,0.22 0.46,0.04 0.83,0.05 1.09,0.05 2.37,0 4.4,-0.58 6.08,-1.77 1.66,-1.18 2.86,-2.86 3.55,-5.05l-0.14 -0.23c-1.57,1.74 -3.35,3.12 -5.32,4.14 -1.98,1.02 -4.33,1.78 -7.07,2.28zm-10.11 -38.93l0 31.21c0,3.08 0.42,4.95 1.25,5.64 0.84,0.67 2.43,1.02 4.8,1.02 2.56,0 5.08,-0.41 7.55,-1.21 2.47,-0.8 4.49,-1.89 6.06,-3.22 1.07,-0.92 2,-2.05 2.8,-3.4 0.79,-1.35 1.44,-2.03 1.94,-2.03 0.33,0 0.59,0.16 0.8,0.45 0.21,0.31 0.32,0.66 0.32,1.08 0,1 -0.28,2.35 -0.86,4.03 -0.57,1.69 -1.27,3.13 -2.08,4.32 -1.05,1.49 -2.39,2.59 -4.01,3.29 -1.63,0.7 -3.67,1.04 -6.1,1.04 -1.02,0 -3.12,-0.1 -6.29,-0.3 -3.17,-0.21 -5.83,-0.31 -8,-0.31 -2.61,0 -5.27,0.1 -7.98,0.31 -2.71,0.2 -4.1,0.3 -4.15,0.3 -0.61,0 -1.08,-0.13 -1.39,-0.37 -0.32,-0.25 -0.47,-0.63 -0.47,-1.16 0,-0.67 0.61,-1.33 1.82,-1.96 0.77,-0.43 1.36,-0.79 1.78,-1.09 1.05,-0.55 1.81,-1.38 2.31,-2.5 0.5,-1.1 0.74,-2.59 0.74,-4.45l0 -29.94c0,-2.45 -0.17,-4.21 -0.49,-5.29 -0.31,-1.08 -0.87,-2.05 -1.66,-2.89 -0.86,-0.67 -2.16,-1.1 -3.91,-1.32 -1.77,-0.21 -2.65,-0.76 -2.65,-1.66 0,-0.52 0.17,-0.91 0.48,-1.19 0.33,-0.27 0.81,-0.41 1.42,-0.41 0.1,0 1.27,0.1 3.49,0.3 2.22,0.21 4.39,0.31 6.47,0.31 3.01,0 6.17,-0.16 9.48,-0.51 0.75,-0.06 1.19,-0.1 1.35,-0.1 0.49,0 0.86,0.14 1.09,0.41 0.24,0.28 0.36,0.67 0.36,1.19 0,0.63 -0.55,1.14 -1.66,1.53 -1.11,0.4 -1.95,0.88 -2.52,1.45 -0.78,0.63 -1.31,1.38 -1.62,2.28 -0.31,0.89 -0.47,2.61 -0.47,5.15zm-10.98 -9.25l-0.26 0.29c1.29,0.63 2.2,1.52 2.77,2.69 0.56,1.17 0.84,2.8 0.84,4.89l0 29.8c0,3.08 -0.23,5.3 -0.68,6.67 -0.45,1.37 -1.18,2.56 -2.23,3.61l0.08 0.3c1.64,-0.75 2.79,-1.82 3.44,-3.22 0.66,-1.4 0.99,-3.93 0.99,-7.57l0 -29.07c0,-2.51 -0.38,-4.4 -1.16,-5.69 -0.76,-1.28 -2.02,-2.18 -3.79,-2.7zm79.54 -0.76l0 0.29c1.59,0.47 2.8,1.31 3.61,2.5 0.82,1.19 1.26,2.75 1.34,4.67l0.37 0c0.02,-0.23 0.05,-0.55 0.08,-0.98 0.05,-1.29 0.07,-2.15 0.07,-2.61 0,-1.34 -0.43,-2.32 -1.28,-2.93 -0.86,-0.61 -2.26,-0.93 -4.19,-0.94zm-36.82 1.26l-0.08 0.27c0.81,0.57 1.37,1.45 1.7,2.62 0.34,1.18 0.51,3.18 0.51,6l0 14.05c0,10.15 1.03,16.83 3.08,20.06 2.05,3.24 5.75,5.44 11.11,6.61l0 -0.27c-4.63,-1.73 -7.85,-4.1 -9.66,-7.06 -1.8,-2.97 -2.7,-8.71 -2.7,-17.21l0 -13.28c0,-0.92 -0.01,-1.86 -0.04,-2.83 -0.02,-0.25 -0.04,-0.41 -0.04,-0.46 0,-2.66 -0.28,-4.59 -0.85,-5.79 -0.57,-1.21 -1.58,-2.11 -3.03,-2.71zm9.69 12.91l0 13.31c0,4.08 0.16,7.03 0.48,8.86 0.33,1.82 0.88,3.43 1.64,4.79 1.28,2.29 2.97,4.04 5.1,5.25 2.12,1.21 4.55,1.8 7.29,1.8 2.55,0 4.86,-0.44 6.96,-1.33 2.11,-0.91 3.86,-2.18 5.29,-3.85 1.46,-1.74 2.51,-3.93 3.14,-6.57 0.64,-2.63 0.96,-6.46 0.96,-11.48l0 -13.2c0,-3.15 -0.23,-5.39 -0.68,-6.74 -0.44,-1.36 -1.21,-2.36 -2.3,-3.04 -0.7,-0.32 -1.94,-0.61 -3.69,-0.85 -1.77,-0.24 -2.65,-0.83 -2.65,-1.75 0,-0.47 0.15,-0.81 0.47,-1.04 0.31,-0.22 0.8,-0.33 1.46,-0.33 0.34,0 1.38,0.1 3.14,0.3 1.77,0.21 3.37,0.31 4.81,0.31 1.39,0 2.87,-0.1 4.47,-0.31 1.59,-0.2 2.49,-0.3 2.68,-0.3 0.58,0 1,0.1 1.28,0.29 0.26,0.21 0.4,0.51 0.4,0.93 0,0.7 -0.52,1.22 -1.55,1.61 -1.03,0.37 -1.8,0.75 -2.27,1.14 -0.65,0.4 -1.08,1.35 -1.32,2.85 -0.24,1.51 -0.36,5.08 -0.36,10.72l0 9.78c0,9.18 -1.93,16.04 -5.79,20.6 -3.87,4.57 -9.67,6.85 -17.43,6.85 -7.29,0 -12.54,-1.99 -15.77,-5.95 -3.23,-3.97 -4.85,-10.51 -4.85,-19.63l0 -18.65c0,-2.09 -0.18,-3.59 -0.54,-4.49 -0.37,-0.92 -1.04,-1.61 -2.03,-2.08 -0.8,-0.32 -1.85,-0.6 -3.13,-0.81 -1.55,-0.28 -2.32,-0.84 -2.32,-1.71 0,-0.5 0.16,-0.86 0.48,-1.09 0.32,-0.25 0.82,-0.36 1.49,-0.36 0.18,0 1.31,0.1 3.41,0.3 2.1,0.21 4.13,0.31 6.06,0.31 1.8,0 3.78,-0.1 5.99,-0.31 2.2,-0.2 3.48,-0.3 3.85,-0.3 0.76,0 1.29,0.1 1.61,0.32 0.32,0.2 0.48,0.53 0.48,0.98 0,0.67 -0.57,1.18 -1.72,1.54 -1.14,0.36 -2,0.74 -2.57,1.13 -0.74,0.5 -1.26,1.53 -1.54,3.08 -0.29,1.56 -0.43,4.6 -0.43,9.12zm56.22 27.83l-0.23 -0.23c-2.01,2.37 -3.66,4.14 -4.95,5.31 -1.29,1.17 -2.54,2.05 -3.72,2.64l0.29 0.16c1.96,0 3.6,-0.61 4.94,-1.82 1.32,-1.2 2.55,-3.22 3.67,-6.06zm26.21 -41.62l-0.15 0.31c0.7,0.19 1.23,0.53 1.59,1.01 0.37,0.49 0.55,1.09 0.55,1.81 0,0.8 -0.55,2.13 -1.66,4l0 0.06 0.34 0.27c0.16,-0.18 0.36,-0.42 0.64,-0.75 1.52,-1.91 2.28,-3.34 2.28,-4.29 0,-0.69 -0.32,-1.25 -0.94,-1.67 -0.63,-0.43 -1.5,-0.67 -2.65,-0.75zm-33.97 0.08l-0.11 0.15c0.83,0.29 1.79,0.98 2.91,2.05 1.12,1.07 2.18,2.37 3.2,3.91l24.55 35.95c0.43,0.67 0.77,1.35 1,2.01 0.24,0.68 0.36,1.31 0.36,1.91 0,0.42 -0.09,0.83 -0.26,1.21 -0.18,0.38 -0.42,0.74 -0.74,1.06l0.37 0.15c0.63,-0.29 1.1,-0.75 1.42,-1.36 0.31,-0.61 0.48,-1.33 0.48,-2.14 0,-0.7 -0.18,-1.49 -0.53,-2.4 -0.37,-0.89 -0.9,-1.82 -1.6,-2.8l-24.26 -35.41c-0.8,-1.2 -1.82,-2.19 -3.06,-2.97 -1.24,-0.79 -2.48,-1.22 -3.73,-1.32zm15.18 6.55l7.19 10.48c0.23,0.33 0.43,0.57 0.64,0.74 0.19,0.15 0.38,0.24 0.56,0.24 0.16,0 0.36,-0.08 0.56,-0.2 0.19,-0.14 0.39,-0.35 0.58,-0.63l7.43 -9.32c0.84,-1.06 1.4,-1.91 1.66,-2.53 0.26,-0.62 0.4,-1.26 0.4,-1.9 0,-0.82 -0.19,-1.42 -0.56,-1.8 -0.37,-0.4 -1.08,-0.72 -2.12,-0.96 -0.22,-0.05 -0.52,-0.11 -0.9,-0.19 -1.36,-0.27 -2.05,-0.79 -2.07,-1.57 0,-0.42 0.14,-0.75 0.4,-1 0.28,-0.24 0.65,-0.37 1.12,-0.37 0.4,0 1.51,0.1 3.34,0.3 1.82,0.21 3.46,0.31 4.93,0.31 1.32,0 2.81,-0.1 4.46,-0.31 1.67,-0.2 2.64,-0.3 2.92,-0.3 0.66,0 1.12,0.1 1.37,0.32 0.25,0.2 0.37,0.56 0.37,1.05 0,0.88 -0.68,1.48 -2.05,1.77 -0.73,0.16 -1.33,0.32 -1.78,0.53 -1,0.44 -2.25,1.41 -3.77,2.87 -1.51,1.48 -3.2,3.36 -5.06,5.68l-8.33 10.41c-0.19,0.22 -0.34,0.45 -0.44,0.69 -0.11,0.23 -0.16,0.47 -0.16,0.73 0,0.21 0.04,0.44 0.12,0.65 0.07,0.21 0.19,0.43 0.34,0.65l11.93 17.27c1.15,1.66 2.28,3.17 3.41,4.51 1.13,1.35 2.15,2.4 3.08,3.21 0.4,0.23 0.97,0.45 1.71,0.71 1.04,0.32 1.56,0.8 1.56,1.43 0,0.57 -0.16,0.99 -0.48,1.27 -0.32,0.27 -0.81,0.41 -1.45,0.41 -0.78,0 -2.19,-0.12 -4.24,-0.33 -2.05,-0.23 -3.7,-0.35 -4.98,-0.35 -1.81,0 -3.69,0.12 -5.62,0.35 -1.94,0.21 -3,0.33 -3.17,0.33 -0.68,0 -1.2,-0.14 -1.57,-0.41 -0.37,-0.28 -0.56,-0.65 -0.56,-1.12 0,-0.65 0.7,-1.24 2.09,-1.75 1.4,-0.5 2.1,-1.32 2.1,-2.44 0,-0.57 -0.14,-1.21 -0.44,-1.92 -0.28,-0.72 -0.68,-1.45 -1.23,-2.23l-7.96 -11.44c-0.15,-0.27 -0.32,-0.5 -0.48,-0.68 -0.18,-0.17 -0.32,-0.25 -0.41,-0.25 -0.15,0.02 -0.3,0.08 -0.46,0.2 -0.14,0.11 -0.34,0.32 -0.58,0.61l-7.69 9.82c-0.99,1.27 -1.67,2.27 -2.04,3.04 -0.35,0.75 -0.53,1.45 -0.53,2.07 0,1.15 0.85,1.96 2.57,2.46 0.29,0.1 0.53,0.18 0.7,0.23 0.28,0.1 0.66,0.22 1.16,0.37 1.41,0.39 2.12,0.98 2.12,1.76 0,0.57 -0.17,0.99 -0.53,1.27 -0.37,0.27 -0.89,0.41 -1.59,0.41 -0.35,0 -1.39,-0.11 -3.11,-0.31 -1.73,-0.19 -3.28,-0.29 -4.67,-0.29 -1.38,0 -2.93,0.1 -4.69,0.29 -1.74,0.2 -2.83,0.31 -3.25,0.31 -0.6,0 -1.09,-0.13 -1.46,-0.4 -0.37,-0.25 -0.56,-0.61 -0.56,-1.06 0,-0.64 0.67,-1.22 1.98,-1.71 0.65,-0.26 1.14,-0.46 1.49,-0.64 1.19,-0.6 2.36,-1.44 3.52,-2.51 1.15,-1.07 2.7,-2.84 4.64,-5.29l10.14 -12.84c0.14,-0.17 0.26,-0.38 0.33,-0.63 0.08,-0.24 0.12,-0.5 0.12,-0.74 0,-0.18 -0.04,-0.37 -0.12,-0.59 -0.07,-0.2 -0.2,-0.49 -0.4,-0.86l-9.92 -14.59c-1.15,-1.67 -2.34,-3.22 -3.58,-4.66 -1.25,-1.44 -2.26,-2.48 -3.05,-3.13 -0.63,-0.47 -1.56,-0.9 -2.8,-1.26 -1.24,-0.39 -1.86,-0.96 -1.86,-1.72 0,-0.52 0.15,-0.91 0.44,-1.16 0.31,-0.24 0.79,-0.37 1.45,-0.37 1.05,0 2.7,0.1 4.94,0.3 2.26,0.21 3.99,0.31 5.21,0.31 1.69,0 3.53,-0.1 5.51,-0.31 1.99,-0.2 3.16,-0.3 3.52,-0.3 0.63,0 1.1,0.1 1.38,0.32 0.3,0.2 0.44,0.56 0.44,1.05 0,0.7 -0.45,1.24 -1.35,1.61 -0.19,0.07 -0.33,0.13 -0.41,0.15 -0.87,0.13 -1.53,0.43 -1.96,0.93 -0.43,0.5 -0.65,1.19 -0.65,2.05 0,0.4 0.1,0.84 0.29,1.32 0.21,0.49 0.49,1.02 0.87,1.58zm78.06 -7.01l0 0.29c1.59,0.47 2.8,1.31 3.62,2.5 0.81,1.19 1.26,2.75 1.34,4.67l0.36 0c0.03,-0.23 0.06,-0.55 0.08,-0.98 0.05,-1.29 0.08,-2.15 0.08,-2.61 0,-1.34 -0.44,-2.32 -1.29,-2.93 -0.85,-0.61 -2.25,-0.93 -4.19,-0.94zm-36.81 1.26l-0.08 0.27c0.8,0.57 1.36,1.45 1.69,2.62 0.35,1.18 0.51,3.18 0.51,6l0 14.05c0,10.15 1.03,16.83 3.08,20.06 2.05,3.24 5.76,5.44 11.12,6.61l0 -0.27c-4.64,-1.73 -7.86,-4.1 -9.67,-7.06 -1.79,-2.97 -2.69,-8.71 -2.69,-17.21l0 -13.28c0,-0.92 -0.02,-1.86 -0.04,-2.83 -0.03,-0.25 -0.04,-0.41 -0.04,-0.46 0,-2.66 -0.28,-4.59 -0.85,-5.79 -0.58,-1.21 -1.58,-2.11 -3.03,-2.71zm9.68 12.91l0 13.31c0,4.08 0.17,7.03 0.49,8.86 0.33,1.82 0.88,3.43 1.64,4.79 1.27,2.29 2.97,4.04 5.09,5.25 2.13,1.21 4.56,1.8 7.3,1.8 2.54,0 4.86,-0.44 6.96,-1.33 2.1,-0.91 3.86,-2.18 5.28,-3.85 1.47,-1.74 2.51,-3.93 3.15,-6.57 0.63,-2.63 0.95,-6.46 0.95,-11.48l0 -13.2c0,-3.15 -0.23,-5.39 -0.67,-6.74 -0.45,-1.36 -1.21,-2.36 -2.31,-3.04 -0.7,-0.32 -1.93,-0.61 -3.69,-0.85 -1.77,-0.24 -2.65,-0.83 -2.65,-1.75 0,-0.47 0.16,-0.81 0.48,-1.04 0.3,-0.22 0.8,-0.33 1.46,-0.33 0.33,0 1.37,0.1 3.13,0.3 1.77,0.21 3.38,0.31 4.81,0.31 1.39,0 2.88,-0.1 4.47,-0.31 1.59,-0.2 2.5,-0.3 2.69,-0.3 0.57,0 0.99,0.1 1.27,0.29 0.27,0.21 0.41,0.51 0.41,0.93 0,0.7 -0.52,1.22 -1.55,1.61 -1.04,0.37 -1.8,0.75 -2.27,1.14 -0.65,0.4 -1.08,1.35 -1.33,2.85 -0.24,1.51 -0.35,5.08 -0.35,10.72l0 9.78c0,9.18 -1.94,16.04 -5.79,20.6 -3.87,4.57 -9.68,6.85 -17.43,6.85 -7.3,0 -12.54,-1.99 -15.78,-5.95 -3.23,-3.97 -4.85,-10.51 -4.85,-19.63l0 -18.65c0,-2.09 -0.17,-3.59 -0.53,-4.49 -0.37,-0.92 -1.04,-1.61 -2.04,-2.08 -0.8,-0.32 -1.84,-0.6 -3.13,-0.81 -1.54,-0.28 -2.32,-0.84 -2.32,-1.71 0,-0.5 0.17,-0.86 0.49,-1.09 0.32,-0.25 0.81,-0.36 1.49,-0.36 0.18,0 1.31,0.1 3.41,0.3 2.1,0.21 4.12,0.31 6.06,0.31 1.79,0 3.78,-0.1 5.98,-0.31 2.2,-0.2 3.49,-0.3 3.86,-0.3 0.75,0 1.28,0.1 1.6,0.32 0.32,0.2 0.49,0.53 0.49,0.98 0,0.67 -0.58,1.18 -1.72,1.54 -1.15,0.36 -2,0.74 -2.57,1.13 -0.74,0.5 -1.26,1.53 -1.54,3.08 -0.3,1.56 -0.44,4.6 -0.44,9.12zm70.43 11.95l-0.15 0.52c0.37,0.35 0.72,0.75 1.07,1.23 0.33,0.48 0.72,1.15 1.17,2.06l5.85 11.62c1.42,2.82 2.87,4.99 4.35,6.54 1.47,1.56 3.04,2.54 4.68,2.93l0.14 -0.4c-0.99,-0.44 -2.14,-1.48 -3.42,-3.16 -1.3,-1.67 -2.63,-3.83 -4,-6.46l-6.64 -13.06c-0.39,-0.79 -0.76,-1.31 -1.09,-1.54 -0.34,-0.24 -0.78,-0.35 -1.32,-0.35 -0.05,0 -0.16,0.01 -0.31,0.03 -0.15,0.03 -0.25,0.04 -0.33,0.04zm2.01 -25.07c2.24,1.65 3.91,3.48 5.03,5.5 1.12,2.03 1.68,4.26 1.68,6.66 0,1.85 -0.22,3.43 -0.64,4.75 -0.42,1.34 -1.07,2.5 -1.96,3.49l0.14 0.23c1.4,-0.92 2.46,-2.17 3.2,-3.72 0.72,-1.55 1.09,-3.35 1.09,-5.38 0,-2.86 -0.75,-5.29 -2.24,-7.29 -1.49,-2.01 -3.59,-3.41 -6.3,-4.24zm-22.93 -0.3c1.17,0.75 2.03,1.76 2.56,3.03 0.54,1.27 0.8,2.89 0.8,4.85l0 29.79c0,3.08 -0.23,5.31 -0.67,6.67 -0.45,1.36 -1.18,2.57 -2.23,3.62 1.66,-0.39 2.83,-1.32 3.5,-2.8 0.68,-1.49 1.01,-4.07 1.01,-7.71l0 -29.05c0,-2.51 -0.38,-4.4 -1.14,-5.69 -0.76,-1.28 -2.03,-2.18 -3.83,-2.71zm27.82 23.84c0.47,0.25 0.92,0.61 1.32,1.11 0.41,0.51 0.86,1.2 1.33,2.1l7.71 14.29c1.07,2.01 2,3.34 2.78,4.02 0.77,0.67 1.74,1 2.89,1 0.19,0 0.51,-0.02 0.93,-0.07 0.42,-0.05 0.71,-0.08 0.89,-0.08 0.37,0 0.65,0.09 0.83,0.24 0.16,0.17 0.25,0.45 0.25,0.84 0,0.98 -0.86,1.91 -2.61,2.83 -1.74,0.9 -3.6,1.36 -5.59,1.36 -2.26,0 -4.35,-1.02 -6.27,-3.05 -1.94,-2.05 -4.14,-5.66 -6.62,-10.82l-0.68 -1.43c-2.61,-5.38 -4.28,-8.42 -5.03,-9.05 -0.55,-0.49 -1.17,-0.82 -1.86,-1.02 -0.7,-0.19 -1.94,-0.29 -3.73,-0.29 -1.27,0 -2.12,0.19 -2.56,0.56 -0.43,0.37 -0.64,1.08 -0.64,2.12l0 11.23c0,2.03 0.26,3.64 0.81,4.85 0.55,1.2 1.41,2.05 2.57,2.55 0.4,0.25 1.07,0.51 2.01,0.79 1.39,0.39 2.09,1.03 2.09,1.87 0,0.62 -0.14,1.07 -0.41,1.32 -0.28,0.24 -0.75,0.37 -1.41,0.37 -0.18,0 -1.28,-0.1 -3.32,-0.3 -2.04,-0.21 -3.99,-0.31 -5.86,-0.31 -1.98,0 -4.15,0.1 -6.48,0.31 -2.34,0.2 -3.66,0.3 -4,0.3 -0.58,0 -1.04,-0.13 -1.35,-0.37 -0.31,-0.25 -0.47,-0.62 -0.47,-1.09 0,-0.78 0.67,-1.47 1.98,-2.06 0.67,-0.33 1.18,-0.6 1.54,-0.83 1.07,-0.68 1.84,-1.58 2.33,-2.71 0.48,-1.15 0.72,-2.64 0.72,-4.47l0 -29.94c0,-2.56 -0.14,-4.35 -0.43,-5.34 -0.28,-0.99 -0.78,-1.83 -1.48,-2.53 -0.76,-0.78 -1.96,-1.3 -3.59,-1.57 -1.63,-0.28 -2.44,-0.85 -2.44,-1.72 0,-0.52 0.15,-0.91 0.47,-1.19 0.31,-0.27 0.78,-0.41 1.39,-0.41 0.2,0 0.74,0.05 1.6,0.14 3.02,0.32 5.81,0.47 8.39,0.47 1.32,0 3.54,-0.1 6.67,-0.31 3.13,-0.2 5.6,-0.3 7.39,-0.3 5.71,0 10.12,1.25 13.21,3.73 3.09,2.48 4.65,6.01 4.65,10.55 0,3.06 -0.82,5.59 -2.45,7.6 -1.63,2.03 -4.11,3.59 -7.47,4.71zm-16.51 -5.04c0,1.7 0.37,2.73 1.09,3.1 0.74,0.37 2.46,0.56 5.17,0.56 3.82,0 6.6,-0.72 8.29,-2.14 1.71,-1.44 2.56,-3.76 2.56,-6.97 0,-4.02 -1.11,-7.19 -3.32,-9.51 -2.21,-2.3 -5.26,-3.46 -9.13,-3.46 -1.77,0 -2.98,0.4 -3.66,1.2 -0.67,0.79 -1,2.43 -1,4.93l0 12.29zm69.64 -19.09l-0.16 0.3c0.94,0.42 1.66,0.93 2.13,1.54 0.47,0.61 0.71,1.34 0.71,2.19 0,0.42 -0.06,0.88 -0.16,1.38 -0.12,0.49 -0.28,1.07 -0.51,1.72l0.37 0.11c0.59,-0.65 1.06,-1.35 1.4,-2.11 0.33,-0.75 0.49,-1.45 0.49,-2.08 0,-0.94 -0.35,-1.67 -1.09,-2.2 -0.74,-0.52 -1.8,-0.8 -3.18,-0.85zm-30.41 0.67l-0.15 0.15c0.7,0.6 1.35,1.25 1.96,1.97 0.61,0.71 1.03,1.28 1.25,1.73l11.06 20.98c0.75,1.42 1.29,2.86 1.59,4.33 0.32,1.46 0.48,3.56 0.48,6.3l0 3.34c0,2.51 -0.2,4.32 -0.59,5.41 -0.38,1.1 -1.04,2.02 -2,2.77l0.15 0.29c1.65,-0.57 2.79,-1.45 3.41,-2.62 0.63,-1.19 0.93,-3.64 0.93,-7.37l0 -1.82c0,-5.03 -0.93,-9.14 -2.77,-12.34 -0.27,-0.47 -0.47,-0.83 -0.6,-1.04l-9.3 -17.64c-0.58,-1.06 -1.32,-1.98 -2.22,-2.73 -0.92,-0.77 -1.97,-1.33 -3.2,-1.71zm35.43 4.89l-11.08 20.32c-0.31,0.55 -0.53,1.05 -0.64,1.54 -0.13,0.48 -0.19,1.16 -0.19,2.04l0 9.16c0,2.88 0.19,4.88 0.56,6 0.37,1.12 1.02,2.02 1.95,2.72 0.59,0.35 1.83,0.65 3.7,0.91 1.87,0.24 2.8,0.86 2.8,1.83 0,0.57 -0.15,1 -0.47,1.29 -0.31,0.26 -0.79,0.4 -1.43,0.4 -0.4,0 -1.8,-0.1 -4.2,-0.3 -2.39,-0.21 -4.55,-0.31 -6.46,-0.31 -2.07,0 -4.48,0.1 -7.25,0.31 -2.75,0.2 -4.44,0.3 -5.06,0.3 -0.7,0 -1.24,-0.13 -1.61,-0.39 -0.37,-0.27 -0.56,-0.65 -0.56,-1.15 0,-0.85 0.78,-1.44 2.33,-1.78 1.54,-0.34 2.66,-0.71 3.32,-1.11 1.17,-0.6 1.98,-1.39 2.41,-2.38 0.43,-0.99 0.65,-2.85 0.65,-5.56l0 -3.27 0 -5.45c0,-1.19 -0.31,-2.34 -0.93,-3.46 -0.05,-0.11 -0.1,-0.21 -0.15,-0.3l-11.07 -20.43c-0.67,-1.31 -1.45,-2.47 -2.31,-3.45 -0.88,-0.98 -1.71,-1.67 -2.51,-2.06 -0.37,-0.16 -0.96,-0.31 -1.76,-0.46 -1.46,-0.29 -2.2,-0.85 -2.2,-1.67 0,-0.48 0.15,-0.81 0.45,-1.02 0.3,-0.19 0.84,-0.29 1.6,-0.29 0.13,0 0.47,0.03 1.04,0.08 2.89,0.25 5.78,0.38 8.66,0.38 2.42,0 4.93,-0.12 7.54,-0.36 0.65,-0.06 1.04,-0.1 1.19,-0.1 0.75,0 1.24,0.09 1.48,0.27 0.24,0.16 0.36,0.49 0.36,0.97 0,0.62 -0.72,1.18 -2.15,1.71 -1.43,0.53 -2.14,1.35 -2.14,2.5 0,0.37 0.09,0.83 0.28,1.37 0.19,0.55 0.46,1.14 0.8,1.76l8.54 16.24c0.12,0.23 0.26,0.41 0.41,0.55 0.14,0.14 0.29,0.21 0.44,0.21 0.16,0 0.31,-0.08 0.46,-0.23 0.17,-0.14 0.33,-0.4 0.51,-0.74l7.28 -13.38 0.19 -0.33c0.9,-1.72 1.35,-2.9 1.35,-3.55 0,-1.14 -0.28,-2.03 -0.82,-2.67 -0.55,-0.63 -1.42,-1.04 -2.59,-1.24 -0.49,-0.18 -1.18,-0.33 -2.05,-0.49 -1.32,-0.23 -1.98,-0.75 -1.98,-1.56 0,-0.49 0.14,-0.83 0.43,-1.06 0.28,-0.22 0.72,-0.33 1.32,-0.33 0.17,0 0.59,0.04 1.26,0.1 2.42,0.24 4.69,0.36 6.83,0.36 0.52,0 1.05,-0.03 1.6,-0.08 0.13,0 0.2,0 0.23,0 0.19,0 0.87,-0.06 1.99,-0.19 1.13,-0.13 2.16,-0.19 3.08,-0.19 0.49,0 0.88,0.1 1.13,0.32 0.27,0.21 0.4,0.52 0.4,0.92 0,0.7 -0.44,1.24 -1.3,1.64 -0.5,0.23 -0.84,0.4 -1.05,0.56 -0.74,0.1 -1.51,0.54 -2.33,1.33 -0.8,0.81 -1.56,1.89 -2.28,3.25z"/>
 </g>
</svg>
