<?xml version="1.0" encoding="UTF-8"?>
<!DOCTYPE svg PUBLIC "-//W3C//DTD SVG 1.1//EN" "http://www.w3.org/Graphics/SVG/1.1/DTD/svg11.dtd">
<!-- Creator: CorelDRAW 2026 -->
<svg xmlns="http://www.w3.org/2000/svg" xml:space="preserve" width="48px" height="48px" version="1.1" style="shape-rendering:geometricPrecision; text-rendering:geometricPrecision; image-rendering:optimizeQuality; fill-rule:evenodd; clip-rule:evenodd"
viewBox="0 0 48 48"
 xmlns:xlink="http://www.w3.org/1999/xlink"
 xmlns:xodm="http://www.corel.com/coreldraw/odm/2003">
 <defs>
  <style type="text/css">
   <![CDATA[
    .fil0 {fill:#373435;fill-rule:nonzero}
   ]]>
  </style>
 </defs>
 <g id="Layer_x0020_1">
  <metadata id="CorelCorpID_0Corel-Layer"/>
  <path class="fil0" d="M24 0.22c-9.41,0 -17.06,7.65 -17.06,17.06 0,6.23 1.58,8.58 13.84,26.91l1.93 2.9c0.29,0.43 0.77,0.69 1.29,0.69 0.52,0 1,-0.26 1.29,-0.69l1.61 -2.41c12.55,-18.77 14.16,-21.18 14.16,-27.4 0,-9.41 -7.65,-17.06 -17.06,-17.06zm7.75 17.06l0 0.2 -0.01 0.2 -0.01 0.19 -0.02 0.2 -0.02 0.19 -0.03 0.2 -0.03 0.19 -0.03 0.19 -0.04 0.19 -0.05 0.18 -0.05 0.19 -0.06 0.18 -0.05 0.18 -0.07 0.18 -0.07 0.18 -0.07 0.17 -0.07 0.18 -0.08 0.17 -0.09 0.17 -0.08 0.16 -0.1 0.16 -0.09 0.17 -0.1 0.15 -0.1 0.16 -0.11 0.16 -0.11 0.15 -0.11 0.14 -0.12 0.15 -0.12 0.14 -0.12 0.14 -0.13 0.14 -0.13 0.13 -0.13 0.13 -0.14 0.13 -0.14 0.12 -0.14 0.12 -0.15 0.12 -0.14 0.11 -0.15 0.11 -0.16 0.11 -0.15 0.1 -0.16 0.1 -0.16 0.09 -0.17 0.1 -0.16 0.08 -0.17 0.09 -0.17 0.08 -0.18 0.07 -0.17 0.07 -0.18 0.07 -0.18 0.06 -0.18 0.06 -0.18 0.06 -0.19 0.05 -0.18 0.05 -0.19 0.04 -0.19 0.03 -0.19 0.03 -0.19 0.03 -0.2 0.02 -0.2 0.02 -0.19 0.01 -0.2 0.01 -0.2 0c-4.28,0 -7.76,-3.48 -7.76,-7.75 0,-4.28 3.48,-7.76 7.76,-7.76l0.2 0.01 0.2 0 0.19 0.02 0.2 0.01 0.2 0.03 0.19 0.02 0.19 0.04 0.19 0.03 0.19 0.04 0.18 0.05 0.19 0.05 0.18 0.05 0.18 0.06 0.18 0.07 0.18 0.06 0.17 0.07 0.18 0.08 0.17 0.08 0.17 0.08 0.16 0.09 0 0 0.17 0.09 0.16 0.1 0.16 0.1 0.15 0.1 0.16 0.11 0 0 0.15 0.11 0.14 0.11 0 0 0.15 0.12 0.14 0.12 0 0 0.14 0.12 0.14 0.13 0.13 0.13 0.13 0.13 0.13 0.14 0.12 0.14 0.12 0.14 0.12 0.14 0.11 0.15 0.11 0.15 0.11 0.16 0 0 0.1 0.15 0 0 0.1 0.16 0 0 0.09 0.16 0 0 0.1 0.17 0.08 0.16 0.09 0.17 0.08 0.17 0.07 0.17 0.07 0.18 0.07 0.17 0.07 0.18 0.05 0.19 0.06 0.18 0.05 0.18 0 0 0.05 0.19 0.04 0.19 0 0 0.03 0.19 0.03 0.19 0 0 0.03 0.19 0 0 0.02 0.2 0 0 0.02 0.19 0 0 0.01 0.2 0 0 0.01 0.2 0 0 0 0.2z"/>
 </g>
</svg>
