<?xml version="1.0" encoding="UTF-8"?>
<!DOCTYPE svg PUBLIC "-//W3C//DTD SVG 1.1//EN" "http://www.w3.org/Graphics/SVG/1.1/DTD/svg11.dtd">
<!-- Creator: CorelDRAW 2026 -->
<svg xmlns="http://www.w3.org/2000/svg" xml:space="preserve" width="48px" height="48px" version="1.1" style="shape-rendering:geometricPrecision; text-rendering:geometricPrecision; image-rendering:optimizeQuality; fill-rule:evenodd; clip-rule:evenodd"
viewBox="0 0 48 48"
 xmlns:xlink="http://www.w3.org/1999/xlink"
 xmlns:xodm="http://www.corel.com/coreldraw/odm/2003">
 <defs>
  <style type="text/css">
   <![CDATA[
    .fil0 {fill:#373435}
   ]]>
  </style>
 </defs>
 <g id="Layer_x0020_1">
  <metadata id="CorelCorpID_0Corel-Layer"/>
  <path class="fil0" d="M23.903 39.854l-0.02 2.16c0.112,-0.059 0.235,-0.133 0.348,-0.201 0.071,-0.043 0.139,-0.083 0.208,-0.122 0.083,-0.047 0.174,-0.102 0.265,-0.156 0.138,-0.083 0.277,-0.166 0.438,-0.251l9.987 -5.724c0.349,-0.205 0.732,-0.42 1.122,-0.64 0.625,-0.352 1.27,-0.715 1.717,-0.996l4.286 -2.465c0.497,-0.296 1.114,-0.64 1.742,-0.992 0.875,-0.488 1.773,-0.99 2.424,-1.402l0.029 -2.228 -1.96 1.14c-0.142,0.077 -0.276,0.155 -0.415,0.236l-0.291 0.167 -0.726 0.412 -0.717 0.41c-0.435,0.251 -0.972,0.568 -1.523,0.892 -0.955,0.564 -1.952,1.152 -2.749,1.585l-1.794 1.017c-0.058,0.034 -0.102,0.065 -0.147,0.096 -0.057,0.039 -0.114,0.079 -0.193,0.124l-12.031 6.938zm-11.441 -4.407c-1.307,-0.865 -2.819,-1.779 -4.347,-2.679l4.347 2.679zm-0.227 -6.846c-0.253,0.136 -0.444,0.238 -0.464,0.358 0.086,0.126 0.465,0.329 0.743,0.478 0.096,0.051 0.183,0.097 0.232,0.126 0.102,0.061 0.261,0.159 0.448,0.274 0.591,0.366 1.475,0.913 1.723,0.961 0.019,0.004 0.037,0.007 0.055,0.009 0.147,0.014 0.35,-0.011 0.526,-0.091 0.161,-0.072 0.296,-0.191 0.33,-0.366l0.007 -0.044c0.052,-0.528 0.304,-0.669 0.721,-0.902 0.063,-0.035 0.13,-0.073 0.196,-0.111l3.072 -1.786c-0.292,-0.187 -0.948,-0.567 -1.409,-0.834 -0.242,-0.139 -0.43,-0.248 -0.497,-0.291l-0.081 -0.051c-0.278,-0.181 -0.668,-0.434 -1.007,-0.308l-4.254 2.388c-0.114,0.069 -0.232,0.132 -0.341,0.19zm27.232 -2.355c0.531,-0.287 1.121,-0.606 1.226,-0.939 0.057,-0.178 0.041,-0.33 -0.013,-0.455 -0.076,-0.17 -0.226,-0.299 -0.369,-0.385 -0.213,-0.128 -0.434,-0.247 -0.659,-0.368l-0.287 -0.156c-0.575,-0.315 -1.179,-0.629 -1.779,-0.941 -0.711,-0.37 -1.417,-0.737 -2.085,-1.112 -0.439,-0.247 -0.867,-0.471 -1.294,-0.695 -0.213,-0.111 -0.427,-0.223 -0.633,-0.333l-0.558 -0.298c-0.467,-0.25 -0.932,-0.499 -1.4,-0.743 -0.12,-0.062 -0.255,-0.137 -0.393,-0.214 -0.495,-0.277 -1.029,-0.575 -1.631,-0.658 -0.473,-0.066 -0.884,-0.049 -1.263,0.035 -0.378,0.084 -0.727,0.237 -1.075,0.442 -0.813,0.407 -2.132,1.121 -2.882,1.609 -0.375,0.202 -0.798,0.448 -1.225,0.696 -0.561,0.326 -1.13,0.657 -1.614,0.902l-1.921 1.035c-0.574,0.346 -1.192,0.679 -1.768,0.989l-0.131 0.071c-0.378,0.204 -0.764,0.424 -1.147,0.643 -0.248,0.141 -0.494,0.283 -0.743,0.421l-3.775 2.138c-0.114,0.065 -0.227,0.124 -0.34,0.183 -0.166,0.086 -0.337,0.175 -0.49,0.269 -0.371,0.228 -0.639,0.49 -0.427,0.835 0.109,0.177 0.871,0.617 1.379,0.911 0.165,0.095 0.304,0.175 0.389,0.228 0.321,0.201 0.645,0.393 0.969,0.585 0.285,0.17 0.57,0.339 0.874,0.527l6.015 3.642c0.778,0.477 1.258,0.734 1.738,0.748 0.481,0.014 0.995,-0.213 1.846,-0.703l5.665 -3.254 0.545 -0.315c0.437,-0.251 0.867,-0.499 1.325,-0.771 0.491,-0.291 1.061,-0.613 1.633,-0.936 0.74,-0.417 1.483,-0.837 2.115,-1.228 0.364,-0.226 0.722,-0.425 1.078,-0.624 0.264,-0.148 0.527,-0.295 0.802,-0.458 0.323,-0.191 0.644,-0.376 0.969,-0.562 0.314,-0.179 0.631,-0.361 0.904,-0.522 0.138,-0.081 0.282,-0.159 0.43,-0.239zm-11.551 2.43l0.001 0.012c0.013,0.049 0.068,0.106 0.139,0.161 0.127,0.1 0.295,0.184 0.397,0.228 0.318,0.137 0.741,0.187 1.142,0.133 0.354,-0.048 0.686,-0.177 0.901,-0.399l0.028 -0.028c0.039,-0.039 0.079,-0.078 0.058,-0.136 -0.062,-0.177 -0.244,-0.321 -0.477,-0.422 -0.281,-0.124 -0.628,-0.182 -0.935,-0.165 -0.138,0.008 -0.277,0.031 -0.408,0.065 -0.248,0.063 -0.473,0.166 -0.633,0.282 -0.135,0.097 -0.217,0.194 -0.213,0.269zm-5.788 -20.054c0.049,-0.081 0.096,-0.138 0.143,-0.178 -0.246,-0.058 -0.455,-0.09 -0.511,-0.057 -0.289,0.168 -0.267,0.919 -0.251,1.463l0.006 0.188c0.212,-0.01 0.391,-0.043 0.561,-0.093 0.209,-0.062 0.408,-0.152 0.639,-0.262 0.197,-0.093 0.341,-0.197 0.422,-0.344 0.076,-0.137 0.102,-0.322 0.073,-0.581 -0.032,-0.017 -0.071,-0.034 -0.116,-0.053l0.004 0.012c0.04,0.148 0.045,0.295 0.018,0.423 -0.03,0.14 -0.098,0.259 -0.2,0.336 -0.147,0.111 -0.306,0.137 -0.45,0.104 -0.096,-0.023 -0.185,-0.072 -0.257,-0.141 -0.07,-0.068 -0.125,-0.154 -0.157,-0.252 -0.055,-0.168 -0.043,-0.369 0.076,-0.565zm5.386 20.452c-0.128,-0.167 -0.205,-0.371 -0.205,-0.627 0,-0.205 0.08,-0.394 0.2,-0.556 0.04,-0.054 0.084,-0.104 0.13,-0.152l-0.506 -0.263 -1.637 0.935c0.292,0.188 0.969,0.563 1.41,0.807l0.277 0.155c0.037,-0.02 0.066,-0.038 0.093,-0.055 0.075,-0.047 0.139,-0.087 0.276,-0.123l0.056 -0.014c-0.034,-0.033 -0.065,-0.069 -0.094,-0.107zm0.483 0.383c-0.089,-0.046 -0.174,-0.098 -0.252,-0.156l-0.016 0.069c-0.039,0.162 -0.088,0.205 -0.155,0.234 0.141,0.097 0.242,0.147 0.318,0.184 0.277,0.138 0.296,0.147 0.388,0.788 0.535,0.31 1.014,0.367 1.478,0.274 0.493,-0.099 0.979,-0.367 1.497,-0.683 0.706,-0.432 1.461,-0.86 2.205,-1.283 0.469,-0.266 0.933,-0.53 1.369,-0.785l0.155 -0.088c0.152,-0.086 0.365,-0.207 0.512,-0.298 -0.449,-0.259 -1.783,-0.972 -3.066,-1.645 -0.636,-0.333 -1.257,-0.655 -1.751,-0.906l-0.12 0.237c-0.093,0.183 -0.305,0.292 -0.48,0.383 -0.038,0.019 -0.074,0.038 -0.11,0.058l-0.088 0.051c-0.058,0.034 -0.113,0.066 -0.175,0.099l-0.067 0.048c0.305,0.2 0.675,0.401 1.018,0.587 0.16,0.087 0.313,0.17 0.445,0.245l0.044 0.025c0.161,0.091 0.23,0.131 0.262,0.128 0.018,-0.001 0.062,-0.03 0.138,-0.081 0.058,-0.038 0.13,-0.086 0.226,-0.143l0.118 -0.072c0.216,-0.132 0.547,-0.334 0.732,-0.385l0.193 -0.054 -0.01 0.2c-0.001,0.024 0,0.028 0.001,0.03 0.014,0.047 0.019,0.072 -0.017,0.127l0 0.002c-0.028,0.041 -0.045,0.047 -0.078,0.059l-0.002 0.001c-0.006,0.002 -0.021,0.007 -0.063,0.036 -0.009,0.006 -0.041,0.022 -0.079,0.041l-0.083 0.043 -0.711 0.429c0.228,0.146 0.617,0.364 0.931,0.54 0.15,0.085 0.284,0.16 0.394,0.224 0.107,0.063 0.188,0.102 0.247,0.13 0.184,0.087 0.227,0.107 0.255,0.313l0.028 0.212 -0.207 -0.052c-0.169,-0.043 -0.363,-0.169 -0.525,-0.274 -0.043,-0.028 -0.083,-0.054 -0.13,-0.082 -0.101,-0.061 -0.216,-0.126 -0.333,-0.192 -0.096,-0.055 -0.196,-0.111 -0.28,-0.161l-0.197 -0.112c-0.131,-0.075 -0.26,-0.148 -0.421,-0.25 -0.156,-0.1 -0.184,-0.079 -0.228,-0.046 -0.07,0.053 -0.156,0.119 -0.328,0.15l-0.144 0.026c0.164,0.147 0.277,0.314 0.338,0.488 0.073,0.204 0.075,0.417 0.007,0.62 -0.067,0.198 -0.2,0.384 -0.4,0.539 -0.326,0.253 -0.836,0.427 -1.526,0.432 -0.227,0.002 -0.443,-0.024 -0.651,-0.075 -0.209,-0.051 -0.41,-0.128 -0.606,-0.229zm2.574 -1.967c0.075,0.044 0.145,0.093 0.207,0.144l0.033 -0.152c0.011,-0.048 0.011,-0.059 0.011,-0.063 -0.001,-0.038 0,-0.057 0.029,-0.096 0.051,-0.068 0.073,-0.059 0.119,-0.059l0.003 0.001c0.003,0 -0.008,0 0.008,-0.015 -0.231,-0.141 -0.63,-0.374 -0.994,-0.58 -0.386,-0.219 -0.72,-0.406 -0.735,-0.408 -0.016,0.002 -0.404,0.218 -0.826,0.458 -0.343,0.194 -0.7,0.403 -0.906,0.53 0.084,0.028 0.119,0.05 0.173,0.241l0.045 0.157c0.096,-0.083 0.198,-0.153 0.295,-0.207 0.14,-0.076 0.358,-0.144 0.589,-0.192 0.235,-0.049 0.488,-0.077 0.684,-0.073 0.236,0.004 0.455,0.026 0.662,0.074 0.212,0.049 0.411,0.126 0.603,0.24zm-4.421 -8.059c0.782,-0.467 1.65,-0.987 2.523,-1.051 0.494,-0.037 0.941,0.013 1.356,0.123 0.413,0.108 0.792,0.276 1.153,0.476 0.989,0.548 2.005,1.081 3.024,1.617 0.97,0.509 1.944,1.021 2.91,1.553 0.304,0.168 0.616,0.33 0.926,0.492 0.355,0.184 0.708,0.368 1.065,0.569 0.127,0.071 0.273,0.146 0.433,0.227 0.539,0.276 1.225,0.626 1.471,0.96 0.129,0.175 0.221,0.412 0.239,0.655 0.016,0.217 -0.026,0.441 -0.15,0.636 -0.231,0.364 -0.475,0.501 -0.849,0.713l-0.04 0.023c-0.417,0.236 -0.832,0.476 -1.251,0.718l-0.656 0.379c-0.264,0.151 -0.526,0.305 -0.785,0.458 -0.388,0.227 -0.771,0.453 -1.146,0.663l-1.912 1.091c-0.677,0.411 -1.347,0.791 -2.015,1.17 -0.607,0.344 -1.214,0.688 -1.814,1.048 -0.674,0.404 -1.351,0.784 -2.026,1.163 -0.617,0.346 -1.232,0.692 -1.825,1.044 -0.313,0.186 -0.635,0.376 -0.962,0.567 -0.328,0.191 -0.653,0.378 -0.969,0.555 -0.179,0.101 -0.357,0.205 -0.526,0.303 -1.37,0.801 -2.158,1.261 -3.967,0.096 -0.703,-0.453 -1.5,-0.921 -2.307,-1.395 -0.837,-0.491 -1.686,-0.988 -2.441,-1.475l-3.387 -2.039c-0.422,-0.253 -0.851,-0.511 -1.319,-0.784 -0.267,-0.156 -0.466,-0.345 -0.585,-0.551 -0.083,-0.144 -0.126,-0.295 -0.127,-0.45 -0.002,-0.155 0.04,-0.311 0.127,-0.461 0.119,-0.202 0.321,-0.396 0.618,-0.567l0.264 -0.152c0.551,-0.318 1.091,-0.63 1.651,-0.939 1.088,-0.601 2.154,-1.204 3.222,-1.809 1.509,-0.854 3.021,-1.71 4.546,-2.532l4.87 -2.71c0.22,-0.119 0.437,-0.249 0.661,-0.384zm-4.929 7.317c0.233,-0.134 0.355,-0.203 0.629,-0.209l-0.191 -1.766c-0.207,0.157 -0.514,0.332 -0.827,0.511 -0.508,0.29 -1.035,0.591 -1.053,0.703 -0.015,0.089 0.14,0.17 0.262,0.233 0.039,0.02 0.075,0.039 0.105,0.056 0.144,0.086 0.277,0.162 0.418,0.242l0.166 0.096c0.071,0.041 0.121,0.077 0.167,0.11 0.098,0.071 0.162,0.116 0.301,0.037l0.023 -0.013zm7.063 -0.388c0.154,-0.092 0.381,-0.228 0.575,-0.331 -0.024,-0.012 -0.052,-0.027 -0.087,-0.047l-0.015 -0.008c-0.091,-0.052 -0.167,-0.095 -0.248,-0.137l-0.102 -0.05c-0.192,-0.093 -0.4,-0.193 -0.469,-0.372l-0.086 -0.224 0.237 0.027c0.172,0.02 0.497,0.21 0.793,0.384 0.139,0.082 0.271,0.159 0.371,0.21 0.133,-0.07 0.273,-0.155 0.413,-0.239 0.264,-0.158 0.526,-0.315 0.719,-0.377l0.219 -0.072c-0.502,-0.254 -0.859,-0.427 -0.941,-0.451 -0.335,-0.094 -0.63,-0.07 -0.899,0.011 -0.278,0.085 -0.534,0.232 -0.775,0.374 -0.225,0.132 -0.445,0.257 -0.665,0.381 -0.269,0.151 -0.537,0.302 -0.802,0.462 -0.229,0.138 -0.483,0.283 -0.747,0.432l0.084 0.017c0.082,0.016 0.215,0.075 0.356,0.149 0.207,0.107 0.444,0.249 0.556,0.318 0.088,0.054 0.151,0.098 0.202,0.133 0.072,0.05 0.113,0.078 0.13,0.078 0.031,0.002 0.103,-0.04 0.265,-0.135l0.4 -0.232c0.166,-0.096 0.332,-0.191 0.484,-0.282l0.032 -0.019zm-2.581 0.199l-0.075 -0.143 -0.303 0.169c-0.481,0.269 -0.96,0.536 -1.353,0.782 -0.048,0.03 -0.089,0.052 -0.124,0.072l-0.028 0.015c0.187,0.092 0.381,0.209 0.56,0.317l0.147 0.089c0.123,0.073 0.221,0.136 0.3,0.187 0.217,0.139 0.261,0.168 0.404,0.077 0.1,-0.065 0.314,-0.184 0.558,-0.321 0.335,-0.188 0.729,-0.409 0.943,-0.544l-0.71 -0.422 -0.083 -0.047c-0.064,-0.035 -0.099,-0.055 -0.132,-0.083 -0.047,-0.039 -0.063,-0.068 -0.095,-0.131l-0.009 -0.017zm-3.456 -0.536c0.018,0.214 0.035,0.42 0.05,0.582 0.115,0.074 0.299,0.168 0.468,0.254 0.114,0.059 0.223,0.115 0.292,0.153 0.089,0.05 0.154,0.09 0.208,0.123 0.088,0.055 0.136,0.084 0.158,0.084 0.035,0.001 0.107,-0.042 0.263,-0.135 0.862,-0.514 1.748,-1.005 2.62,-1.507 0.182,-0.1 0.391,-0.226 0.614,-0.361 0.658,-0.4 1.434,-0.87 2.024,-0.956l-0.013 -0.334c-0.05,-1.229 -0.169,-4.134 -0.085,-4.328l0.007 -0.017c-0.684,0.069 -1.174,0.362 -1.672,0.66 -0.114,0.069 -0.229,0.138 -0.344,0.203 -0.47,0.266 -0.958,0.533 -1.448,0.8 -0.794,0.435 -1.595,0.872 -2.37,1.338 -0.209,0.126 -0.432,0.245 -0.659,0.366l-0.301 0.162c-0.326,0.178 -0.273,0.285 -0.194,0.442 0.052,0.106 0.112,0.227 0.142,0.381 0.114,0.602 0.181,1.387 0.24,2.09zm8.476 -5.928c-0.494,-0.266 -0.982,-0.53 -1.631,-0.526 0.069,0.139 0.124,0.98 0.158,1.926 0.039,1.071 0.063,2.296 0.052,2.752 0.191,0.01 0.357,0.036 0.515,0.079 0.199,0.055 0.381,0.135 0.58,0.242 0.367,0.198 0.764,0.402 1.167,0.608 0.628,0.322 1.269,0.651 1.771,0.942l2.403 1.291c0.159,0.083 0.178,0.071 0.264,0.015 0.031,-0.02 0.067,-0.043 0.114,-0.071 0.15,-0.088 0.299,-0.173 0.448,-0.258 0.173,-0.099 0.346,-0.198 0.519,-0.301 0.299,-0.178 0.613,-0.363 0.933,-0.549 0.311,-0.182 0.628,-0.364 0.943,-0.538l0.008 -0.005c0.254,-0.141 0.608,-0.338 0.588,-0.663 -0.017,-0.275 -0.267,-0.4 -0.512,-0.522 -0.065,-0.032 -0.129,-0.064 -0.198,-0.104 -0.342,-0.194 -0.71,-0.386 -1.083,-0.58 -0.272,-0.141 -0.546,-0.283 -0.845,-0.447 -0.886,-0.484 -1.911,-1.041 -2.933,-1.586 -1.016,-0.543 -2.034,-1.078 -2.916,-1.523 -0.118,-0.059 -0.231,-0.121 -0.345,-0.182zm-10.271 7.087c0.036,-0.024 0.079,-0.052 0.135,-0.083 -0.186,-0.121 -0.5,-0.301 -0.735,-0.435 -0.125,-0.072 -0.228,-0.131 -0.289,-0.17 -0.512,-0.321 -0.547,-0.657 -0.344,-0.979 0.235,-0.374 0.83,-0.698 1.286,-0.946 0.131,-0.071 0.25,-0.136 0.34,-0.191 0.655,-0.396 0.632,-0.447 0.577,-0.569 -0.043,-0.095 -0.096,-0.212 -0.103,-0.399 -0.017,-0.463 0.412,-0.688 0.789,-0.884 0.102,-0.053 0.199,-0.105 0.279,-0.157 0.281,-0.187 0.688,-0.4 1.035,-0.581l0.226 -0.12c0.451,-0.239 0.896,-0.496 1.345,-0.756 0.362,-0.21 0.727,-0.421 1.102,-0.627 0.178,-0.097 0.354,-0.2 0.529,-0.303 0.703,-0.413 1.396,-0.821 2.252,-0.876 0.303,-0.019 0.6,0.002 0.882,0.061 0.284,0.06 0.553,0.159 0.799,0.294l8.812 4.681c0.038,0.019 0.076,0.04 0.113,0.063 0.226,0.137 0.401,0.328 0.489,0.548 0.092,0.227 0.093,0.482 -0.033,0.74 -0.014,0.029 -0.031,0.06 -0.049,0.09 -0.19,0.312 -1.197,0.875 -1.885,1.26 -0.208,0.116 -0.386,0.216 -0.502,0.286 -0.378,0.23 -0.781,0.455 -1.181,0.677l-0.056 0.032 -4.877 2.84c-1.722,1.029 -2.516,0.704 -3.172,0.436 -0.4,-0.164 -0.742,-0.303 -1.249,-0.005l-2.432 1.407c-0.064,0.037 -0.147,0.09 -0.24,0.148 -0.364,0.23 -0.855,0.541 -1.088,0.418l-0.075 -0.04 -0.002 -0.085c-0.006,-0.254 0.132,-0.316 0.308,-0.395 0.042,-0.019 0.087,-0.039 0.124,-0.062l2.939 -1.705c-0.213,-0.134 -0.616,-0.354 -0.878,-0.497l-0.216 -0.119 -2.579 -1.483c-0.091,-0.05 -0.175,-0.104 -0.259,-0.157 -0.299,-0.192 -0.608,-0.39 -0.972,-0.203 -0.561,0.288 -1.133,0.629 -1.698,0.966 -0.282,0.168 -0.563,0.336 -0.849,0.5l-0.372 0.219c-0.7,0.414 -2.016,1.193 -2.218,1.221l-0.132 0.018 -0.029 -0.13c-0.009,-0.039 -0.016,-0.083 -0.022,-0.13l-0.098 -0.002c-0.241,-0.004 -0.352,0.066 -0.463,0.136 -0.144,0.091 -0.288,0.181 -0.601,0.182 -0.41,0.001 -0.659,-0.15 -0.923,-0.31 -0.047,-0.028 -0.094,-0.057 -0.151,-0.089l-2.585 -1.582 -0.028 -0.023c-0.09,-0.092 -0.151,-0.211 -0.167,-0.34 -0.013,-0.119 0.011,-0.244 0.087,-0.363 0.095,-0.15 0.997,-0.641 1.637,-0.991 0.263,-0.143 0.482,-0.262 0.572,-0.316 0.412,-0.25 0.822,-0.476 1.23,-0.701 0.176,-0.096 0.351,-0.193 0.546,-0.302 0.134,-0.076 0.255,-0.149 0.376,-0.221 0.567,-0.341 1.123,-0.676 1.655,-0.542 0.248,0.062 1.3,0.698 2.04,1.146 0.286,0.172 0.525,0.317 0.642,0.384 0.312,0.177 0.322,0.171 0.406,0.116zm7.277 3.21c-0.077,-0.173 -0.267,-0.306 -0.515,-0.441 0.169,0.129 0.275,0.232 0.29,0.297l-0.22 0.155c-0.516,-0.333 -1.092,-0.655 -1.669,-0.977 -0.337,-0.189 -0.676,-0.378 -1.009,-0.573l-0.187 -0.11c-0.552,-0.328 -1.883,-1.116 -2.356,-1.311l-0.009 0.44c0.131,0.027 0.271,0.082 0.432,0.171 0.44,0.242 0.921,0.527 1.407,0.815 0.603,0.358 1.215,0.721 1.758,1.009 0.145,0.076 0.269,0.151 0.391,0.225 0.084,0.05 0.168,0.1 0.255,0.15 0.056,0.032 0.12,0.07 0.187,0.111 0.134,0.08 0.285,0.172 0.394,0.221l0.047 -0.024c0.12,-0.067 0.31,-0.173 0.804,-0.158zm-6.89 -2.092c0.361,-0.229 0.622,-0.394 0.892,-0.436 -0.031,-0.129 -0.033,-0.285 -0.031,-0.428 -0.203,0.09 -0.595,0.298 -1.061,0.555 -1.162,0.642 -2.743,1.586 -3.083,1.79 -0.157,0.095 -0.299,0.171 -0.419,0.235 -0.363,0.195 -0.484,0.26 -0.475,0.712 0.215,-0.102 0.491,-0.272 0.737,-0.423 0.137,-0.084 0.264,-0.162 0.374,-0.224 0.126,-0.071 0.245,-0.137 0.366,-0.203 0.306,-0.167 0.627,-0.342 0.89,-0.516 0.269,-0.178 0.554,-0.335 0.841,-0.493 0.149,-0.081 0.298,-0.164 0.428,-0.238 0.204,-0.118 0.383,-0.231 0.541,-0.331zm-19.007 -1.772l-0.787 -0.477c-0.007,0.17 -0.009,0.395 -0.006,0.636 0.007,0.554 0.035,1.199 0.054,1.476 0.009,0.131 0.045,0.152 0.159,0.216l0.166 0.093c0.094,0.052 0.186,0.102 0.261,0.151 0.179,0.118 0.346,0.221 0.517,0.326l12.309 7.587c1.181,0.696 2.402,1.461 3.622,2.225 1.073,0.672 2.146,1.344 3.219,1.984l1.988 1.237 0.011 -2.184c-0.422,-0.216 -1.791,-1.081 -2.874,-1.766 -0.589,-0.373 -1.092,-0.691 -1.312,-0.822 -0.2,-0.1 -2.796,-1.701 -2.838,-1.746 -0.237,-0.149 -0.467,-0.287 -0.692,-0.422 -0.24,-0.144 -0.474,-0.285 -0.71,-0.435l-1.437 -0.874c-0.123,-0.076 -0.235,-0.147 -0.346,-0.218 -0.117,-0.075 -0.233,-0.149 -0.362,-0.227 -3.437,-2.234 -7.085,-4.352 -10.585,-6.532 -0.102,-0.074 -0.172,-0.116 -0.258,-0.167l-0.099 -0.061zm18.091 -15.983l-0.16 -0.063 0.009 9.037 0.213 0.095 -0.062 -9.069zm5.102 4.189c-0.503,-0.278 -0.941,-0.519 -1.153,-0.627 -0.019,0.25 -0.034,0.801 -0.044,1.423 -0.019,1.23 -0.015,2.714 0.004,2.79 0.01,0.042 0.055,0.092 0.107,0.15 0.121,0.134 0.269,0.298 0.307,0.626 0.024,0.206 -0.029,0.399 -0.109,0.566 -0.076,0.158 -0.179,0.292 -0.263,0.387 -0.152,0.172 -0.402,0.353 -0.694,0.503 -0.27,0.14 -0.58,0.255 -0.883,0.314 -0.367,0.071 -0.759,0.116 -1.151,0.112 -0.343,-0.003 -0.685,-0.043 -1.007,-0.133 -0.309,-0.087 -0.64,-0.219 -0.922,-0.369 -0.268,-0.142 -0.496,-0.303 -0.63,-0.464 -0.609,-0.733 -0.348,-1.155 -0.147,-1.478 0.054,-0.088 0.102,-0.166 0.11,-0.224 0.021,-0.159 0.028,-0.537 0.026,-0.944 -0.002,-0.381 -0.013,-0.788 -0.026,-1.062l-2.042 1.079c-0.323,0.164 -0.622,0.327 -0.931,0.495 -1.529,0.832 -3.073,1.644 -4.609,2.464 -0.142,0.076 -0.296,0.164 -0.449,0.252 -0.206,0.117 -0.413,0.236 -0.621,0.339l-4.435 2.36c-0.349,0.197 -0.719,0.386 -1.088,0.576 -0.375,0.192 -0.751,0.384 -1.114,0.591 -0.067,0.038 -0.219,0.116 -0.418,0.218 -0.493,0.251 -1.274,0.65 -1.59,0.855l7.578 4.674c0.125,0.083 0.254,0.157 0.383,0.232 0.1,0.058 0.2,0.116 0.307,0.183l13.999 8.647c0.161,0.1 0.366,-0.031 0.668,-0.225 0.093,-0.06 0.194,-0.125 0.317,-0.198l1.09 -0.617c0.499,-0.315 1.143,-0.679 1.768,-1.033 0.39,-0.22 0.773,-0.437 1.1,-0.629l14.357 -8.285c0.187,-0.112 0.583,-0.338 1.048,-0.603 0.846,-0.482 1.92,-1.094 2.325,-1.352 -0.426,-0.252 -1.555,-0.872 -2.394,-1.331 -0.45,-0.247 -0.819,-0.45 -0.948,-0.523 -0.127,-0.073 -0.238,-0.135 -0.347,-0.195 -0.116,-0.064 -0.232,-0.128 -0.363,-0.204 -0.215,-0.124 -0.442,-0.241 -0.669,-0.359 -0.252,-0.13 -0.503,-0.261 -0.743,-0.403 -0.573,-0.339 -1.153,-0.643 -1.732,-0.946 -0.378,-0.199 -0.756,-0.397 -1.113,-0.594l-2.84 -1.541c-0.116,-0.057 -0.24,-0.121 -0.362,-0.186 -0.14,-0.075 -0.266,-0.145 -0.37,-0.206 -0.562,-0.328 -1.226,-0.674 -1.886,-1.018 -0.586,-0.305 -1.17,-0.61 -1.688,-0.905l-2.131 -1.14c-0.113,-0.059 -0.209,-0.078 -0.302,-0.097 -0.16,-0.031 -0.313,-0.062 -0.522,-0.227 -0.12,-0.095 -0.151,-0.15 -0.184,-0.207 -0.015,-0.027 -0.031,-0.055 -0.079,-0.098 -0.029,-0.026 -1.401,-0.806 -2.495,-1.413zm4.934 0.197c-0.185,0.036 -0.334,0.066 -0.567,0.074l-0.015 0.552c0.126,-0.008 0.24,-0.021 0.349,-0.043 0.118,-0.024 0.228,-0.058 0.339,-0.107l-0.006 -0.496 -0.1 0.02zm-8.388 2.07c0.002,0.951 0.003,1.905 -0.02,2.847 0.213,-0.025 0.446,-0.064 0.662,-0.122 0.193,-0.053 0.372,-0.12 0.509,-0.203 0.031,-0.195 0.012,-1.89 0,-2.985 -0.004,-0.381 -0.008,-0.691 -0.007,-0.845l0 -0.105c0.001,-0.183 0.001,-0.365 0.004,-0.546 0,-0.068 -0.002,-0.138 -0.004,-0.206l-0.002 -0.083c-0.003,-0.12 0.001,-0.193 0.023,-0.261l0.017 -0.041 -0.019 -0.008c0.007,-0.569 0.091,-0.709 0.248,-0.974l0.036 -0.058 -0.093 -0.037c-0.36,-0.144 -0.935,-0.373 -1.159,0.077 -0.21,0.421 -0.202,1.098 -0.196,1.671 0.002,0.118 0.003,0.233 0.003,0.34 -0.003,0.511 -0.003,1.025 -0.002,1.539zm1.531 -2.621l-0.004 0.012 0.018 0.007 -0.016 4.737c0.06,-0.164 0.058,-0.367 0.055,-0.643l-0.002 -0.212c0,-0.324 0.003,-0.647 0.005,-0.969l0.003 -0.695c0.002,-0.891 0.005,-1.771 0.019,-2.661 -0.011,0.062 -0.019,0.122 -0.025,0.171l-0.016 0.114c-0.005,0.036 -0.011,0.071 -0.016,0.083l-0.021 0.056zm0.227 -2.201c-1.246,-0.623 -2.466,-1.22 -3.022,-1.451l0.001 0.851 0.037 8.162 0.081 0.018c0.211,0.048 0.402,0.092 0.635,0.097 -0.008,-0.77 -0.016,-2.619 -0.005,-4.075 0.008,-0.975 0.024,-1.777 0.055,-1.971 0.164,-1.029 0.715,-1.261 1.405,-1.151 0.517,0.082 1.105,0.371 1.654,0.641l0.323 0.157c0.186,0.088 0.378,0.182 0.576,0.282 0.176,0.088 0.355,0.181 0.535,0.277 0.179,0.096 0.371,0.183 0.564,0.271 0.187,0.084 0.374,0.169 0.559,0.267 0.19,0.1 0.683,0.357 1.173,0.584 0.381,0.177 0.756,0.336 0.97,0.386l0.022 -0.563c-0.512,-0.16 -1.132,-0.497 -1.659,-0.784 -0.17,-0.092 -0.33,-0.179 -0.482,-0.258 -0.549,-0.282 -2.017,-1.036 -3.422,-1.74zm-0.974 -1.572l-0.038 0.01c0.207,0.089 0.451,0.201 0.712,0.322 0.522,0.241 1.115,0.514 1.604,0.688 0.332,0.118 1.285,0.44 2.045,0.624 0.225,0.055 0.43,0.097 0.592,0.119l-0.116 -0.074c-0.329,-0.202 -0.757,-0.415 -0.916,-0.486 -0.369,-0.168 -0.719,-0.366 -1.075,-0.567l-0.349 -0.196c-0.192,-0.106 -0.39,-0.209 -0.589,-0.312 -0.285,-0.147 -0.57,-0.295 -0.831,-0.449l-0.101 -0.061c-0.033,-0.021 0.008,-0.042 -0.019,-0.036 -0.005,0.002 -0.007,0.008 -0.029,0.023 -0.071,0.05 -0.193,0.135 -0.448,0.252 -0.133,0.061 -0.289,0.103 -0.442,0.143zm5.353 1.572c0.174,0.111 0.222,0.142 0.148,0.439l-0.018 0.071 -0.068 0.028c-0.305,0.128 -1.03,-0.013 -1.851,-0.26 -1.205,-0.363 -2.648,-0.954 -3.216,-1.233 -0.121,-0.059 -0.251,-0.118 -0.382,-0.177 -0.104,-0.047 -0.21,-0.095 -0.342,-0.158 -0.087,-0.042 -0.157,-0.071 -0.219,-0.091 0.577,0.272 1.276,0.633 1.929,0.97 0.376,0.194 0.737,0.381 1.068,0.546l3.65 1.852c0.298,0.144 0.606,0.281 0.929,0.318 0.314,0.036 0.652,-0.021 1.028,-0.259l0.261 -0.197c0.093,-0.076 0.095,-0.147 0.041,-0.214 -0.15,-0.187 -0.561,-0.388 -0.977,-0.591 -0.23,-0.113 -0.462,-0.226 -0.659,-0.342l-4.616 -2.539c-0.145,-0.072 -0.296,-0.16 -0.443,-0.246 -0.138,-0.08 -0.272,-0.158 -0.391,-0.218l-0.031 0.046c0.087,0.043 0.176,0.094 0.262,0.143 0.056,0.031 0.11,0.063 0.154,0.086 0.166,0.089 0.452,0.24 0.793,0.42 1.035,0.545 2.583,1.361 2.913,1.581l0.037 0.025zm-7.49 -3.751c-0.018,0.857 -0.025,1.176 0.784,1.316 -0.003,-0.093 -0.007,-0.187 -0.011,-0.28 -0.026,-0.621 -0.049,-1.18 0.383,-1.486 -0.06,-0.018 -0.122,-0.035 -0.185,-0.051 -0.186,-0.046 -0.369,-0.081 -0.486,-0.086 -0.239,-0.011 -0.361,0.007 -0.412,0.066 -0.055,0.065 -0.066,0.21 -0.071,0.44l-0.002 0.081zm-0.29 1.22l0.061 0.026c-0.03,-0.048 -0.057,-0.102 -0.078,-0.164 -0.05,-0.147 -0.08,-0.527 -0.082,-0.89 -0.001,-0.338 0.022,-0.673 0.077,-0.806 0.12,-0.289 0.417,-0.369 0.742,-0.359 0.286,0.008 0.593,0.087 0.794,0.141l0.503 0.134c-0.693,-0.226 -1.412,-0.438 -2.162,-0.603 0.012,0.247 0.016,0.555 0.015,0.872 -0.002,0.493 -0.018,1.002 -0.037,1.328l-0.006 0.093c-0.007,0.095 -0.01,0.137 -0.008,0.139 0.016,0.017 0.075,0.043 0.181,0.089zm0.132 -3.454c-0.247,0.089 -0.452,0.191 -0.542,0.296 0.287,0.116 1.013,0.299 1.53,0.429 0.207,0.052 0.382,0.096 0.487,0.126 0.694,0.196 1.447,0.462 2.191,0.724 0.73,0.257 1.45,0.512 2.083,0.689 0.614,0.171 0.83,0.051 1.327,-0.227l0.139 -0.077c0.039,-0.022 0.075,-0.039 0.107,-0.055 0.039,-0.02 0.072,-0.036 0.121,-0.068l0.007 -0.006c-0.455,-0.135 -1.277,-0.447 -2.181,-0.791 -1.552,-0.59 -3.353,-1.275 -3.886,-1.294 -0.311,-0.012 -0.912,0.085 -1.383,0.254zm-1.921 9.422c0.139,-0.068 0.276,-0.135 0.402,-0.226l-0.006 -5.525c0.002,-0.218 0.061,-0.331 0.108,-0.423 0.032,-0.062 0.055,-0.106 -0.013,-0.232l-0.04 -0.069c-0.028,-0.047 -0.043,-0.072 -0.054,-0.122 -0.01,-0.046 -0.01,-0.092 -0.009,-0.191l0.001 -0.066c0.001,-0.093 0.004,-0.181 0.007,-0.27l0.005 -0.196c0.005,-0.236 -0.003,-0.461 -0.009,-0.671 -0.025,-0.76 -0.043,-1.336 0.49,-1.771 0.058,-0.048 0.163,-0.112 0.278,-0.174 0.124,-0.068 0.261,-0.135 0.359,-0.175 0.593,-0.245 1.094,-0.349 1.599,-0.339 0.503,0.01 1.003,0.132 1.598,0.339 0.463,0.161 0.914,0.319 1.366,0.478l1.369 0.483c0.126,0.045 0.278,0.096 0.452,0.154 0.773,0.258 1.973,0.659 2.246,0.94 0.093,0.096 0.172,0.24 0.213,0.401 0.037,0.142 0.046,0.3 0.009,0.451 -0.026,0.108 -0.089,0.212 -0.166,0.305 -0.099,0.12 -0.222,0.224 -0.309,0.287 -1.388,1.011 -2.263,0.672 -3.187,0.314 -0.298,-0.116 -0.603,-0.234 -0.931,-0.302l0.002 0.205c0.007,0.012 0.009,-0.004 0.038,0.007 0.069,0.027 0.172,0.066 0.325,0.158 0.29,0.174 0.671,0.373 1.05,0.571 0.368,0.192 0.736,0.384 1.017,0.55l2.738 1.507 0.46 0.251c0.324,0.175 0.64,0.346 0.944,0.52 0.067,0.039 0.12,0.067 0.172,0.096 0.474,0.261 0.833,0.458 0.864,1.188l0.002 0.03c0.045,1.04 0.05,1.162 -0.607,1.667 -0.067,0.052 -0.124,0.126 -0.184,0.205 -0.16,0.209 -0.343,0.448 -0.824,0.572l1.079 0.589c0.219,0.116 0.426,0.226 0.693,0.37 0.231,0.124 0.457,0.249 0.688,0.378 0.376,0.211 0.766,0.414 1.157,0.618 0.537,0.279 1.077,0.56 1.606,0.876 0.121,0.073 0.25,0.139 0.383,0.207 0.098,0.051 0.198,0.102 0.305,0.162 0.11,0.061 0.223,0.123 0.342,0.187 2.106,1.117 4.213,2.262 6.296,3.418 0.326,0.181 0.643,0.356 0.957,0.537l1.366 0.759 0.426 0.231c0.319,0.172 0.647,0.35 0.948,0.528 0.237,0.142 0.423,0.235 0.564,0.305 0.475,0.237 0.514,0.257 0.504,0.892 -0.008,0.503 -0.008,1.009 -0.009,1.512l-0.002 0.613c0,0.075 0.002,0.147 0.004,0.212 0.012,0.337 0.018,0.532 -0.301,0.757l-1.363 0.781c-1.103,0.672 -2.285,1.335 -3.464,1.996 -0.904,0.509 -1.808,1.015 -2.645,1.508 -0.899,0.484 -1.808,1.045 -2.697,1.557 -0.783,0.427 -1.663,0.947 -2.541,1.465 -0.999,0.59 -1.995,1.179 -2.866,1.639l-5.395 3.106c-0.28,0.146 -0.58,0.319 -0.873,0.488 -0.179,0.103 -0.356,0.205 -0.485,0.277 -0.177,0.099 -0.318,0.187 -0.431,0.258 -0.49,0.306 -0.539,0.337 -1.114,-0.025 -1.36,-0.854 -2.736,-1.701 -4.111,-2.548l-1.169 -0.72c-0.677,-0.418 -1.445,-0.888 -2.21,-1.357 -1.027,-0.629 -2.05,-1.255 -3.056,-1.88l-1.308 -0.814c-0.598,-0.323 -1.358,-0.812 -2.095,-1.286 -0.69,-0.443 -1.36,-0.874 -1.849,-1.138 -0.427,-0.264 -0.893,-0.582 -1.326,-0.82 -0.256,-0.173 -0.532,-0.334 -0.807,-0.494 -0.168,-0.098 -0.336,-0.196 -0.514,-0.305l-3.654 -2.256c-0.676,-0.402 -0.676,-0.403 -0.666,-0.856 0.001,-0.066 0.003,-0.144 0.001,-0.235l-0.042 -2.128c-0.001,-0.081 -0.003,-0.156 -0.006,-0.221 -0.009,-0.247 -0.013,-0.366 0.099,-0.499 0.09,-0.105 0.239,-0.184 0.527,-0.337 0.121,-0.063 0.268,-0.141 0.447,-0.24l10.388 -5.556c0.208,-0.113 0.442,-0.238 0.691,-0.371l3.464 -1.845c0.232,-0.146 0.52,-0.29 0.807,-0.434 0.199,-0.1 0.397,-0.199 0.584,-0.304l0.337 -0.187 0.352 -0.191c0.068,-0.037 0.139,-0.072 0.209,-0.106z"/>
 </g>
</svg>
