<?xml version="1.0" encoding="UTF-8"?>
<!DOCTYPE svg PUBLIC "-//W3C//DTD SVG 1.1//EN" "http://www.w3.org/Graphics/SVG/1.1/DTD/svg11.dtd">
<!-- Creator: CorelDRAW 2026 -->
<svg xmlns="http://www.w3.org/2000/svg" xml:space="preserve" width="48px" height="48px" version="1.1" style="shape-rendering:geometricPrecision; text-rendering:geometricPrecision; image-rendering:optimizeQuality; fill-rule:evenodd; clip-rule:evenodd"
viewBox="0 0 48 48"
 xmlns:xlink="http://www.w3.org/1999/xlink"
 xmlns:xodm="http://www.corel.com/coreldraw/odm/2003">
 <defs>
  <style type="text/css">
   <![CDATA[
    .fil0 {fill:#2A3141}
   ]]>
  </style>
 </defs>
 <g id="Layer_x0020_1">
  <metadata id="CorelCorpID_0Corel-Layer"/>
  <g id="_2347978051264">
   <path class="fil0" d="M1.743 43.397c-0.111,-0.678 -0.018,-2.408 -0.017,-3.193 0,-1.088 0,-2.175 -0.002,-3.263 -0.003,-3.675 -0.48,-3.313 3.165,-3.322l9.719 0.001c1.026,0 2.309,-0.275 2.459,0.775 0.079,0.548 0.023,5.453 0.022,6.434 -0.003,3.643 0.465,3.337 -3.175,3.341l-9.719 0.003c-0.992,-0.001 -2.291,0.202 -2.452,-0.776zm16.512 0.208c0.07,-0.465 0.096,-8.972 -0.021,-9.517 -0.429,-2.002 -2.541,-1.659 -4.042,-1.658l-11.457 -0.001c-1.115,0.01 -1.966,0.665 -2.15,1.682 -0.119,0.661 -0.042,6.501 -0.041,7.689 0,1.023 -0.153,2.448 0.761,3.098 0.897,0.639 2.141,0.464 3.376,0.463 2.546,-0.002 5.091,-0.002 7.636,-0.002 1.248,0.001 2.584,0.046 3.821,-0.001 1.098,-0.041 1.957,-0.7 2.117,-1.753z"/>
   <path class="fil0" d="M11.301 28.541c-0.184,-0.673 -0.046,-5.38 -0.046,-6.456 0.001,-3.854 -0.339,-3.554 3.006,-3.559l9.789 -0.001c3.013,-0.001 2.535,-0.176 2.532,3.907 0,1.088 -0.002,2.175 -0.001,3.263 0.006,3.878 0.426,3.562 -2.948,3.563l-9.788 -0.001c-1.029,0 -2.279,0.255 -2.544,-0.716zm0.466 -11.144c-0.97,0.171 -1.656,1.049 -1.685,2.186 -0.06,2.378 0.016,5.182 -0.005,7.639 -0.012,1.434 0.01,2.279 1.011,2.896 0.825,0.507 2.443,0.322 3.52,0.324 1.458,0.002 10.919,0.085 11.536,-0.066 0.998,-0.246 1.618,-1.005 1.629,-2.18l0 -7.638c-0.003,-0.957 0.137,-2.279 -0.984,-2.877 -0.953,-0.508 -2.342,-0.327 -3.503,-0.326 -1.557,0.002 -10.796,-0.085 -11.519,0.042z"/>
   <path class="fil0" d="M21.043 13.407l-0.005 -6.387c0,-3.544 -0.351,-3.197 3.22,-3.197l9.58 0.002c2.963,0.005 2.521,-0.183 2.518,3.959 -0.001,1.065 0.002,2.129 -0.001,3.193 -0.01,3.634 0.363,3.219 -3.281,3.223 -2.129,0.003 -4.257,0.003 -6.386,0.002 -1.065,-0.001 -2.129,0.001 -3.194,-0.001 -0.949,-0.002 -2.309,0.24 -2.451,-0.794zm0.621 -10.747c-0.267,0.022 -0.471,0.116 -0.689,0.238 -0.375,0.209 -0.771,0.587 -0.926,0.961 -0.391,0.945 -0.199,3.399 -0.201,4.619 -0.001,1.25 0.004,2.5 0.001,3.749 -0.004,1.519 -0.038,2.181 1.023,2.832 0.808,0.497 2.403,0.314 3.455,0.315 1.561,0 10.705,0.066 11.439,-0.027 1.023,-0.129 1.689,-0.936 1.767,-2.006 0.087,-1.184 0.007,-5.982 0.007,-7.57 -0.001,-0.821 0.09,-1.727 -0.492,-2.373 -0.952,-1.056 -2.164,-0.74 -3.974,-0.74l-7.636 0c-1.139,-0.001 -2.697,-0.086 -3.774,0.002z"/>
   <path class="fil0" d="M22.118 33.66c0.508,-0.176 11.377,-0.044 12.9,-0.042 2.142,0.002 1.773,0.087 1.769,4.642 -0.001,1.088 0.003,2.175 0,3.263 -0.003,1.244 0.226,2.282 -0.577,2.571 -0.623,0.224 -11.314,0.077 -12.924,0.078 -1.124,0.002 -1.843,0.153 -1.83,-1.469 0.009,-1.063 0.001,-2.13 0.001,-3.193 0,-1.088 -0.001,-2.176 -0.001,-3.263 -0.001,-1.05 -0.27,-2.264 0.662,-2.587zm15.789 10.084c0.145,-0.586 0.066,-6.475 0.063,-7.567 -0.003,-1.364 0.204,-2.378 -0.682,-3.172 -0.877,-0.786 -1.897,-0.578 -3.242,-0.575l-11.456 -0.002c-1.174,-0.001 -1.99,0.559 -2.242,1.582 -0.168,0.681 -0.077,6.407 -0.079,7.582 -0.001,1.036 -0.157,1.864 0.29,2.653 0.8,1.411 2.167,1.115 3.629,1.115 2.546,0 5.091,-0.002 7.637,0 1.271,0.001 2.548,0.011 3.818,0 0.607,-0.006 1.127,-0.153 1.525,-0.438 0.249,-0.179 0.622,-0.707 0.739,-1.178z"/>
   <path class="fil0" d="M31.563 18.607c0.493,-0.215 11.437,-0.083 12.966,-0.081 2.159,0.003 1.755,0.229 1.755,4.808 -0.001,1.088 0.003,2.176 0.003,3.263 0,1.026 0.222,2.286 -0.619,2.587 -0.61,0.219 -11.408,0.071 -13.01,0.072 -1.453,0 -1.718,-0.059 -1.714,-1.548l-0.001 -6.526c0.002,-1.43 -0.226,-2.206 0.62,-2.575zm-1.784 2.089l-0.001 7.22c0,2.862 2.111,2.522 4.477,2.524l10.829 0c2.726,0.002 2.395,-2.317 2.393,-4.398 0,-0.802 0.097,-6.493 -0.108,-7.213 -0.271,-0.956 -1.132,-1.476 -2.285,-1.474l-13.12 -0.001c-2.309,-0.001 -2.187,2.03 -2.185,3.342z"/>
   <path class="fil0" d="M2.342 3.889c0.481,-0.151 11.296,-0.067 12.752,-0.063 1.221,0.002 1.89,-0.052 1.889,1.319l0 6.388c-0.001,0.961 0.237,2.33 -0.601,2.606 -0.429,0.142 -11.388,0.065 -12.812,0.061 -1.319,-0.003 -1.872,0.112 -1.864,-1.347l-0.001 -6.388c-0.001,-1.237 -0.231,-2.304 0.637,-2.576zm-0.043 -1.228c-0.953,0.071 -1.722,1.026 -1.763,1.999 -0.083,1.973 0.005,5.402 -0.002,7.567 -0.004,1.453 -0.019,2.178 0.977,2.825 0.728,0.473 2.439,0.319 3.448,0.319 1.542,0 10.75,0.078 11.451,-0.03 0.955,-0.148 1.686,-0.898 1.77,-2 0.089,-1.168 0.008,-5.99 0.009,-7.57 0.001,-1.406 -0.083,-2.239 -1.03,-2.832 -0.73,-0.456 -2.518,-0.282 -3.453,-0.281l-7.637 0c-1.152,0 -2.677,-0.079 -3.77,0.003z"/>
  </g>
 </g>
</svg>
