<?xml version="1.0" encoding="UTF-8"?>
<!DOCTYPE svg PUBLIC "-//W3C//DTD SVG 1.1//EN" "http://www.w3.org/Graphics/SVG/1.1/DTD/svg11.dtd">
<!-- Creator: CorelDRAW 2026 -->
<svg xmlns="http://www.w3.org/2000/svg" xml:space="preserve" width="48px" height="48px" version="1.1" style="shape-rendering:geometricPrecision; text-rendering:geometricPrecision; image-rendering:optimizeQuality; fill-rule:evenodd; clip-rule:evenodd"
viewBox="0 0 48 48"
 xmlns:xlink="http://www.w3.org/1999/xlink"
 xmlns:xodm="http://www.corel.com/coreldraw/odm/2003">
 <defs>
  <style type="text/css">
   <![CDATA[
    .fil1 {fill:#373435}
    .fil0 {fill:#020202}
   ]]>
  </style>
 </defs>
 <g id="Layer_x0020_1">
  <metadata id="CorelCorpID_0Corel-Layer"/>
  <path class="fil0" d="M1.628 26.34l-0.001 -2.547c0.191,0.031 12.809,7.442 14.142,8.212l6.403 3.747c0.119,0.552 0.036,3.235 0.031,4.293 -0.252,-0.078 -0.476,-0.237 -0.681,-0.357 -0.254,-0.149 -0.402,-0.239 -0.657,-0.386 -0.436,-0.249 -0.835,-0.495 -1.271,-0.759 -0.868,-0.526 -1.726,-0.967 -2.579,-1.49 -1.273,-0.778 -3.87,-2.325 -5.128,-3.007l-2.566 -1.5c-0.885,-0.505 -1.706,-0.991 -2.571,-1.496l-3.847 -2.253c-0.339,-0.195 -1.028,-0.532 -1.27,-0.752l-0.005 -1.705zm21.169 13.703l0.008 -4.307c0.304,-0.12 3.745,-2.212 4.397,-2.582l2.948 -1.743c3.888,-2.264 7.911,-4.75 11.77,-6.95 0.484,-0.276 0.978,-0.578 1.469,-0.878l2.984 -1.731 -0.009 4.422c-1.345,0.713 -3.682,2.139 -5.111,2.98l-5.165 3.022c-0.503,0.29 -0.957,0.595 -1.476,0.87l-2.928 1.713c-0.486,0.308 -0.995,0.568 -1.481,0.866l-2.921 1.717c-0.509,0.303 -0.988,0.573 -1.476,0.872 -0.496,0.303 -1.001,0.584 -1.482,0.865 -0.34,0.198 -1.219,0.771 -1.527,0.864zm12.725 -16.875c0.074,-0.104 0.293,-0.235 0.446,-0.266l0.003 0.591c-0.164,-0.042 -0.351,-0.187 -0.449,-0.325zm3.975 -2.34c0.078,-0.076 0.584,-0.366 0.702,-0.421l0 0.799c-0.12,-0.045 -0.647,-0.325 -0.702,-0.378zm-9.321 -1.28l-0.011 0.642 -0.336 -0.266c-0.057,-0.047 -0.046,-0.04 -0.086,-0.084l0.433 -0.292zm6.087 -0.771c1.693,-0.903 1.168,-0.944 2.118,-0.446l2.155 1.128c-0.072,0.106 0.022,0.029 -0.148,0.146l-5.151 2.985c-0.168,0.101 -0.324,0.272 -0.555,0.155l-2.522 -1.447c-0.118,-0.082 -0.038,-0.001 -0.113,-0.106l4.216 -2.415zm-2.546 -1.294c0.231,-0.075 0.513,-0.327 0.725,-0.376l0 0.75c-0.181,-0.014 -0.243,-0.063 -0.396,-0.148l-0.329 -0.226zm-9.412 -1.199l0.002 0.622c-0.202,-0.088 -0.307,-0.203 -0.457,-0.342l0.455 -0.28zm1.954 1.627c0.255,-0.223 1.69,-0.986 2.106,-1.224 0.705,-0.404 1.391,-0.793 2.102,-1.185 1.81,-0.997 1.244,-0.895 2.128,-0.46l2.049 1.086c0.069,0.045 0.057,0.039 0.091,0.072l-2.108 1.24c-0.677,0.395 -1.414,0.82 -2.111,1.227 -0.341,0.199 -0.705,0.405 -1.058,0.611 -0.211,0.122 -0.312,0.25 -0.565,0.13 -0.58,-0.276 -1.823,-1.096 -2.634,-1.497zm13.636 -3.617c0.657,0.2 1.031,0.326 1.582,0.642 0.417,0.24 1.071,0.568 1.359,0.848 -0.111,0.297 -0.319,0.586 -0.467,0.855l-0.907 1.593c-0.118,0.216 -0.34,0.644 -0.473,0.796l-2.909 -1.534 1.815 -3.2zm-11.975 -0.135c0.249,-0.096 0.402,-0.255 0.644,-0.335l-0.018 0.767 -0.652 -0.311c-0.005,-0.003 -0.178,-0.046 0.026,-0.121zm-3.326 -1.956c1.632,-0.89 1.201,-0.955 2.143,-0.429 0.279,0.155 1.934,0.975 2.121,1.15l-4.972 2.887c-0.235,0.144 -0.472,0.299 -0.706,0.407l-2.149 -1.209c-0.27,-0.154 -0.58,-0.28 -0.655,-0.421l4.218 -2.385zm7.711 1.969c0.441,-0.949 1.287,-2.175 1.776,-3.163 0.752,0.06 2.752,1.187 2.982,1.499 -0.164,0.388 -1.78,3.13 -1.871,3.215 -0.296,-0.152 -2.655,-1.36 -2.887,-1.551zm-11.54 1.365l0.037 0.579c0.522,0.255 0.641,-0.186 1.143,0.116 1.263,0.757 0.913,0.338 1.883,1.092 0.321,0.25 0.685,0.659 0.982,0.348 0.178,-0.242 0.084,-1.289 0.085,-1.68 0.043,-0.184 1.723,-1.069 1.938,-1.195 0.37,-0.215 0.299,-0.222 0.674,-0.046 0.281,0.133 1.151,0.697 1.424,0.575 0.392,-0.174 0.221,-1.37 0.23,-1.854 0.085,-0.194 0.442,-0.01 0.902,-1.004 0.342,0.116 1.379,0.791 1.884,1.041 -0.188,0.527 -0.371,0.671 -0.724,0.869 -0.346,0.194 -0.708,0.4 -1.03,0.586 -0.569,0.331 -4.485,2.452 -4.63,2.676 -0.387,0.599 0.602,0.872 1.118,1.212 -0.035,0.963 0.302,0.511 0.885,0.54 0.143,0.007 0.881,0.454 1.043,0.555 0.457,0.286 0.161,-0.101 0.79,0.409l0.687 0.511c0.215,0.166 0.305,0.226 0.625,0.126 0.208,-0.442 0.037,-1.255 0.109,-1.813 0.619,-0.386 1.246,-0.713 1.881,-1.093 0.502,-0.3 0.481,-0.14 1.001,0.119 0.334,0.166 0.705,0.45 1.142,0.391 0.306,-0.447 0.173,-1.039 0.199,-1.891 0.515,-0.262 0.655,-0.41 0.878,-0.973 0.185,0.033 0.727,0.378 0.917,0.493 0.285,0.173 0.59,0.31 0.898,0.494 -0.056,0.742 -1.17,1.209 -1.714,1.503 -0.343,0.185 -0.667,0.387 -1.033,0.582l-2.086 1.197c-0.178,0.097 -1.448,0.787 -1.543,0.913 -0.427,0.573 0.544,0.939 1.099,1.23 -0.008,0.284 -0.042,0.329 0.045,0.579 0.53,0.21 0.635,-0.184 1.11,0.091 0.323,0.187 0.6,0.365 0.938,0.525 0.259,0.121 0.285,0.046 0.503,0.225 0.158,0.13 0.249,0.197 0.408,0.322 0.428,0.338 0.646,0.614 0.945,0.441 0.321,-0.186 0.073,-1.588 0.158,-1.784 0.038,-0.086 1.621,-0.97 1.915,-1.144 0.346,-0.205 0.313,-0.226 0.677,-0.047 0.265,0.13 1.118,0.688 1.422,0.577 0.386,-0.142 0.228,-1.397 0.222,-1.874 0.199,-0.167 0.485,-0.257 0.618,-0.464 0.14,-0.217 0.229,-0.498 0.405,-0.703 0.25,0.085 0.787,0.437 1.053,0.581 0.373,0.201 0.702,0.415 1.063,0.605l2.104 1.221c-0.15,0.163 -11.552,6.82 -12.339,7.308l-6.885 4.065c-0.914,0.549 -1.833,1.116 -2.747,1.633 -0.486,0.276 -0.91,0.519 -1.381,0.814 -0.246,0.154 -0.306,0.065 -0.695,-0.166 -0.235,-0.14 -0.447,-0.269 -0.679,-0.414l-2.767 -1.614c-1.937,-1.114 -4.317,-2.609 -6.226,-3.63 -0.256,-0.136 -0.445,-0.251 -0.688,-0.405 -0.455,-0.288 -0.915,-0.538 -1.387,-0.805l-7.936 -4.629c-0.197,-0.104 -0.235,-0.075 -0.336,-0.246 1.061,-0.518 3.248,-1.875 4.478,-2.544l6.01 -3.426c1.947,-1.061 4.087,-2.375 6.022,-3.419 0.506,-0.273 0.995,-0.587 1.517,-0.88l4.531 -2.561c1.264,-0.694 0.654,-0.521 1.518,-0.161 -0.037,0.187 -0.187,0.382 -0.266,0.522 -0.157,0.276 -1.169,0.752 -1.503,0.947l-4.128 2.336c-1.261,0.669 -0.185,1.131 0.607,1.516zm5.672 -4.641c0.063,-0.185 1.709,-3.063 1.809,-3.162 0.513,0.038 1.204,0.428 1.589,0.643l1.301 0.797 -1.794 3.283 -2.905 -1.561zm-0.071 -1.2c-0.155,-0.052 -0.473,-0.257 -0.64,-0.348 -0.349,-0.19 -0.411,-0.117 -0.74,0.069 -1.169,0.661 -2.758,1.614 -3.891,2.211 -0.886,0.466 -1.699,0.993 -2.59,1.476 -2.551,1.383 -5.262,3.037 -7.847,4.46l-3.887 2.217c-0.422,0.237 -0.901,0.514 -1.321,0.764l-2.598 1.47c-0.419,0.239 -0.86,0.5 -1.289,0.743 -0.689,0.39 -0.549,0.255 -0.549,1.554 0,0.515 -0.049,3.825 0.036,4.037 0.106,0.262 8.886,5.247 10.291,6.089 0.859,0.514 1.742,1.023 2.598,1.52l5.128 3.005c0.858,0.517 1.727,0.99 2.567,1.501 0.929,0.565 0.748,0.548 1.363,0.204 0.434,-0.244 0.881,-0.494 1.319,-0.769 1.963,-1.23 4.403,-2.541 6.436,-3.781l1.282 -0.753c0.877,-0.471 1.709,-1.016 2.594,-1.524 3.459,-1.986 6.849,-4.047 10.333,-6.043 0.433,-0.248 0.844,-0.492 1.278,-0.754 0.746,-0.448 0.751,-0.214 0.753,-1.276 0.003,-1.369 0,-2.739 0.008,-4.109 0.004,-0.638 -0.04,-0.594 -0.951,-1.086 -0.903,-0.487 -1.689,-0.993 -2.597,-1.471l-1.311 -0.77 0.604 -1.111c0.834,-1.474 1.124,-1.497 0.152,-2.142 -0.804,-0.534 -2.019,-1.218 -2.986,-1.405 -0.549,-0.107 -0.548,0.303 -1.205,1.397l-0.642 1.127c-0.427,-0.175 -1.424,-0.851 -1.785,-0.981 0.073,-0.31 1.128,-1.999 1.366,-2.453 0.214,-0.409 0.008,-0.627 -0.273,-0.816 -0.519,-0.349 -1.041,-0.664 -1.597,-0.956 -0.459,-0.24 -1.37,-0.693 -2,-0.61 -0.103,0.05 -1.386,2.352 -1.5,2.584 -0.199,-0.051 -1.639,-0.887 -1.878,-1.04l1.282 -2.292c0.412,-0.656 0.078,-0.736 -0.359,-1.07 -0.326,-0.249 -0.753,-0.497 -1.132,-0.694 -0.648,-0.335 -1.164,-0.637 -1.909,-0.762 -0.391,-0.065 -0.446,0.044 -0.589,0.325l-1.324 2.263z"/>
  <path class="fil0" d="M21.657 32.164c0.139,-0.114 0.719,-0.453 0.896,-0.533 0.126,0.045 0.819,0.44 0.925,0.533 -0.099,0.095 -0.819,0.527 -0.891,0.538 -0.106,0.016 -0.333,-0.146 -0.459,-0.222l-0.471 -0.316zm-0.567 -1.354c0.175,0.05 0.77,0.399 0.925,0.522 -0.047,0.063 -0.756,0.489 -0.872,0.544 -0.181,-0.054 -0.81,-0.429 -0.927,-0.54l0.874 -0.526zm1.999 0.522c0.097,-0.072 0.847,-0.529 0.89,-0.535 0.098,-0.014 0.338,0.15 0.46,0.221 0.084,0.049 0.143,0.083 0.229,0.132 0.165,0.092 0.128,0.046 0.245,0.193 -0.187,0.071 -0.798,0.499 -0.903,0.504 -0.113,0.007 -0.858,-0.444 -0.921,-0.515zm-2.558 -0.903c0.048,0.032 0.194,0.117 0.014,0.117 -0.128,0.11 -0.308,0.184 -0.443,0.271 -0.153,0.098 -0.31,0.24 -0.444,0.212 -0.019,-0.004 -0.775,-0.394 -0.849,-0.529 1.178,-0.817 0.8,-0.4 1.722,-0.071zm5.745 -0.048c0.047,0.03 0.19,0.115 0.031,0.133 -0.371,0.175 -0.741,0.506 -0.908,0.473 -0.006,-0.001 -0.746,-0.382 -0.851,-0.539 0.136,-0.108 0.71,-0.455 0.88,-0.516l0.848 0.449zm-8.911 -0.638c0.129,-0.171 0.24,-0.2 0.446,-0.321 0.169,-0.099 0.266,-0.172 0.459,-0.252 0.287,0.14 0.627,0.398 0.902,0.479 -0.009,0.011 -0.022,0.025 -0.03,0.033l-0.417 0.281c-0.105,0.059 -0.401,0.242 -0.46,0.244 -0.108,0.004 -0.693,-0.404 -0.9,-0.464zm8.582 -0.127c0.091,-0.066 0.783,-0.503 0.886,-0.501 0.098,0.001 0.791,0.416 0.91,0.501 -0.008,0.011 -0.021,0.024 -0.028,0.03l-0.879 0.506c-0.227,-0.121 -0.754,-0.381 -0.889,-0.536zm-9.985 -0.728c0.133,-0.125 0.683,-0.433 0.898,-0.54 0.177,0.101 0.794,0.427 0.872,0.54 -0.088,0.07 -0.799,0.493 -0.875,0.496 -0.131,0.004 -0.792,-0.41 -0.895,-0.496zm11.414 -0.104c0.09,-0.086 0.766,-0.506 0.87,-0.505 0.093,0 0.79,0.414 0.9,0.505 -0.117,0.14 -0.787,0.497 -0.9,0.539 -0.179,-0.101 -0.777,-0.426 -0.87,-0.539zm-12.816 -0.728c0.11,-0.079 0.784,-0.5 0.882,-0.496 0.067,0.003 0.805,0.434 0.876,0.496 -0.056,0.068 -0.814,0.522 -0.879,0.527 -0.05,0.003 -0.343,-0.169 -0.447,-0.228 -0.146,-0.081 -0.341,-0.17 -0.432,-0.299zm14.214 -0.104c0.192,-0.161 0.65,-0.4 0.882,-0.535 0.197,0.111 0.746,0.398 0.894,0.535 -0.082,0.08 -0.724,0.519 -0.888,0.507 -0.092,-0.007 -0.826,-0.443 -0.888,-0.507zm-15.545 -0.753c0.009,-0.007 0.021,-0.017 0.03,-0.023l0.773 -0.433c0.103,0.005 0.802,0.431 0.885,0.523 -0.112,0.07 -0.828,0.496 -0.881,0.498 -0.082,0.002 -0.761,-0.396 -0.889,-0.488l0.082 -0.077zm16.963 -0.079c0.083,-0.093 0.776,-0.506 0.873,-0.504 0.093,0.003 0.807,0.438 0.888,0.504 -0.136,0.131 -0.669,0.449 -0.887,0.54 -0.187,-0.108 -0.776,-0.415 -0.874,-0.54zm-18.465 -0.676c0.085,-0.081 0.101,-0.085 0.221,-0.157 0.083,-0.05 0.123,-0.073 0.228,-0.138 0.111,-0.069 0.351,-0.238 0.443,-0.231 0.02,0.001 0.814,0.42 0.873,0.526 -0.1,0.082 -0.796,0.49 -0.87,0.493 -0.105,0.006 -0.344,-0.143 -0.473,-0.222 -0.083,-0.052 -0.137,-0.086 -0.226,-0.139 -0.034,-0.021 -0.064,-0.037 -0.101,-0.061 -0.056,-0.036 -0.063,-0.043 -0.095,-0.071zm19.829 -0.167c0.159,-0.114 0.739,-0.517 0.917,-0.508l0.906 0.519c-0.115,0.094 -0.835,0.548 -0.929,0.529 -0.065,-0.013 -0.808,-0.472 -0.894,-0.54zm-21.24 -0.665c0.167,-0.133 0.726,-0.479 0.933,-0.53 0.217,0.24 0.616,0.335 0.814,0.53 -0.112,0.111 -0.698,0.455 -0.854,0.549l-0.893 -0.549zm19.846 -0.156c0.116,-0.098 0.733,-0.518 0.89,-0.501 0.145,0.015 0.767,0.41 0.862,0.501 -0.105,0.08 -0.762,0.51 -0.895,0.504l-0.857 -0.504zm-21.282 -0.68c0.148,-0.082 0.795,-0.499 0.916,-0.485 0.072,0.008 0.805,0.447 0.881,0.496 -0.083,0.089 -0.77,0.487 -0.92,0.537 -0.198,-0.105 -0.764,-0.414 -0.877,-0.548zm19.854 -0.152c0.118,-0.087 0.787,-0.486 0.872,-0.487 0.071,0 0.799,0.401 0.883,0.487l-0.88 0.529c-0.056,-0.002 -0.334,-0.166 -0.455,-0.239 -0.152,-0.091 -0.341,-0.176 -0.42,-0.29zm-21.291 -0.703c0.156,-0.07 0.821,-0.465 0.9,-0.462 0.052,0.001 0.784,0.41 0.883,0.489 -0.068,0.137 0.002,0.066 -0.185,0.169 -0.825,0.451 -0.527,0.485 -1.381,-0.002 -0.201,-0.116 -0.163,-0.099 -0.217,-0.194zm20.099 -0.258c0.863,-0.515 0.507,-0.439 1.566,0.156 -0.197,0.141 -0.694,0.431 -0.915,0.524 -0.296,-0.131 -0.633,-0.392 -0.905,-0.477l0.254 -0.203zm-11.943 -4.505c1.526,-0.882 0.995,-0.862 2.053,-0.261l2.019 1.16c0.719,0.367 1.92,1.114 2.717,1.559l8.105 4.672c-0.129,0.161 -1.806,1.105 -1.977,1.205 -0.677,0.394 -1.345,0.788 -1.995,1.187 -0.323,0.198 -0.672,0.399 -1.016,0.598l-2.952 1.755 -1.737 -0.986c-0.597,-0.335 -1.121,-0.672 -1.72,-0.993 -0.578,-0.309 -1.136,-0.654 -1.724,-0.989l-3.405 -1.964c-0.806,-0.487 -4.448,-2.504 -4.927,-2.841 -0.123,-0.086 -0.098,-0.072 -0.166,-0.162l6.725 -3.94zm-9.595 3.958c0.16,-0.104 0.804,-0.516 0.926,-0.508 0.131,0.009 0.697,0.428 0.914,0.489 -0.163,0.189 -0.865,0.563 -0.945,0.554 -0.039,-0.004 -0.757,-0.373 -0.895,-0.535zm19.879 -0.104c0.078,-0.072 0.773,-0.511 0.9,-0.507 0.112,0.003 0.812,0.434 0.866,0.507 -0.094,0.083 -0.797,0.496 -0.868,0.498 -0.15,0.006 -0.329,-0.147 -0.472,-0.234l-0.426 -0.264zm-18.464 -0.726c0.097,-0.069 0.821,-0.511 0.923,-0.506 0.081,0.004 0.771,0.43 0.885,0.489 -0.111,0.143 -0.87,0.555 -0.88,0.555 -0.142,-0.039 -0.851,-0.459 -0.928,-0.538zm17.038 -0.106c0.236,-0.182 0.619,-0.39 0.864,-0.527 0.128,0.054 0.851,0.459 0.914,0.527 -0.188,0.136 -0.731,0.487 -0.914,0.53 -0.185,-0.094 -0.752,-0.417 -0.864,-0.53zm-15.605 -0.66c0.106,-0.205 0.144,-0.147 0.436,-0.328 0.137,-0.085 0.331,-0.242 0.457,-0.233 0.056,0.004 0.799,0.424 0.889,0.493 -0.107,0.128 -0.677,0.438 -0.877,0.546 -0.356,-0.142 -0.563,-0.367 -0.905,-0.478zm14.174 -0.176c1.28,-0.706 0.515,-0.566 1.779,-0.014 -0.112,0.152 -0.894,0.564 -0.894,0.564 -0.016,0 -0.786,-0.418 -0.885,-0.55zm-12.758 -0.724c0.113,-0.087 0.804,-0.501 0.89,-0.494 0.049,0.004 0.795,0.444 0.877,0.5 -0.078,0.08 -0.832,0.527 -0.873,0.529l-0.808 -0.456c-0.076,-0.059 -0.057,-0.05 -0.086,-0.079zm13.071 -0.139c0.008,0.013 0.027,0.049 0.029,0.036 0.002,-0.015 0.019,0.033 0.022,0.061l-0.1 0.052c-0.858,0.353 -0.485,0.775 -1.672,-0.062 0.097,-0.148 0.804,-0.506 0.835,-0.509 0.223,-0.02 0.616,0.359 0.886,0.422zm-11.672 -0.623c0.097,-0.152 0.765,-0.569 0.896,-0.554 0.091,0.011 0.744,0.415 0.886,0.488 -0.14,0.135 -0.641,0.416 -0.872,0.544 -0.323,-0.118 -0.611,-0.391 -0.91,-0.478zm8.533 -0.122c0.098,-0.093 0.776,-0.502 0.881,-0.493 0.123,0.009 0.766,0.413 0.865,0.493 -0.173,0.134 -0.629,0.408 -0.856,0.527 -0.202,-0.069 -0.758,-0.41 -0.89,-0.527zm-7.128 -0.78c0.104,-0.084 0.824,-0.496 0.907,-0.489 0,0 0.823,0.388 0.875,0.541 -0.131,0.093 -0.322,0.182 -0.449,0.26 -0.125,0.077 -0.352,0.231 -0.452,0.221 -0.135,-0.014 -0.826,-0.443 -0.881,-0.533zm7.393 -0.114c0.043,0.02 0.233,0.11 0.049,0.126 -1,0.471 -0.657,0.619 -1.328,0.221 -0.161,-0.096 -0.318,-0.127 -0.42,-0.31 0.223,-0.07 0.744,-0.443 0.874,-0.452 0.123,-0.008 0.629,0.346 0.825,0.415zm-5.991 -0.701c0.117,-0.084 0.833,-0.513 0.922,-0.512 0.072,0.002 0.784,0.42 0.892,0.495 -0.008,0.009 -0.021,0.022 -0.027,0.026l-0.215 0.153c-0.137,0.084 -0.575,0.367 -0.682,0.352 -0.063,-0.009 -0.813,-0.454 -0.89,-0.514zm2.881 -0.028c0.102,-0.077 0.806,-0.505 0.911,-0.5 0.073,0.004 0.799,0.435 0.869,0.5 -0.108,0.068 -0.81,0.508 -0.906,0.501 -0.084,-0.006 -0.794,-0.424 -0.874,-0.501zm-1.462 -0.807c0.292,-0.197 0.598,-0.361 0.915,-0.541 0.207,0.077 0.752,0.411 0.895,0.527 -0.124,0.109 -0.711,0.467 -0.895,0.538l-0.915 -0.524zm0.748 -1.024l-10.851 6.369c-0.228,0.141 -0.852,0.356 -0.452,0.702l13.644 7.895c0.604,0.346 1.192,0.689 1.823,1.047 0.34,0.193 1.585,1.053 1.917,0.932l3.599 -2.148c0.97,-0.629 2.529,-1.456 3.599,-2.134 0.301,-0.19 0.588,-0.345 0.891,-0.519l2.714 -1.613c0.229,-0.136 0.853,-0.362 0.553,-0.71 -0.056,-0.065 -0.772,-0.455 -0.925,-0.544 -0.587,-0.342 -1.229,-0.681 -1.812,-1.052 -0.532,-0.339 -1.257,-0.732 -1.827,-1.044 -2.371,-1.302 -4.89,-2.863 -7.298,-4.173 -1.358,-0.739 -3.163,-1.828 -4.561,-2.634 -0.273,-0.157 -0.708,-0.501 -1.014,-0.374z"/>
  <path class="fil1" d="M25.393 27.516c0.092,-0.803 -0.706,-0.339 -1.236,-0.205 -1.078,0.272 -2.495,0.32 -3.589,0.173 -0.331,-0.045 -1.491,-0.402 -1.646,-0.173 -0.344,0.506 0.745,0.573 1.25,0.658 0.599,0.101 1.246,0.167 1.858,0.158 1.027,-0.016 2.535,-0.238 3.363,-0.611z"/>
  <path class="fil1" d="M13.243 21.381l-0.015 0.397c0.624,0.324 2.53,0.453 3.319,0.432 0.566,-0.015 1.155,-0.106 1.699,-0.204 0.359,-0.065 1.322,-0.203 1.33,-0.556 0.011,-0.514 -1.025,-0.074 -1.357,-0.007 -1.036,0.21 -2.396,0.266 -3.446,0.112 -0.442,-0.065 -1.199,-0.321 -1.53,-0.174z"/>
  <path class="fil1" d="M18.337 23.101c-1.732,0.417 -3.226,0.584 -5.011,0.204 -0.273,-0.058 -0.603,-0.189 -0.699,0.088 -0.12,0.344 0.217,0.375 0.494,0.432 1.154,0.238 2.235,0.291 3.431,0.187 0.317,-0.028 2.081,-0.268 2.215,-0.566 0.038,-0.083 0.104,-0.474 -0.43,-0.345z"/>
  <path class="fil1" d="M24.451 25.728c-0.75,0.24 -1.595,0.391 -2.421,0.382 -0.472,-0.006 -0.897,-0.112 -1.316,-0.129 -0.442,-0.017 -0.529,0.51 0.101,0.591 1.327,0.17 2.466,0.084 3.731,-0.273 0.637,-0.18 0.369,-0.719 -0.095,-0.571z"/>
 </g>
</svg>
