<svg xmlns="http://www.w3.org/2000/svg" width="1024" height="1024" viewBox="0 0 1024 1024">
<g>
<path d="M 377.00 846.29 C371.85,844.40 370.23,837.77 374.00,834.00 C375.91,832.09 377.35,832.00 407.25,831.98 C424.44,831.96 440.30,831.54 442.50,831.03 C448.62,829.61 450.00,827.19 450.00,817.89 L 450.00 810.00 L 442.37 810.00 C432.83,810.00 428.06,808.60 423.09,804.34 C417.91,799.91 416.00,794.11 416.00,782.82 C416.00,777.97 415.82,774.00 415.61,774.00 C415.40,774.00 411.54,773.30 407.05,772.45 C366.15,764.69 333.28,734.78 322.23,695.26 L 319.50 685.50 L 319.50 512.00 L 319.50 338.50 L 322.17 329.00 C333.83,287.49 367.12,257.21 408.50,250.47 C413.45,249.67 420.54,249.01 424.25,249.00 L 431.00 249.00 L 431.02 239.25 C431.05,228.07 432.65,223.32 438.13,218.15 C441.93,214.56 449.24,212.00 455.68,212.00 L 460.00 212.00 L 460.02 195.25 C460.03,186.04 460.48,175.45 461.02,171.72 C465.00,144.19 484.36,121.83 512.50,112.27 L 520.50 109.55 L 561.12 109.22 L 601.75 108.88 L 604.62 111.35 L 607.50 113.82 L 607.74 137.96 C608.02,165.82 607.60,167.99 601.47,170.01 C598.76,170.91 589.57,171.14 567.40,170.87 L 537.05 170.50 L 534.37 173.18 C531.96,175.58 531.60,176.90 530.89,185.68 C530.45,191.08 530.08,199.44 530.05,204.25 L 530.00 213.00 L 535.75 213.01 C544.27,213.01 548.94,214.68 553.63,219.37 C558.67,224.40 559.99,228.70 559.99,240.10 L 560.00 248.70 L 570.75 249.29 C620.62,252.04 661.84,289.00 670.52,338.76 C672.80,351.85 672.73,673.29 670.44,686.37 C663.02,728.78 627.77,764.48 585.89,771.99 C573.74,774.17 575.00,773.00 575.00,782.08 C575.00,793.62 573.49,798.56 568.43,803.62 C563.39,808.66 559.28,809.99 548.65,809.99 L 540.80 810.00 L 541.15 818.97 C541.42,825.91 541.90,828.33 543.28,829.72 C544.91,831.34 548.22,831.54 580.49,832.00 C614.44,832.48 615.98,832.58 617.43,834.50 C619.51,837.26 619.37,841.32 617.09,844.14 L 615.18 846.50 L 580.34 846.79 C542.37,847.10 540.59,846.89 533.92,841.28 C528.52,836.73 526.66,831.67 526.19,820.25 L 525.77 810.00 L 495.51 810.00 L 465.24 810.00 L 464.81 819.25 C464.48,826.57 463.87,829.54 461.88,833.50 C458.74,839.74 452.67,844.48 445.99,845.91 C440.80,847.02 379.91,847.36 377.00,846.29 ZM 556.32 793.85 C559.66,792.09 559.97,791.12 559.98,782.25 L 560.00 774.00 L 495.50 774.00 L 431.00 774.00 L 431.00 782.31 C431.00,790.61 431.86,793.18 435.00,794.31 C435.83,794.60 462.97,794.88 495.32,794.92 C537.84,794.98 554.74,794.68 556.32,793.85 ZM 587.40 756.70 C605.51,751.31 619.58,743.21 630.66,731.78 C643.68,718.34 651.94,702.92 655.45,685.48 C656.89,678.31 657.03,660.51 656.78,509.50 L 656.50 341.50 L 654.24 333.50 C648.32,312.53 635.43,293.90 617.73,280.74 C610.73,275.53 597.69,269.42 588.00,266.80 L 579.50 264.50 L 495.50 264.50 L 411.50 264.50 L 403.00 266.76 C371.21,275.22 347.40,298.38 337.26,330.70 L 334.50 339.50 L 334.19 507.50 C333.97,629.77 334.20,677.49 335.03,682.82 C340.88,720.38 372.06,751.36 410.66,757.97 C413.32,758.42 452.85,758.72 498.50,758.63 C574.41,758.47 582.00,758.31 587.40,756.70 ZM 545.00 240.33 C545.00,226.81 549.77,228.00 495.67,228.00 C454.26,228.00 449.47,228.17 447.83,229.65 C446.32,231.02 446.00,232.86 446.00,240.15 L 446.00 249.00 L 495.50 249.00 L 545.00 249.00 L 545.00 240.33 ZM 515.18 194.25 C515.50,178.93 515.83,175.89 517.62,172.00 C520.58,165.55 524.52,161.29 530.38,158.20 L 535.50 155.50 L 563.75 155.19 L 592.00 154.89 L 592.00 139.44 L 592.00 124.00 L 560.25 124.02 C536.22,124.03 526.80,124.39 521.50,125.50 C501.48,129.71 484.31,144.90 478.35,163.69 C476.20,170.44 476.00,172.84 476.00,191.54 L 476.00 212.00 L 495.40 212.00 L 514.81 212.00 L 515.18 194.25 ZM 484.50 688.61 C477.09,686.81 469.38,682.22 464.25,676.54 C448.99,659.66 449.73,634.13 465.93,617.94 C486.91,596.97 521.60,603.09 534.41,630.00 C537.26,635.99 537.50,637.33 537.50,647.00 C537.50,656.74 537.27,657.99 534.30,664.26 C525.15,683.57 504.76,693.54 484.50,688.61 ZM 507.54 672.25 C512.55,669.67 519.38,662.40 521.55,657.32 C523.89,651.83 523.92,642.38 521.62,637.26 L 519.73 633.08 L 515.15 638.29 C500.98,654.42 498.05,656.19 492.63,651.93 C487.85,648.16 488.90,645.22 499.00,634.11 C503.95,628.66 508.00,623.76 508.00,623.20 C508.00,621.58 498.19,619.70 492.97,620.32 C483.50,621.44 475.44,627.15 470.84,636.00 C467.60,642.22 467.52,654.61 470.68,660.50 C473.50,665.76 478.44,670.39 484.00,672.98 C489.89,675.73 501.48,675.37 507.54,672.25 ZM 423.42 566.86 C422.28,566.30 420.59,564.57 419.67,563.02 C418.15,560.45 418.00,553.58 418.00,487.05 C418.00,408.60 417.93,409.71 422.94,407.03 C424.21,406.35 448.97,406.00 495.51,406.00 L 566.15 406.00 L 569.08 408.92 L 572.00 411.85 L 572.00 485.86 C572.00,530.56 571.62,560.87 571.04,562.39 C568.87,568.12 570.36,568.01 494.80,567.93 C450.36,567.89 424.75,567.50 423.42,566.86 ZM 556.76 486.75 L 557.01 421.00 L 495.01 421.00 L 433.00 421.00 L 433.00 486.33 C433.00,522.27 433.30,551.97 433.67,552.34 C434.05,552.71 461.83,552.90 495.42,552.76 L 556.50 552.50 L 556.76 486.75 ZM 483.89 542.55 C463.94,537.05 452.77,518.89 456.95,498.75 C458.51,491.24 461.33,486.13 470.74,473.76 C479.83,461.83 482.40,456.40 484.41,444.88 C485.21,440.27 486.15,435.77 486.49,434.89 C487.20,433.03 491.17,431.00 494.07,431.00 C498.53,431.00 512.37,446.92 518.20,458.75 C520.68,463.78 521.43,466.80 521.80,473.03 C522.25,480.82 522.28,480.91 524.35,479.47 C527.52,477.25 532.30,477.63 534.82,480.31 C538.00,483.69 539.59,496.66 538.08,506.83 C534.67,529.86 518.25,544.15 495.50,543.90 C491.65,543.86 486.43,543.25 483.89,542.55 ZM 505.61 527.52 C515.67,524.54 522.18,515.84 523.63,503.46 L 524.31 497.69 L 520.21 501.79 C514.78,507.22 510.64,509.30 506.89,508.48 C500.34,507.04 499.61,501.25 504.36,488.27 C507.17,480.58 507.80,472.28 505.95,467.32 C504.67,463.85 498.77,455.00 497.75,455.00 C497.34,455.00 497.00,455.80 497.00,456.78 C497.00,460.34 490.08,472.76 482.27,483.18 C477.87,489.05 473.54,495.70 472.64,497.95 C470.37,503.63 470.52,512.15 472.99,516.98 C477.99,526.78 492.41,531.44 505.61,527.52 Z" fill="rgba(0,0,0,1)"/>
</g>
</svg>