<?xml version="1.0" encoding="UTF-8"?>
<!DOCTYPE svg PUBLIC "-//W3C//DTD SVG 1.1//EN" "http://www.w3.org/Graphics/SVG/1.1/DTD/svg11.dtd">
<!-- Creator: CorelDRAW 2026 -->
<svg xmlns="http://www.w3.org/2000/svg" xml:space="preserve" width="48px" height="48px" version="1.1" style="shape-rendering:geometricPrecision; text-rendering:geometricPrecision; image-rendering:optimizeQuality; fill-rule:evenodd; clip-rule:evenodd"
viewBox="0 0 48 48"
 xmlns:xlink="http://www.w3.org/1999/xlink"
 xmlns:xodm="http://www.corel.com/coreldraw/odm/2003">
 <defs>
  <style type="text/css">
   <![CDATA[
    .fil0 {fill:#554D42}
   ]]>
  </style>
 </defs>
 <g id="Layer_x0020_1">
  <metadata id="CorelCorpID_0Corel-Layer"/>
  <path class="fil0" d="M6.211 40.225c1.065,-5.059 3.835,-8.778 7.821,-11.57 0.714,0.974 0.29,3.034 5.686,9.825 -1.765,0.984 -3.867,1.82 -6.101,2.178 -1.645,0.264 -6.004,0.331 -7.406,-0.433zm22.028 -1.759c1.145,-1.735 2.383,-1.997 4.668,-7.086 0.399,-0.888 0.678,-1.914 1.087,-2.761 3.618,2.093 7.376,7.778 7.754,11.695 -2.869,0.53 -4.562,0.743 -7.512,0.324 -2.982,-0.424 -4.32,-1.62 -5.997,-2.172zm-4.105 2.34c-4.876,-3.434 -7.287,-7.51 -9.14,-12.749 0.261,-0.383 2.294,-1.271 2.856,-1.411 1.764,4.501 1.045,4.257 4.501,8.42 1.072,1.324 2.71,2.695 4.162,3.591 5.073,3.133 9.891,4.177 16.468,2.388 -0.181,-3.354 -2.764,-8.227 -4.937,-10.544 -0.562,-0.599 -3.078,-2.705 -3.8,-3.061 0.318,-0.932 0.461,-2.151 0.541,-3.222 4.335,1.917 9.003,7.88 10.403,12.553 0.39,1.304 1.427,5.122 1.179,6.337 -2.858,1.531 -7.425,2.044 -10.726,1.875 -4.202,-0.217 -8.298,-1.916 -11.507,-4.177zm-5.219 -14.555c2.154,-0.331 2.194,-0.743 5.153,-0.724 2.069,0.013 3.122,0.366 5.027,0.704 -0.742,3.832 -2.826,6.28 -4.992,9.018 -1.903,-1.044 -4.503,-6.2 -5.188,-8.998zm-17.355 16.862c0.703,-6.711 3.305,-12.68 8.574,-16.818 4.023,-3.16 8.799,-5.031 14.043,-4.975 2.144,0.023 3.529,0.42 5.491,0.749l-0.263 3.148c-1.633,-0.242 -1.896,-0.672 -4.475,-0.761 -4.871,-0.168 -10.304,1.65 -13.543,4.724l-3.594 4.267c-0.987,1.604 -2.755,5.215 -2.789,7.52 3.123,1.472 8.963,1.102 12.299,-0.189l3.308 -1.52c0.275,0.475 1.963,1.626 2.52,2.128 -1.905,0.631 -7.112,5.061 -16.4,3.296 -2.868,-0.544 -4.222,-1.372 -5.171,-1.569zm16.893 -22.159c-0.334,-1.742 1.312,-6.398 2.186,-7.949 1.245,-2.209 2.05,-2.876 3.32,-4.49 2.798,2.068 5.513,8.252 5.617,12.45 -3.922,-1.101 -7.331,-0.705 -11.123,-0.011zm-4.33 1.532c0.096,-6.997 2.996,-13.997 8.487,-18.298l1.43 -1.131c0.76,0.449 3.631,3.266 4.534,4.301 6.386,7.33 6.944,18.822 1.511,26.996 -0.55,0.827 -2.162,3.082 -2.854,3.48l-2.413 -1.706c0.199,-0.621 6.114,-5.266 5.861,-14.837 -0.16,-6.051 -3.127,-11.265 -6.659,-14.156 -1.019,0.708 -3.978,4.61 -4.6,5.875 -1.769,3.597 -1.636,4.65 -2.125,8.234l-3.172 1.242zm-1.011 0.512c-1.227,0.862 -3.223,1.833 -4.855,3.381 -4.182,4.285 -7.894,10.251 -7.753,17.228 0.852,0.805 3.915,1.697 5.425,1.995 10.877,2.15 17.118,-3.24 17.976,-3.462 0.434,-0.113 0.806,0.339 1.176,0.564 6.081,3.694 14.523,4.541 21.031,1.682 0.485,-0.213 0.953,-0.502 1.38,-0.608 0.182,-4.608 -2.633,-11.855 -5.171,-14.599 -3.211,-3.473 -3.675,-3.757 -7.417,-6.219 0.031,-6.314 -1.678,-11.677 -5.399,-16.198 -0.721,-0.873 -4.758,-4.897 -5.528,-4.869 -0.675,0.024 -5.086,4.438 -5.714,5.149 -3.263,4.049 -5.455,10.136 -5.151,15.956z"/>
 </g>
</svg>
