<?xml version="1.0" encoding="UTF-8"?>
<!DOCTYPE svg PUBLIC "-//W3C//DTD SVG 1.1//EN" "http://www.w3.org/Graphics/SVG/1.1/DTD/svg11.dtd">
<!-- Creator: CorelDRAW 2026 -->
<svg xmlns="http://www.w3.org/2000/svg" xml:space="preserve" width="48px" height="48px" version="1.1"
    style="shape-rendering:geometricPrecision; text-rendering:geometricPrecision; image-rendering:optimizeQuality; fill-rule:evenodd; clip-rule:evenodd"
    viewBox="0 0 48 48" xmlns:xlink="http://www.w3.org/1999/xlink" xmlns:xodm="http://www.corel.com/coreldraw/odm/2003">
    <defs>
        <style type="text/css">
            <![CDATA[
            .fil0 {
                fill: #666666
            }
            ]]>
        </style>
    </defs>
    <g id="Layer_x0020_1">
        <metadata id="CorelCorpID_0Corel-Layer" />
        <path class="fil0"
            d="M11.661 0l24.678 0c0.97,0 1.763,0.793 1.763,1.763l0 44.474c0,0.97 -0.793,1.763 -1.763,1.763l-24.678 0c-0.97,0 -1.763,-0.793 -1.763,-1.763l0 -44.474c0,-0.97 0.793,-1.763 1.763,-1.763zm1.898 2.441l20.882 0c0.671,0 1.22,0.549 1.22,1.22l0 40.678c0,0.671 -0.549,1.22 -1.22,1.22l-20.882 0c-0.671,0 -1.22,-0.549 -1.22,-1.22l0 -40.678c0,-0.671 0.549,-1.22 1.22,-1.22z" />
        <g id="_2347911080704">
            <g>
                <path class="fil0"
                    d="M16.611 7.455l1.7 0 11.378 0 1.7 0c2.345,3.927 2.538,8.316 0,13.29l-1.7 0 -0.019 0 -0.227 0 -0.015 0 -0.207 0 -0.048 0 -0.171 0 -0.079 0 -0.136 0 -0.11 0 -0.101 0 -0.139 0 -0.069 0 -0.167 0 -0.037 0 -0.194 0 -0.008 0 -0.198 0 -0.021 0 -0.175 0 -0.047 0 -0.145 0 -0.074 0 -0.117 0 -0.098 0 -0.09 0 -0.121 0 -0.066 0 -0.142 0 -0.042 0 -0.163 0 -0.019 0 -0.181 0 -0.001 0 -0.179 0 -0.019 0 -0.159 0 -0.036 0 -0.142 0 -0.052 0 -0.124 0 -0.066 0 -0.11 0 -0.078 0 -0.097 0 -0.09 0 -0.085 0 -0.099 0 -0.076 0 -0.106 0 -0.069 0 -0.112 0 -0.063 0 -0.117 0 -0.058 0 -0.121 0 -0.055 0 -0.122 0 -0.054 0 -0.122 0 -0.056 0 -0.12 0 -0.058 0 -0.117 0 -0.062 0 -0.113 0 -0.069 0 -0.106 0 -0.076 0 -0.099 0 -0.085 0 -0.09 0 -0.097 0 -0.078 0 -0.11 0 -0.066 0 -0.124 0 -0.052 0 -0.142 0 -0.036 0 -0.159 0 -0.019 0 -0.179 0 -0.001 0 -0.181 0 -0.019 0 -0.163 0 -0.042 0 -0.142 0 -0.066 0 -0.121 0 -0.09 0 -0.098 0 -0.117 0 -0.074 0 -0.145 0 -0.047 0 -0.175 0 -0.021 0 -0.198 0 -0.008 0 -0.194 0 -0.037 0 -0.167 0 -0.069 0 -0.139 0 -0.101 0 -0.11 0 -0.136 0 -0.079 0 -0.171 0 -0.048 0 -0.207 0 -0.015 0 -0.227 0 -0.019 0 -1.7 0c-2.538,-4.974 -2.345,-9.363 0,-13.29zm1.231 2.061c-1.445,3.039 -1.243,6.077 0.077,9.167l12.162 0c1.32,-3.09 1.522,-6.128 0.077,-9.167l-12.316 0z" />
                <g>
                    <rect class="fil0" transform="matrix(3.40744E-15 0.128657 -0.128658 3.40742E-15 21.6647 11.0113)"
                        width="34.686" height="14.775" rx="5.127" ry="5.127" />
                    <rect class="fil0" transform="matrix(3.40744E-15 0.128657 -0.128658 3.40742E-15 28.2363 11.0113)"
                        width="34.686" height="14.775" rx="5.127" ry="5.127" />
                </g>
                <path class="fil0"
                    d="M24 16.424c0.675,0 1.223,0.424 1.223,0.946 0,0.521 -0.601,0.422 -1.277,0.422 -0.675,0 -1.169,0.099 -1.169,-0.422 0,-0.522 0.548,-0.946 1.223,-0.946z" />
            </g>
            <g>
                <path class="fil0"
                    d="M16.611 27.255l1.7 0 11.378 0 1.7 0c2.345,3.928 2.538,8.317 0,13.29l-1.7 0 -0.019 0 -0.227 0 -0.015 0 -0.207 0 -0.048 0 -0.171 0 -0.079 0 -0.136 0 -0.11 0 -0.101 0 -0.139 0 -0.069 0 -0.167 0 -0.037 0 -0.194 0 -0.008 0 -0.198 0 -0.021 0 -0.175 0 -0.047 0 -0.145 0 -0.074 0 -0.117 0 -0.098 0 -0.09 0 -0.121 0 -0.066 0 -0.142 0 -0.042 0 -0.163 0 -0.019 0 -0.181 0 -0.001 0 -0.179 0 -0.019 0 -0.159 0 -0.036 0 -0.142 0 -0.052 0 -0.124 0 -0.066 0 -0.11 0 -0.078 0 -0.097 0 -0.09 0 -0.085 0 -0.099 0 -0.076 0 -0.106 0 -0.069 0 -0.112 0 -0.063 0 -0.117 0 -0.058 0 -0.121 0 -0.055 0 -0.122 0 -0.054 0 -0.122 0 -0.056 0 -0.12 0 -0.058 0 -0.117 0 -0.062 0 -0.113 0 -0.069 0 -0.106 0 -0.076 0 -0.099 0 -0.085 0 -0.09 0 -0.097 0 -0.078 0 -0.11 0 -0.066 0 -0.124 0 -0.052 0 -0.142 0 -0.036 0 -0.159 0 -0.019 0 -0.179 0 -0.001 0 -0.181 0 -0.019 0 -0.163 0 -0.042 0 -0.142 0 -0.066 0 -0.121 0 -0.09 0 -0.098 0 -0.117 0 -0.074 0 -0.145 0 -0.047 0 -0.175 0 -0.021 0 -0.198 0 -0.008 0 -0.194 0 -0.037 0 -0.167 0 -0.069 0 -0.139 0 -0.101 0 -0.11 0 -0.136 0 -0.079 0 -0.171 0 -0.048 0 -0.207 0 -0.015 0 -0.227 0 -0.019 0 -1.7 0c-2.538,-4.973 -2.345,-9.362 0,-13.29zm1.231 2.062c-1.445,3.039 -1.243,6.077 0.077,9.167l12.162 0c1.32,-3.09 1.522,-6.128 0.077,-9.167l-12.316 0z" />
                <g>
                    <rect class="fil0" transform="matrix(3.40744E-15 0.128657 -0.128658 3.40742E-15 21.6647 30.8119)"
                        width="34.686" height="14.775" rx="5.127" ry="5.127" />
                    <rect class="fil0" transform="matrix(3.40744E-15 0.128657 -0.128658 3.40742E-15 28.2363 30.8119)"
                        width="34.686" height="14.775" rx="5.127" ry="5.127" />
                </g>
                <path class="fil0"
                    d="M24 36.225c0.675,0 1.223,0.423 1.223,0.945 0,0.522 -0.601,0.423 -1.277,0.423 -0.675,0 -1.169,0.099 -1.169,-0.423 0,-0.522 0.548,-0.945 1.223,-0.945z" />
            </g>
        </g>
    </g>
</svg>