<?xml version="1.0" encoding="UTF-8"?>
<!DOCTYPE svg PUBLIC "-//W3C//DTD SVG 1.1//EN" "http://www.w3.org/Graphics/SVG/1.1/DTD/svg11.dtd">
<!-- Creator: CorelDRAW 2026 -->
<svg xmlns="http://www.w3.org/2000/svg" xml:space="preserve" width="48px" height="48px" version="1.1" style="shape-rendering:geometricPrecision; text-rendering:geometricPrecision; image-rendering:optimizeQuality; fill-rule:evenodd; clip-rule:evenodd"
viewBox="0 0 48 48"
 xmlns:xlink="http://www.w3.org/1999/xlink"
 xmlns:xodm="http://www.corel.com/coreldraw/odm/2003">
 <defs>
  <style type="text/css">
   <![CDATA[
    .fil0 {fill:#373435}
   ]]>
  </style>
 </defs>
 <g id="Layer_x0020_1">
  <metadata id="CorelCorpID_0Corel-Layer"/>
  <g>
   <path class="fil0" d="M9.898 35.916c0.189,-0.298 0.826,-1.139 0.915,-1.376 0.283,-0.749 -0.644,-1.127 -1.084,-0.478 -2.415,3.567 -2.829,2.808 1.16,4.386 1.259,0.498 1.269,-0.315 1.141,-0.636 -0.164,-0.412 -1.183,-0.513 -1.553,-0.838 2.577,-0.68 4.438,-2.024 5.549,-4.201 1.527,-2.99 -0.02,-3.166 -0.387,-2.545 -0.683,1.157 -0.023,4.01 -5.741,5.688zm32.106 -11.976l-35.902 0 -0.003 -0.678 35.917 -0.001 -0.012 0.679zm-9.697 3.818l0 0zm-0.049 -0.004l-0.001 0 0.001 0zm-0.071 -0.004l0 0zm-0.001 0l0 0zm-0.002 -0.001l0 0zm-0.007 0l0 0zm-0.198 -0.008l-0.002 0 0.002 0zm-0.255 -0.007l0 0zm0 0l0 0zm-0.002 0l0 0zm-0.002 0l0 0zm-0.002 0l0 0zm-0.002 0l0 0zm-0.002 0l0 0zm-0.118 -0.003l0 0zm-0.362 -0.006l0 0zm-0.012 0l0 0zm-0.125 -0.001l-0.003 0 0.003 0zm-0.793 -0.007l0 0zm0 0l0 0zm-0.026 -0.001l0 0zm0 0l0 0zm-0.006 0l0 0zm-0.006 0l0 0zm-0.026 0l0 0zm-0.026 0l0 0zm0 0l0 0zm-0.007 0l0 0zm0.013 0l0 0zm0.007 0l0.013 0 -0.013 0zm0.019 0l0 0zm0.007 0l0.006 0 -0.006 0zm0.032 0l0 0zm0.006 0.001l0.007 0 -0.007 0zm0.02 0l0 0zm0.006 0l0 0zm0.064 0l0 0zm0.006 0l0 0zm0.006 0l0 0zm0.007 0l0 0zm0.006 0l0 0zm0.006 0l0 0zm0.007 0.001l0 0zm0.006 0l0 0zm0.006 0l0 0zm0.045 0l0 0zm0.621 0.006l0.125 0.001 -0.125 -0.001zm0.127 0.001l0 0zm0.005 0l0 0zm0.003 0l0.002 0 -0.002 0zm0.005 0l0 0zm0.003 0.001l0 0zm0.002 0l0 0zm0.003 0l0 0zm0.734 0.015l0 0 0 0zm0.001 0l0 0zm-11.636 -1.113c-1.151,0.063 -2.454,0.005 -3.623,0.006l-9.141 -0.004c-0.774,-0.001 -1.48,0.146 -1.435,-0.665l35.842 -0.002c0.079,0.886 -0.752,0.668 -2.061,0.669l-16.776 -0.011c-0.896,-0.002 -1.926,-0.044 -2.806,0.007zm-14.208 -1.082c0.039,-0.202 0.254,-0.383 0.525,-0.404 0.898,-0.036 34.776,-0.004 34.854,0.013 0.45,0.101 0.467,0.426 0.503,0.654l-35.868 -0.001 -0.014 -0.262zm-0.042 -2.473l-0.002 -0.639 35.905 -0.005 -0.004 0.678c-1.99,-0.008 -35.305,0.127 -35.899,-0.034zm17.03 -0.644c-0.003,-0.002 -0.006,-0.004 -0.01,-0.005 0.004,0.001 0.007,0.003 0.01,0.005zm-0.012 -0.006c-0.003,-0.001 -0.005,-0.002 -0.008,-0.004 0.003,0.002 0.005,0.003 0.008,0.004zm-2.633 -1.124l0 0zm-15.167 -0.039c-0.56,0.105 -0.424,0.801 -0.427,1.361 -0.018,3.366 0.598,4.397 -1.227,3.92 -2.393,-0.626 -1.888,-3.424 -1.884,-5.427 0.005,-2.444 0.001,-4.889 -0.002,-7.333 -0.002,-0.916 -0.118,-2.698 0.207,-3.442 0.33,-0.755 1.155,-1.511 2.159,-1.534 2.158,-0.023 39.254,-0.087 39.954,0.007 2.41,0.32 2.193,2.563 2.198,4.416l-0.002 9.995c0.001,1.365 0.046,1.753 -0.696,2.603 -0.635,0.728 -1.996,1.048 -2.355,0.668 -0.259,-0.274 0.052,-4.335 -0.075,-4.851 -0.126,-0.51 -0.676,-0.411 -1.227,-0.414 -6.265,-0.042 -36.495,-0.03 -36.623,0.031zm-1.472 -13.611c-1.246,-0.148 -3.115,1.491 -3.265,3.404 -0.161,2.043 -0.011,7.401 -0.013,9.961 -0.002,1.417 -0.214,3.532 0.348,4.659 0.519,1.044 1.897,2.184 2.985,2.097 0.173,0.139 31.773,0.051 37.136,0.056 2.324,0.003 4.632,0.402 5.997,-1.92 0.386,-0.657 0.463,-1.304 0.463,-2.18l0.003 -10.648c0,-2.057 0.142,-2.984 -1.001,-4.306 -1.102,-1.274 -2.541,-1.171 -4.156,-1.17 -4.237,0 -38.263,-0.053 -38.497,0.047zm2.259 15.613l35.917 -0.001 -35.917 0.001zm31.475 13.715c-0.353,0.279 -1.316,0.429 -1.511,0.768 -0.268,0.466 0.013,1.136 1.107,0.704 3.411,-1.346 3.491,-1.197 2.11,-3.027 -0.64,-0.848 -1.106,-1.882 -1.737,-1.675 -1.057,0.346 0.326,1.598 0.591,2.142 -1.984,-0.384 -4.045,-1.774 -4.846,-3.265 -0.718,-1.339 -0.626,-1.896 -0.85,-2.362 -0.206,-0.431 -0.85,-0.433 -1.048,-0.003 -0.373,0.81 0.948,3.362 1.978,4.395 1.015,1.016 2.378,1.781 4.206,2.323zm-14.054 1.22c-0.354,-0.28 -0.868,-1.091 -1.151,-1.236 -0.452,-0.233 -1.31,0.18 -0.594,1.049l1.623 1.891c1.091,1.287 1.329,-0.049 3.041,-1.886 0.683,-0.734 -0.1,-1.363 -0.597,-1.051 -0.381,0.316 -0.776,0.898 -1.135,1.274 -0.09,-1.667 -0.011,-4.719 -0.008,-6.626 0.001,-0.631 0.173,-1.62 -0.546,-1.676 -0.803,-0.061 -0.628,0.97 -0.628,1.575 -0.003,2.228 0.024,4.459 -0.005,6.686zm-1.174 -18.669l4.973 -0.008c0.574,-0.002 0.96,0.051 0.925,-0.668 -0.031,-0.615 -0.542,-0.522 -1.076,-0.523l-6.328 -0.007c-0.395,-0.001 -0.587,0.023 -0.671,0.361 -0.294,1.178 1.187,0.847 2.177,0.845zm15.595 -8.766c-0.551,0.194 -0.557,0.97 -0.039,1.123 0.182,0.053 1.666,0.052 1.839,0.004 0.546,-0.154 0.545,-0.995 0.001,-1.134 -0.184,-0.047 -1.657,-0.044 -1.801,0.007zm3.547 -0.013c-0.549,0.134 -0.54,0.832 -0.234,1.051 0.219,0.155 1.237,0.17 1.566,0.096 0.468,-0.103 0.563,-0.793 0.2,-1.06 -0.209,-0.153 -1.239,-0.159 -1.532,-0.087z"/>
  </g>
 </g>
</svg>
