<svg xmlns="http://www.w3.org/2000/svg" width="1024" height="1024" viewBox="0 0 1024 1024">
<g>
<path d="M 110.75 901.92 C109.09,900.95 109.00,881.47 109.00,515.07 C109.00,207.62 109.25,129.04 110.25,128.22 C111.75,126.99 910.80,126.10 912.75,127.33 C914.54,128.46 914.59,900.01 912.80,901.80 C911.21,903.39 113.47,903.50 110.75,901.92 ZM 224.25 889.01 L 306.00 889.00 L 306.00 866.50 L 306.00 844.00 L 214.50 844.00 L 123.00 844.00 L 123.00 867.15 L 123.00 890.30 L 132.75 889.66 C138.11,889.30 179.29,889.01 224.25,889.01 ZM 902.00 883.66 L 902.00 878.33 L 759.33 877.67 C680.87,877.30 594.69,877.00 567.83,877.00 L 519.00 877.00 L 519.00 883.25 L 519.00 889.50 L 710.50 889.24 L 902.00 888.99 L 902.00 883.66 ZM 505.00 865.88 L 505.00 842.75 L 501.88 843.38 C500.16,843.72 458.53,844.00 409.38,844.00 L 320.00 844.00 L 320.00 866.50 L 320.00 889.00 L 412.50 889.00 L 505.00 889.00 L 505.00 865.88 ZM 570.00 861.17 C570.00,860.20 569.44,858.84 568.75,858.15 C567.80,857.21 567.50,849.48 567.50,826.44 L 567.50 795.97 L 632.75 795.74 L 698.00 795.50 L 698.00 826.69 C698.00,846.41 697.63,858.11 697.00,858.50 C696.45,858.84 696.00,859.99 696.00,861.06 C696.00,862.78 696.73,863.00 702.61,863.00 C708.43,863.00 709.44,862.71 711.14,860.55 C713.88,857.07 727.34,848.28 732.13,846.84 C735.77,845.75 737.23,844.15 746.83,830.68 C752.69,822.45 760.75,811.91 764.74,807.25 C768.73,802.59 772.00,798.19 772.00,797.46 C772.00,796.74 773.13,795.26 774.51,794.17 C779.15,790.52 783.26,793.85 782.32,800.50 C781.96,803.02 782.38,803.77 784.99,805.23 C786.76,806.22 788.76,808.56 789.67,810.73 C791.29,814.57 791.22,823.56 789.32,853.25 L 788.70 863.00 L 792.70 863.00 L 796.71 863.00 L 803.85 851.17 L 811.00 839.35 L 811.00 827.64 C811.00,814.41 812.01,810.85 816.97,806.68 C819.83,804.27 820.14,803.54 819.56,800.49 C819.21,798.59 819.37,796.17 819.93,795.13 C821.21,792.73 825.43,791.63 828.01,793.01 C830.49,794.33 833.00,799.10 833.00,802.48 C833.00,803.90 833.65,805.31 834.46,805.62 C835.26,805.93 837.06,808.48 838.46,811.29 C840.74,815.87 841.00,817.58 841.00,827.91 L 841.00 839.43 L 848.05 851.22 L 855.09 863.00 L 878.05 863.00 L 901.00 863.00 L 901.00 784.00 L 901.00 705.00 L 710.00 705.00 L 519.00 705.00 L 519.00 784.25 L 519.00 863.50 L 544.50 863.22 C568.11,862.96 570.00,862.80 570.00,861.17 ZM 759.17 861.25 C759.99,860.29 761.49,856.64 762.52,853.15 C765.29,843.68 768.90,838.58 774.29,836.53 L 778.78 834.81 L 779.49 826.29 C780.10,818.94 779.96,817.55 778.48,816.14 C777.30,815.01 776.62,814.86 776.33,815.66 C776.09,816.30 773.13,821.03 769.74,826.16 C761.98,837.96 747.62,852.47 739.50,856.73 C727.73,862.91 727.75,862.93 743.60,862.97 C755.81,863.00 757.89,862.77 759.17,861.25 ZM 777.53 856.58 C777.91,853.04 777.99,849.55 777.72,848.83 C777.15,847.30 773.54,854.89 772.52,859.75 C771.90,862.73 772.05,863.00 774.34,863.00 C776.68,863.00 776.89,862.58 777.53,856.58 ZM 836.00 853.56 C836.00,853.31 835.06,851.51 833.90,849.56 C831.88,846.13 831.59,846.00 826.00,846.00 C820.41,846.00 820.12,846.13 818.10,849.56 C816.94,851.51 816.00,853.31 816.00,853.56 C816.00,853.80 820.50,854.00 826.00,854.00 C831.50,854.00 836.00,853.80 836.00,853.56 ZM 830.00 827.05 C830.00,819.23 828.66,814.00 826.67,814.00 C826.11,814.00 824.83,814.74 823.83,815.65 C822.32,817.02 822.00,818.86 822.00,826.15 L 822.00 835.00 L 826.00 835.00 L 830.00 835.00 L 830.00 827.05 ZM 305.33 804.75 L 305.50 780.00 L 214.25 780.00 L 123.00 780.00 L 123.00 805.01 L 123.00 830.01 L 214.08 829.76 L 305.16 829.50 L 305.33 804.75 ZM 505.98 805.50 C505.98,792.30 505.63,780.97 505.22,780.33 C504.66,779.44 482.16,779.30 412.24,779.74 L 320.00 780.31 L 320.00 805.20 L 320.00 830.09 L 413.00 829.80 L 506.00 829.50 L 505.98 805.50 ZM 654.80 827.80 C655.46,827.14 656.00,825.43 656.00,824.00 C656.00,822.57 655.46,820.86 654.80,820.20 C653.25,818.65 613.79,818.51 610.93,820.04 C608.45,821.37 608.33,826.51 610.75,827.92 C613.36,829.44 653.27,829.33 654.80,827.80 ZM 505.00 540.00 L 505.00 315.00 L 451.00 315.00 L 397.00 315.00 L 397.00 321.78 C397.00,329.62 395.52,332.47 390.30,334.65 C386.47,336.25 386.36,338.33 390.08,338.82 C391.41,338.99 396.55,339.95 401.50,340.94 C409.92,342.63 411.82,343.54 431.00,354.98 C442.27,361.70 452.99,368.62 454.81,370.35 C456.63,372.08 459.43,376.20 461.03,379.50 C463.61,384.79 464.55,389.69 469.03,421.00 C471.82,440.52 476.12,469.77 478.59,486.00 C484.99,528.01 484.72,524.37 481.67,527.42 L 479.09 530.00 L 459.55 530.00 C441.33,530.00 439.86,529.86 438.00,528.00 C436.90,526.90 435.97,524.76 435.93,523.25 C435.89,521.74 435.49,519.60 435.03,518.50 C434.57,517.39 434.43,524.12 434.73,533.55 C435.18,548.16 435.02,551.06 433.60,553.80 L 431.95 557.00 L 377.05 557.00 C328.47,557.00 321.96,556.82 320.57,555.43 C319.23,554.08 319.00,550.21 319.00,528.43 L 319.00 503.00 L 306.50 503.00 L 294.00 503.00 L 294.00 519.07 C294.00,534.62 293.40,538.37 290.60,540.23 C290.00,540.64 268.26,540.98 242.31,540.98 L 195.11 541.00 L 193.56 538.78 C192.30,536.98 192.00,533.32 192.00,519.53 L 192.00 502.50 L 171.89 502.79 C149.43,503.12 147.00,502.57 147.00,497.16 C147.00,495.63 148.79,481.13 150.97,464.94 C162.05,382.72 161.53,385.83 165.55,377.91 C169.10,370.89 175.93,365.57 197.14,353.30 C215.34,342.77 217.03,342.00 225.38,340.55 C230.27,339.70 234.43,339.00 234.63,339.00 C234.83,339.00 235.00,337.71 235.00,336.13 C235.00,332.28 238.11,328.57 242.98,326.62 C246.92,325.05 247.00,324.92 247.00,320.01 L 247.00 315.00 L 185.00 315.00 L 123.00 315.00 L 123.00 540.00 L 123.00 765.00 L 314.00 765.00 L 505.00 765.00 L 505.00 540.00 ZM 901.23 641.00 L 901.50 591.00 L 710.25 591.00 L 519.00 591.00 L 519.00 641.00 L 519.00 691.00 L 709.98 691.00 L 900.96 691.00 L 901.23 641.00 ZM 669.26 577.83 C750.24,577.71 835.51,577.44 858.75,577.23 L 901.00 576.85 L 901.00 527.17 L 901.00 477.50 L 710.00 477.76 L 519.00 478.01 L 519.00 528.61 C519.00,573.32 519.18,579.15 520.51,578.63 C521.34,578.32 588.28,577.96 669.26,577.83 ZM 374.77 471.23 L 375.05 398.46 L 360.94 381.98 C353.18,372.92 346.26,364.92 345.58,364.20 C344.56,363.14 342.12,364.14 332.42,369.55 C325.86,373.21 320.40,376.30 320.28,376.40 C320.17,376.51 321.15,379.28 322.47,382.55 C324.89,388.54 327.21,402.45 336.06,463.90 C341.41,501.11 341.33,503.00 334.30,503.00 L 331.00 503.00 L 331.00 523.50 L 331.00 544.00 L 352.75 544.00 L 374.50 544.00 L 374.77 471.23 ZM 422.00 485.00 C422.00,427.33 422.05,425.95 424.00,424.00 C426.78,421.22 431.55,421.38 433.47,424.32 C434.46,425.82 436.23,436.37 438.46,454.07 C441.83,480.69 446.59,513.21 447.49,515.75 C447.81,516.65 451.06,517.00 459.05,517.00 L 470.16 517.00 L 469.60 514.25 C469.07,511.65 466.33,491.96 456.89,423.00 C454.67,406.77 452.12,391.48 451.21,389.00 C448.76,382.26 441.17,375.39 428.57,368.49 C422.57,365.19 417.31,362.36 416.90,362.19 C416.49,362.02 414.23,364.72 411.88,368.19 C409.53,371.66 402.97,380.47 397.30,387.76 L 387.00 401.03 L 387.00 472.51 L 387.00 544.00 L 404.50 544.00 L 422.00 544.00 L 422.00 485.00 ZM 281.00 477.63 C281.00,428.20 281.04,427.22 283.07,424.63 C284.42,422.92 286.11,422.00 287.92,422.00 C293.23,422.00 294.06,424.28 296.59,445.72 C297.88,456.60 299.75,470.90 300.75,477.50 L 302.57 489.50 L 314.29 489.78 C320.73,489.94 326.00,489.71 326.00,489.28 C326.00,488.24 320.83,449.77 316.43,418.11 C314.50,404.15 312.23,391.10 311.41,389.11 C308.68,382.56 304.78,378.01 298.10,373.59 C291.51,369.24 277.04,361.59 276.52,362.19 C276.37,362.36 275.26,364.46 274.05,366.86 C266.97,380.88 249.11,402.00 244.31,402.00 C239.08,402.00 222.49,384.37 213.74,369.50 C211.47,365.65 209.50,362.34 209.36,362.13 C208.76,361.28 187.42,373.76 183.35,377.34 C176.56,383.32 174.48,388.44 172.09,405.05 C169.84,420.68 161.00,487.73 161.00,489.14 C161.00,489.61 166.11,490.00 172.34,490.00 L 183.69 490.00 L 186.38 467.25 C187.86,454.74 189.57,440.27 190.18,435.11 C191.40,424.70 192.98,422.00 197.85,422.00 C199.47,422.00 201.51,422.90 202.59,424.10 C204.40,426.10 204.52,428.74 204.86,477.10 L 205.22 528.00 L 243.11 528.00 L 281.00 528.00 L 281.00 477.63 ZM 624.90 462.98 L 718.50 462.97 L 715.37 460.96 C708.49,456.55 704.11,447.19 704.04,436.75 C704.01,431.30 704.38,429.62 706.00,428.00 C708.56,425.44 709.24,425.48 715.48,428.53 L 720.66 431.07 L 789.08 430.78 L 857.50 430.50 L 861.87 428.17 C870.23,423.71 873.49,426.92 872.80,438.95 C872.26,448.19 868.59,455.83 862.60,460.17 L 858.70 463.00 L 879.85 463.00 L 901.00 463.00 L 901.00 380.50 L 901.00 298.00 L 731.75 298.00 C638.66,298.00 552.71,297.70 540.75,297.34 L 519.00 296.68 L 519.00 380.48 L 519.00 464.28 L 525.15 463.64 C528.53,463.29 573.41,462.99 624.90,462.98 ZM 248.67 380.75 C257.27,371.90 267.25,356.91 265.62,355.29 C264.77,354.44 252.96,352.24 245.24,351.50 C240.92,351.08 234.55,351.28 229.49,352.00 C219.49,353.42 219.34,353.72 224.25,362.92 C227.24,368.52 241.36,386.00 242.90,386.00 C243.27,386.00 245.86,383.64 248.67,380.75 ZM 388.28 377.25 C398.38,365.11 405.12,355.71 404.27,354.96 C403.32,354.11 391.08,352.25 381.00,351.41 C374.35,350.87 358.41,352.26 357.17,353.50 C355.64,355.03 359.84,361.50 369.50,372.48 C375.55,379.35 380.80,384.98 381.16,384.99 C381.53,385.00 384.73,381.51 388.28,377.25 ZM 317.28 363.39 C324.35,359.85 332.63,354.90 344.07,347.39 C353.16,341.42 354.11,341.04 363.07,339.75 C371.07,338.60 372.54,338.10 372.80,336.45 C373.63,331.25 375.38,328.92 380.12,326.75 C384.96,324.53 385.00,324.47 385.00,319.76 L 385.00 315.00 L 322.00 315.00 L 259.00 315.00 L 259.00 320.85 C259.00,329.35 257.57,332.60 252.95,334.64 C247.61,337.00 247.18,338.79 251.80,339.49 C269.08,342.11 270.42,342.58 286.15,351.60 C294.59,356.44 303.50,361.66 305.95,363.20 C308.39,364.74 310.77,366.00 311.23,366.00 C311.69,366.00 314.41,364.82 317.28,363.39 ZM 229.29 297.59 C232.32,292.24 235.96,289.81 241.76,289.25 C248.65,288.59 254.90,292.29 258.39,299.09 L 259.50 301.26 L 312.50 301.70 L 365.50 302.14 L 367.50 297.82 C370.93,290.41 379.62,287.14 387.33,290.36 C390.88,291.85 396.00,297.29 396.00,299.58 C396.00,300.79 404.03,301.00 450.50,301.00 L 505.00 301.00 L 505.00 283.50 L 505.00 266.00 L 329.75 266.00 C233.36,265.99 147.41,265.70 138.75,265.34 L 123.00 264.69 L 123.00 283.09 L 123.00 301.50 L 175.04 301.50 L 227.08 301.50 L 229.29 297.59 ZM 245.20 300.80 C244.27,299.87 243.73,299.87 242.80,300.80 C241.87,301.73 242.13,302.00 244.00,302.00 C245.87,302.00 246.13,301.73 245.20,300.80 ZM 383.20 300.80 C382.27,299.87 381.73,299.87 380.80,300.80 C379.87,301.73 380.13,302.00 382.00,302.00 C383.87,302.00 384.13,301.73 383.20,300.80 ZM 553.02 265.50 C553.51,248.42 553.67,247.24 556.21,242.39 C559.55,236.03 567.51,228.76 573.76,226.37 C578.02,224.74 582.89,224.52 621.76,224.23 C648.81,224.02 667.12,224.29 670.62,224.94 C682.52,227.14 691.89,234.74 695.90,245.45 C697.68,250.21 698.20,254.31 698.69,267.50 L 699.30 283.70 L 702.15 283.52 C703.72,283.43 712.20,283.27 721.00,283.17 L 737.00 283.00 L 737.00 255.66 L 737.00 228.32 L 760.25 227.66 C773.04,227.30 800.94,227.00 822.25,227.00 L 861.00 227.00 L 861.00 255.00 L 861.00 283.00 L 881.00 283.00 L 901.00 283.00 L 901.00 211.50 L 901.00 140.00 L 710.00 140.00 L 519.00 140.00 L 519.00 212.02 L 519.00 284.05 L 535.75 283.77 L 552.50 283.50 L 553.02 265.50 ZM 822.17 254.35 C824.44,252.29 824.50,250.21 822.35,247.83 C820.84,246.16 818.73,246.00 798.67,246.00 C779.59,246.00 776.41,246.22 774.83,247.65 C772.56,249.71 772.50,251.79 774.65,254.17 C776.16,255.84 778.27,256.00 798.33,256.00 C817.41,256.00 820.59,255.78 822.17,254.35 ZM 316.25 252.01 L 505.00 252.00 L 505.00 196.00 L 505.00 140.00 L 314.00 140.00 L 123.00 140.00 L 123.00 196.62 L 123.00 253.23 L 125.25 252.63 C126.49,252.30 212.44,252.02 316.25,252.01 ZM 572.88 788.50 C568.16,785.93 566.74,781.09 567.19,769.12 C567.51,760.71 568.05,757.64 569.77,754.35 C572.58,748.98 578.11,744.46 583.56,743.09 C589.70,741.54 676.53,741.60 682.70,743.16 C685.71,743.91 688.76,745.72 691.55,748.41 C697.34,753.97 699.31,760.79 698.84,773.66 L 698.50 783.16 L 694.76 786.58 L 691.03 790.00 L 633.26 789.96 C585.26,789.93 575.06,789.68 572.88,788.50 ZM 678.57 646.43 C676.45,644.31 676.59,639.69 678.83,637.65 C680.45,636.19 684.33,636.00 713.33,636.00 C744.67,636.00 746.08,636.08 748.00,638.00 C750.40,640.40 750.54,642.79 748.44,645.78 C746.89,648.00 746.87,648.00 713.51,648.00 C684.51,648.00 679.94,647.79 678.57,646.43 ZM 678.96 534.45 C677.03,532.13 677.36,526.94 679.52,525.36 C681.00,524.28 688.10,524.00 714.00,524.00 C750.05,524.00 750.33,524.05 750.33,530.00 C750.33,535.96 750.10,536.00 713.43,536.00 C684.65,536.00 680.07,535.79 678.96,534.45 ZM 716.06 422.75 C713.71,421.51 710.38,418.54 708.65,416.15 C705.72,412.11 705.50,411.22 705.50,403.58 C705.50,396.46 705.84,394.86 708.00,391.66 C709.38,389.63 712.30,386.74 714.50,385.24 L 718.50 382.50 L 788.08 382.50 C855.42,382.50 857.77,382.56 861.32,384.47 C865.96,386.97 870.64,393.45 871.91,399.12 C873.49,406.15 870.88,414.99 865.83,419.70 C860.05,425.10 861.50,425.00 788.19,425.00 L 720.31 425.00 L 716.06 422.75 ZM 732.56 217.78 C730.42,214.73 730.31,193.32 732.42,190.44 C733.80,188.55 735.64,188.50 798.31,188.50 C860.31,188.50 862.87,188.57 864.90,190.40 C866.81,192.14 867.00,193.38 867.00,204.15 C867.00,214.67 866.77,216.23 865.00,218.00 C863.04,219.96 861.67,220.00 798.56,220.00 L 734.11 220.00 L 732.56 217.78 ZM 218.65 230.17 C217.74,229.17 217.00,227.52 217.00,226.51 C217.00,223.46 230.01,200.23 232.01,199.71 C234.93,198.94 238.47,201.27 238.81,204.17 C239.18,207.39 227.88,230.45 225.48,231.37 C222.64,232.46 220.37,232.06 218.65,230.17 ZM 258.24 229.89 C254.65,228.56 254.75,225.19 258.74,213.00 L 262.50 201.50 L 266.24 201.19 C269.44,200.93 270.16,201.26 271.15,203.44 C272.10,205.52 271.90,207.49 270.06,214.23 C266.21,228.29 263.52,231.85 258.24,229.89 ZM 403.70 227.75 C400.19,223.01 393.21,209.83 392.97,207.50 C392.52,203.04 394.57,200.00 398.03,200.00 C400.83,200.00 403.13,202.96 408.85,213.90 C414.34,224.40 414.92,226.93 412.43,229.43 C409.84,232.02 406.36,231.35 403.70,227.75 ZM 366.58 227.75 C364.22,224.12 359.00,209.12 359.00,205.95 C359.00,200.31 366.48,198.28 369.11,203.21 C371.01,206.76 376.00,222.26 376.00,224.62 C376.00,229.71 369.31,231.94 366.58,227.75 ZM 293.96 226.96 C291.84,224.84 291.80,222.95 293.60,208.26 C294.41,201.66 298.16,199.20 302.54,202.40 C304.24,203.65 304.42,204.90 304.16,213.59 C303.88,222.96 302.99,226.64 300.60,228.23 C298.64,229.54 296.05,229.05 293.96,226.96 ZM 329.75 227.25 C328.13,225.42 326.00,214.00 326.00,207.09 C326.00,202.88 327.78,201.00 331.78,201.00 C335.38,201.00 336.75,204.10 337.91,214.91 C338.91,224.21 338.85,225.51 337.36,227.16 C335.25,229.48 331.78,229.52 329.75,227.25 ZM 432.33 218.47 C422.88,208.15 421.39,205.62 422.87,202.40 C423.45,201.11 425.10,199.76 426.52,199.41 C429.56,198.64 430.95,199.77 441.13,211.26 C448.37,219.43 449.43,222.39 446.17,225.35 C442.72,228.47 440.45,227.35 432.33,218.47 ZM 183.57 224.43 C180.78,221.63 181.86,219.06 190.05,208.94 C196.81,200.59 198.55,199.00 200.93,199.00 C206.45,199.00 207.92,204.44 203.93,210.17 C202.65,212.00 199.17,216.31 196.18,219.75 C190.40,226.42 186.87,227.72 183.57,224.43 ZM 192.32 189.00 C188.94,187.63 188.00,184.82 188.00,176.13 C188.00,166.51 189.06,163.31 192.73,161.90 C194.67,161.15 231.66,161.05 316.44,161.56 L 437.38 162.29 L 439.69 164.60 C441.76,166.67 442.00,167.84 442.00,175.84 C442.00,183.15 441.65,185.21 440.09,187.14 L 438.18 189.50 L 316.34 189.69 C247.32,189.80 193.55,189.50 192.32,189.00 ZM 429.00 175.00 C429.00,173.01 428.33,173.00 315.00,173.00 C201.67,173.00 201.00,173.01 201.00,175.00 C201.00,176.99 201.67,177.00 315.00,177.00 C428.33,177.00 429.00,176.99 429.00,175.00 Z" fill="rgba(0,0,0,1)"/>
</g>
</svg>