<svg xmlns="http://www.w3.org/2000/svg" viewBox="0 0 67.733332 17.4625" aria-label="Aires de Río isotype">
	<g transform="translate(-20.155689,-26.676647)">
		<g transform="matrix(0.50701009,0,0,0.50701009,-16.667242,-10.821569)">
			<g fill="#999999" stroke="none">
				<path d="m 72.627612,73.959506 c 0,7.331697 5.943515,13.275212 13.275212,13.275212 h 8.724467 v 4.208608 h -8.724467 c -7.331697,0 -13.275212,-5.943515 -13.275212,-13.275212 z"/>
				<path d="m 72.627612,82.410211 c 0,7.331697 5.943515,13.275212 13.275212,13.275212 h 8.724467 v 4.208611 h -8.724467 c -7.331697,0 -13.275212,-5.943518 -13.275212,-13.275215 z"/>
				<path d="m 72.62761,90.860919 c 0,7.331697 5.943515,13.275211 13.275212,13.275211 h 8.724469 v 4.20861 h -8.724469 c -7.331697,0 -13.275212,-5.94352 -13.275212,-13.275213 z"/>
			</g>
		</g>
	</g>
</svg>

<svg xmlns="http://www.w3.org/2000/svg" viewBox="70 71 30 28" aria-label="Aires de Rio">
	<g fill="#666666" stroke="none">
		<path d="m 72.627612,73.959506 c 0,7.331697 5.943515,13.275212 13.275212,13.275212 h 8.724467 v 4.208608 h -8.724467 c -7.331697,0 -13.275212,-5.943515 -13.275212,-13.275212 z"/>
		<path d="m 72.627612,82.410211 c 0,7.331697 5.943515,13.275212 13.275212,13.275212 h 8.724467 v 4.208611 h -8.724467 c -7.331697,0 -13.275212,-5.943518 -13.275212,-13.275215 z"/>
		<path d="m 72.62761,90.860919 c 0,7.331697 5.943515,13.275211 13.275212,13.275211 h 8.724469 v 4.20861 h -8.724469 c -7.331697,0 -13.275212,-5.94352 -13.275212,-13.275213 z"/>
	</g>
</svg>
