<?xml version="1.0" encoding="UTF-8" standalone="no"?>

<svg
   width="1414"
   height="853"
   viewBox="0 0 374.12082 225.68958"
   version="1.1"
   id="svg1"
   sodipodi:docname="map-clean.svg"
   xmlns:sodipodi="http://sodipodi.sourceforge.net/DTD/sodipodi-0.dtd"
   xmlns="http://www.w3.org/2000/svg"
   xmlns:svg="http://www.w3.org/2000/svg">
  <defs>
    <style type="text/css"><![CDATA[
      .rect-border {
        font-variation-settings: normal;
        opacity: 1;
        fill: none;
        fill-opacity: 0.455975;
        stroke: #000000;
        stroke-width: 0.529167;
        stroke-linecap: butt;
        stroke-linejoin: miter;
        stroke-miterlimit: 4;
        stroke-dasharray: none;
        stroke-dashoffset: 0;
        stroke-opacity: 1;
      }
      .zone-path {
        vector-effect: non-scaling-stroke;
        fill: #008ef2;
        fill-opacity: 0.47100201;
        stroke-width: 0.264583;
      }
      .zone-path-detailed {
        vector-effect: non-scaling-stroke;
        fill: #008ef2;
        stroke-width: 0.264583;
        fill-opacity: 0.47100201;
        font-variation-settings: normal;
        opacity: 1;
        stroke-linecap: butt;
        stroke-linejoin: miter;
        stroke-miterlimit: 4;
        stroke-dasharray: none;
        stroke-dashoffset: 0;
        stroke-opacity: 1;
        stop-color: #000000;
        stop-opacity: 1;
      }
      .pin-circle {
        font-variation-settings: normal;
        opacity: 1;
        vector-effect: non-scaling-stroke;
        fill: #800000;
        fill-opacity: 1;
        stroke-width: 0.0730401;
        stroke-linecap: butt;
        stroke-linejoin: miter;
        stroke-miterlimit: 4;
        stroke-dasharray: none;
        stroke-dashoffset: 0;
        stroke-opacity: 1;
      }
      .pin-airesderio {
        font-variation-settings: normal;
        vector-effect: non-scaling-stroke;
        fill: #800000;
        fill-opacity: 0.455975;
        stroke-width: 0.16213;
        stroke-linecap: butt;
        stroke-linejoin: miter;
        stroke-miterlimit: 4;
        stroke-dasharray: none;
        stroke-dashoffset: 0;
        stroke-opacity: 1;
      }
      .airesderio-path {
        vector-effect: non-scaling-stroke;
        fill: #e6f900;
        fill-opacity: 0.51257861;
        stroke-width: 0.1997;
      }
    ]]></style>
  </defs>
  <g
     id="mapas">
    <rect
       class="rect-border"
       id="near"
       width="69.217209"
       height="41.755505"
       x="81.364487"
       y="52.243599" />
    <rect
       class="rect-border"
       id="far"
       width="374.12082"
       height="225.68958"
       x="0"
       y="0" />
  </g>
  <g
     id="zonas">
    <g
       id="gterminal">
      <path
         class="zone-path"
         d="m 28.247054,37.089611 4.175651,0.491252 6.509105,2.824708 3.070333,2.210638 3.070331,2.579079 1.473761,1.596573 1.228132,1.719384 0.36844,2.456267 -0.614068,2.579079 -1.596573,1.842199 -2.70189,1.719387 c 0,0 -3.807212,-0.491255 -4.05284,-0.614067 C 38.93181,56.371296 33.2824,53.546591 33.2824,53.546591 l -3.930025,-3.193145 -3.807212,-4.42128 -2.824706,-4.666903 z"
         id="terminal" />
      <circle
         class="pin-circle"
         id="pin-terminal"
         cx="36.098015"
         cy="46.98563"
         r="2.0137656" />
    </g>
    <g
       id="gforum">
      <path
         class="zone-path-detailed"
         d="M 43.421053,72.078947 61.310527,57.663159 87.884211,89.447369 87.363159,90.489473 70.863157,104.38421 69.299999,103.86316 43.594736,72.947368 Z"
         id="forum" />
      <circle
         class="pin-circle"
         id="pin-forum"
         cx="58.824978"
         cy="79.12207"
         r="2.0137656" />
    </g>
    <g
       id="gcasagob">
      <path
         class="zone-path"
         d="M 37.212426,158.92039 9.4566228,123.9186 7.9828632,123.42735 0,129.69083 v 6.26347 l 27.510176,30.94895 z"
         id="casagob" />
      <circle
         class="pin-circle"
         id="pin-casagob"
         cx="9.6377773"
         cy="136.76311"
         r="2.0137656" />
      <circle
         class="pin-circle"
         id="pin-plazasanmartin"
         cx="26.456091"
         cy="156.33569"
         r="2.0137656" />
    </g>
    <g
       id="gplazavea">
      <path
         class="zone-path"
         d="m 139.27026,5.7722243 19.65013,16.4569797 c 0,0 -2.7019,2.210639 -1.96502,1.965012 0.73688,-0.245626 3.43878,4.421278 3.43878,4.421278 l -27.75581,23.088897 -20.387,-24.317029 z"
         id="plazavea"
         sodipodi:nodetypes="ccscccc" />
      <circle
         class="pin-circle"
         id="pin-plazavea"
         cx="138.37157"
         cy="29.165194"
         r="2.0137656" />
    </g>
    <g
       id="g-parque">
      <path
         class="zone-path"
         d="m 199.0421,0 0.69474,4.5157895 1.38947,4.8631577 6.25264,7.2947368 -23.62106,35.569919 18.41053,24.090312 0.26053,3.387138 -29.96053,20.494737 22.23158,26.05263 0.20468,4.15928 -20.63263,17.43949 v 3.6844 l 61.77508,74.13799 h 138.0737 V 86.460551 L 350.8421,67.910527 329.65263,54.710525 319.57893,48.110526 317.49473,44.63684 309.85264,43.594736 304.98946,40.815789 292.4842,30.394738 291.78948,27.268421 290.4,26.226315 285.88422,26.573683 278.58947,23.1 l -2.0842,-3.473685 -2.4316,-0.694736 h -1.38946 l -1.73686,-1.389474 0.34737,-1.736842 -0.34737,-1.389474 h -1.38946 l -3.47368,1.389474 -3.47369,-1.042105 -1.73684,-3.473684 -0.69474,-2.4315794 -1.73684,0.6947368 -3.82105,2.4315786 -7.29474,-5.5578942 V 5.3842104 L 243.85263,5.0368422 238.6421,0 Z"
         id="parque" />
      <circle
         class="pin-circle"
         id="pin-parque"
         cx="276.63824"
         cy="127.52752"
         r="2.0137656" />
    </g>
    <g
       id="gavroca">
      <path
         class="zone-path"
         d="m 89.273683,91.18421 109.808187,134.44005 4.47726,0.12282 L 91.950889,89.142142 Z"
         id="avroca"
         sodipodi:nodetypes="ccccc" />
      <circle
         class="pin-circle"
         id="pin-avroca"
         cx="145.09337"
         cy="156.96059"
         r="2.0137656" />
    </g>
  </g>
  <g
     id="edificio">
    <g
       id="gairesderio">
      <circle
         class="pin-airesderio"
         id="pin-airesderio"
         cx="114.75736"
         cy="73.439285"
         r="4.4700313" />
      <path
         class="airesderio-path"
         d="m 111.26556,71.791805 1.52949,-1.228227 1.59901,0.463483 2.47962,3.058973 0.30126,0.115865 0.7184,0.880615 -1.52949,1.251402 -0.60252,-0.787914 -1.50631,-0.301271 z"
         id="airesderio"
         sodipodi:nodetypes="cccccccccc" />
    </g>
  </g>
</svg>
