<svg xmlns="http://www.w3.org/2000/svg" width="1024" height="1024" viewBox="0 0 1024 1024">
<g>
<path d="M 181.00 920.00 C179.11,918.11 179.00,916.67 179.00,893.10 L 179.00 868.20 L 169.91 867.85 C155.42,867.29 157.00,881.40 157.00,752.89 L 157.00 643.00 L 150.13 643.00 C144.70,643.00 142.72,642.57 140.63,640.93 L 138.00 638.85 L 138.00 617.43 C138.00,597.33 138.12,595.88 140.00,594.00 C141.92,592.08 143.35,592.00 174.25,591.97 L 206.50 591.94 L 199.50 588.27 C189.30,582.91 176.46,569.87 171.67,560.00 C166.87,550.10 165.00,542.36 165.00,532.35 C165.00,524.97 165.23,523.95 167.22,522.56 C169.16,521.20 175.55,521.00 216.66,521.00 L 263.88 521.00 L 264.19 493.75 C264.48,468.22 264.64,466.20 266.68,461.78 C269.79,455.05 277.23,447.54 284.28,444.02 C289.52,441.40 291.40,441.00 298.48,441.00 C312.66,441.00 323.46,445.95 329.72,455.32 C333.45,460.90 334.82,465.11 335.64,473.50 C336.14,478.68 335.92,479.87 334.04,482.25 C332.45,484.25 330.96,485.00 328.58,485.00 C324.29,485.00 322.00,482.37 321.99,477.42 C321.98,467.51 318.13,460.87 310.34,457.30 C297.97,451.64 286.00,455.55 279.77,467.29 C277.66,471.26 277.51,472.93 277.18,496.25 L 276.82 521.00 L 324.91 521.00 C381.39,521.00 377.00,520.04 377.00,532.34 C377.00,540.77 374.26,552.59 370.64,559.72 C365.11,570.64 352.76,582.69 340.78,588.87 L 334.72 592.00 L 389.86 592.00 L 445.00 592.00 L 445.00 357.50 C445.00,124.33 445.01,122.99 447.00,121.00 C448.99,119.01 450.33,119.00 656.33,119.00 L 863.65 119.00 L 865.76 121.25 L 867.87 123.50 L 867.61 520.73 C867.35,903.77 867.28,918.04 865.52,919.98 C863.70,921.99 863.04,922.00 658.60,921.99 C495.29,921.97 452.99,921.71 451.00,920.71 L 448.50 919.44 L 448.23 893.72 L 447.97 868.00 L 442.48 868.00 L 437.00 868.00 L 437.00 892.55 L 437.00 917.09 L 434.55 919.55 C431.57,922.52 427.70,922.70 425.00,920.00 C423.11,918.11 423.00,916.67 423.00,893.00 L 423.00 868.00 L 308.50 868.00 L 194.00 868.00 L 193.89 889.75 C193.76,916.44 193.66,917.61 191.46,920.04 C189.11,922.64 183.62,922.62 181.00,920.00 ZM 853.71 888.39 C853.38,877.60 852.97,868.65 852.80,868.49 C852.35,868.06 688.02,867.70 566.75,867.86 L 461.00 868.00 L 461.00 888.00 L 461.00 908.00 L 657.66 908.00 L 854.31 908.00 L 853.71 888.39 ZM 448.00 797.00 L 448.00 740.00 L 309.50 740.00 L 171.00 740.00 L 171.00 797.00 L 171.00 854.00 L 309.50 854.00 L 448.00 854.00 L 448.00 797.00 ZM 643.72 637.00 C643.85,517.92 644.20,419.47 644.50,418.21 C645.52,414.03 651.16,413.29 655.25,416.81 C656.91,418.23 657.00,429.92 657.00,636.15 L 657.00 854.00 L 755.00 854.00 L 853.00 854.00 L 853.22 502.00 C853.35,308.40 853.46,146.29 853.47,141.75 L 853.50 133.50 L 656.05 133.50 L 458.61 133.50 L 458.55 296.25 L 458.50 459.00 L 469.75 459.00 L 481.00 459.00 L 481.00 385.25 C481.00,344.69 481.30,279.34 481.67,240.04 L 482.33 168.58 L 484.62 166.29 L 486.91 164.00 L 562.20 164.01 L 637.50 164.02 L 642.54 166.37 C648.48,169.13 655.55,176.72 656.98,181.88 C657.54,183.87 657.99,190.08 657.99,195.68 L 658.00 205.87 L 681.25 206.18 C703.25,206.48 704.73,206.62 708.80,208.79 C718.99,214.24 725.59,223.65 726.69,234.29 C727.42,241.34 726.63,244.40 723.77,245.64 C722.34,246.27 694.96,246.57 649.24,246.46 C565.24,246.26 572.44,247.26 573.24,235.91 C573.59,230.98 574.54,227.76 577.01,223.13 C580.89,215.85 585.31,211.69 592.95,208.10 C598.50,205.50 598.51,205.50 621.75,205.80 L 645.00 206.10 L 645.00 197.80 C645.00,188.09 643.28,183.73 638.10,180.27 L 634.70 178.00 L 565.52 178.00 L 496.33 178.00 L 495.66 224.66 C495.30,250.33 495.00,313.53 495.00,365.11 L 495.00 458.90 L 518.09 459.20 C547.35,459.58 545.00,457.67 545.00,481.04 L 545.00 497.85 L 542.37 499.93 C539.80,501.95 538.69,502.00 498.87,502.00 L 458.00 502.00 L 458.00 547.00 L 458.00 592.00 L 466.69 592.00 C474.23,592.00 475.68,592.29 477.69,594.17 C479.96,596.31 480.00,596.70 480.00,617.22 C480.00,638.05 479.99,638.10 477.55,640.55 C475.40,642.69 474.19,643.00 468.05,643.00 L 461.00 643.00 L 461.00 748.49 L 461.00 853.97 L 552.25 853.74 L 643.50 853.50 L 643.72 637.00 ZM 448.00 684.50 L 448.00 643.00 L 309.50 643.00 L 171.00 643.00 L 171.00 684.50 L 171.00 726.00 L 309.50 726.00 L 448.00 726.00 L 448.00 684.50 ZM 466.00 617.50 L 466.00 606.00 L 309.00 606.00 L 152.00 606.00 L 152.00 617.50 L 152.00 629.00 L 309.00 629.00 L 466.00 629.00 L 466.00 617.50 ZM 319.39 582.03 C336.66,577.61 351.31,566.30 358.36,551.93 C360.37,547.84 362.29,542.36 362.64,539.75 L 363.27 535.00 L 271.00 535.00 L 178.73 535.00 L 179.34 539.47 C180.18,545.56 184.83,555.42 189.84,561.71 C197.45,571.28 211.34,579.89 223.37,582.51 C227.88,583.49 240.34,583.86 270.59,583.92 C308.37,583.99 312.30,583.84 319.39,582.03 ZM 531.00 480.49 L 531.00 472.98 L 494.75 473.24 L 458.50 473.50 L 458.21 480.75 L 457.91 488.00 L 494.46 488.00 L 531.00 488.00 L 531.00 480.49 ZM 710.62 229.25 C708.66,225.48 705.16,222.50 701.10,221.14 C696.35,219.55 600.77,219.54 597.68,221.12 C594.41,222.81 590.99,226.16 589.38,229.25 L 587.95 232.00 L 650.00 232.00 L 712.05 232.00 L 710.62 229.25 ZM 160.00 404.00 C158.02,402.02 158.00,400.67 158.00,262.15 C158.00,127.95 158.07,122.24 159.83,120.65 C161.51,119.13 171.40,119.00 281.67,119.00 L 401.69 119.00 L 403.60 121.10 C405.45,123.15 405.51,127.16 405.80,262.55 L 406.11 401.89 L 404.05 403.95 C402.01,405.99 401.69,406.00 282.00,406.00 C163.33,406.00 161.98,405.98 160.00,404.00 ZM 391.66 295.83 C391.30,242.94 391.00,184.67 391.00,166.33 L 391.00 133.00 L 281.50 133.00 L 172.00 133.00 L 172.00 262.50 L 172.00 392.00 L 282.16 392.00 L 392.33 392.00 L 391.66 295.83 ZM 686.45 565.55 L 684.00 563.09 L 684.00 528.27 C684.00,488.78 683.96,489.00 691.00,489.00 C698.04,489.00 698.00,488.78 698.00,528.27 L 698.00 563.09 L 695.55 565.55 C694.20,566.90 692.15,568.00 691.00,568.00 C689.85,568.00 687.80,566.90 686.45,565.55 ZM 599.00 386.00 C597.22,384.22 597.00,382.67 597.00,372.00 C597.00,361.33 597.22,359.78 599.00,358.00 C601.61,355.39 606.43,355.43 609.08,358.08 C611.00,360.00 611.14,361.10 610.83,372.17 C610.52,383.39 610.34,384.31 608.14,386.09 C605.09,388.56 601.52,388.52 599.00,386.00 ZM 630.45 385.55 C628.14,383.23 628.00,382.46 628.00,371.77 C628.00,358.59 629.04,356.00 634.37,356.00 C640.77,356.00 641.46,357.40 641.85,371.27 L 642.20 383.70 L 639.46 385.85 C635.91,388.65 633.48,388.57 630.45,385.55 ZM 662.13 386.25 C660.34,384.75 659.94,382.95 659.38,373.80 C658.45,358.92 660.37,355.06 668.12,356.17 C671.88,356.70 672.97,360.42 672.99,372.75 C673.00,382.68 672.77,384.23 671.00,386.00 C668.53,388.47 664.90,388.57 662.13,386.25 ZM 693.00 386.00 C691.21,384.21 691.00,382.67 691.00,371.56 C691.00,359.83 691.13,359.02 693.22,357.56 C696.21,355.47 700.32,355.59 702.35,357.83 C703.70,359.33 704.00,361.94 704.00,372.27 C704.00,384.17 703.87,384.97 701.78,386.44 C698.75,388.57 695.40,388.40 693.00,386.00 ZM 696.50 341.20 C691.63,340.21 691.00,338.45 691.00,325.80 C691.00,314.51 691.12,313.79 693.45,311.45 C696.54,308.36 699.43,308.34 702.46,311.37 C704.76,313.67 704.81,314.08 704.28,326.12 C703.98,332.93 703.33,339.01 702.84,339.64 C701.70,341.08 699.09,341.72 696.50,341.20 ZM 598.70 339.22 C597.30,337.68 597.00,335.25 597.00,325.63 C597.00,314.52 597.13,313.78 599.45,311.45 C600.80,310.10 602.85,309.00 604.00,309.00 C605.15,309.00 607.20,310.10 608.55,311.45 C610.85,313.76 611.00,314.57 610.99,324.70 C610.97,338.09 610.03,340.38 604.42,340.80 C601.49,341.02 599.94,340.59 598.70,339.22 ZM 629.87 339.34 C628.87,338.14 628.50,334.32 628.50,325.25 C628.50,313.39 628.61,312.73 630.86,310.91 C634.03,308.34 636.60,308.51 639.55,311.45 C641.86,313.77 642.00,314.54 642.00,325.23 C642.00,338.79 641.03,341.00 635.07,341.00 C632.73,341.00 630.71,340.36 629.87,339.34 ZM 660.93 339.42 C658.22,336.15 658.61,315.28 661.45,311.40 C662.31,310.22 664.06,309.60 666.50,309.60 C672.28,309.60 673.00,311.38 673.00,325.54 C673.00,336.04 672.75,337.91 671.17,339.35 C668.84,341.46 662.66,341.50 660.93,339.42 ZM 599.22 293.44 C597.13,291.98 597.00,291.17 597.00,279.44 C597.00,268.33 597.21,266.79 599.00,265.00 C601.52,262.48 605.09,262.44 608.13,264.90 C610.30,266.66 610.51,267.67 610.84,278.15 C611.16,288.58 611.02,289.72 609.02,292.25 C606.54,295.40 602.68,295.87 599.22,293.44 ZM 630.44 293.58 C628.75,292.34 628.46,290.67 628.17,280.32 C627.87,269.43 628.02,268.25 629.99,265.73 C632.41,262.67 636.41,262.12 639.56,264.42 C641.27,265.66 641.54,267.34 641.83,278.34 C642.14,289.91 642.00,291.00 640.08,292.92 C637.68,295.32 633.24,295.63 630.44,293.58 ZM 660.99 292.26 C659.03,289.76 658.87,288.55 659.17,278.37 C659.44,269.09 659.82,266.85 661.40,265.10 C663.82,262.43 668.39,262.39 671.00,265.00 C672.78,266.78 673.00,268.33 673.00,279.00 C673.00,289.67 672.78,291.22 671.00,293.00 C668.08,295.92 663.61,295.59 660.99,292.26 ZM 693.22 293.44 C691.13,291.98 691.00,291.17 691.00,279.44 C691.00,268.33 691.21,266.79 693.00,265.00 C695.40,262.60 698.75,262.43 701.78,264.56 C703.88,266.03 704.00,266.82 704.00,279.00 C704.00,291.18 703.88,291.97 701.78,293.44 C700.56,294.30 698.63,295.00 697.50,295.00 C696.37,295.00 694.44,294.30 693.22,293.44 ZM 260.00 698.11 C256.42,697.12 254.48,692.68 256.00,689.00 C256.65,687.43 257.80,685.91 258.55,685.62 C259.30,685.33 282.30,685.03 309.67,684.94 L 359.41 684.79 L 361.21 687.01 C363.51,689.85 363.49,693.51 361.16,695.84 C359.53,697.47 356.76,697.74 335.91,698.33 C306.71,699.16 263.33,699.03 260.00,698.11 ZM 202.76 311.28 C196.78,310.38 197.00,313.37 197.00,233.93 C197.00,164.85 197.09,161.23 198.83,159.65 C200.46,158.18 204.64,158.00 237.83,158.00 C273.67,158.00 275.07,158.07 277.00,160.00 C278.96,161.96 279.00,163.33 279.00,234.07 C279.00,279.16 278.63,306.82 278.02,307.96 C276.08,311.59 271.78,312.00 238.10,311.85 C220.17,311.77 204.27,311.51 202.76,311.28 ZM 265.00 235.00 L 265.00 172.00 L 237.50 172.00 L 210.00 172.00 L 210.04 189.75 L 210.08 207.50 L 222.40 194.75 C233.04,183.73 235.14,182.00 237.86,182.00 C241.96,182.00 245.00,185.07 245.01,189.25 C245.03,192.15 243.13,194.35 227.51,209.61 L 210.00 226.73 L 210.03 240.61 L 210.05 254.50 L 215.77 248.00 C227.03,235.19 235.57,227.00 237.66,227.00 C241.19,227.00 245.00,230.77 245.00,234.26 C245.00,236.96 242.65,239.73 227.50,254.97 L 210.00 272.57 L 210.00 285.29 L 210.00 298.00 L 237.50 298.00 L 265.00 298.00 L 265.00 235.00 Z" fill="rgba(0,0,0,1)"/>
</g>
</svg>